<?xml version="1.0" encoding="UTF-8"?>
<svg version="1.1" viewBox="0 0 660.21 306.92" xmlns="http://www.w3.org/2000/svg">
 <defs>
  <linearGradient id="a" x1="57.548" x2="65.571" y1="139.58" y2="123.53" gradientUnits="userSpaceOnUse">
   <stop stop-color="#624bb0" offset="0"/>
   <stop stop-color="#b51551" offset="1"/>
  </linearGradient>
 </defs>
 <g transform="translate(-559.9 -356.27)">
  <g transform="translate(14)">
   <path d="m744.52 620.64-0.59716-32.38" fill="none" opacity=".893" stroke="#fff" stroke-linecap="round" stroke-linejoin="round" stroke-width="1.9411"/>
   <path d="m625.15 621.4-0.59716-32.38" fill="none" opacity=".893" stroke="#fff" stroke-linecap="round" stroke-linejoin="round" stroke-width="1.9411"/>
   <path d="m598.88 416.52c-1.7054 7.0858-24.124 119.19-18.02 120.75 19.378 4.9494 184.43 9.7014 182 0-10-40-10-110-20-130-18.439-36.878-130 0-130 0" fill="#4d3623" fill-rule="evenodd"/>
   <path d="m708.29 645.6s-0.83146-22.487 19.612-24.888c27.501-3.2298 32.34 18.442 32.34 18.442 2.8356 6.3823-51.642 15.643-51.952 6.4463z" fill="#f3f3f3" stroke="#000" stroke-width="1.9891"/>
   <path d="m709.32 551.87c29.716-7.276 38.31 27.484 48.253 70.833 0.10248 0.12522 0.17521 0.25597 0.21052 0.40195 0.0368 0.15168 0.0297 0.32098-8e-3 0.48866 0.0498 0.22079 0.0954 0.43385 0.14595 0.65469l-0.5478 0.12905c-2.3448 3.1274-14.051 8.0968-28.586 11.911-16.502 4.3309-30.472 5.5598-31.493 2.8087l-0.0117 3e-3c-8e-3 -0.0329-0.0158-0.064-0.0239-0.0971-3e-3 -9e-3 -3e-3 -9e-3 -4e-3 -0.0136-3e-3 -9e-3 -3e-3 -9e-3 -4e-3 -0.0136-10.085-44.014-18.489-79.624 12.067-87.105z" fill="#704946" fill-rule="evenodd" stroke="#000" stroke-linecap="round" stroke-linejoin="round" stroke-width="1.9586"/>
   <path d="m672.23 650.72s-2.4088-22.373-22.985-21.811c-27.679 0.75579-29.354 22.898-29.354 22.898-1.889 6.7236 53.354 8.0596 52.339-1.0866z" fill="#f3f3f3" stroke="#000" stroke-width="1.9891"/>
   <path d="m666.62 546.14c-33.295-6.5025-40.999 32.424-49.749 80.929-0.10702 0.14396-0.18068 0.2924-0.21216 0.45583-0.0329 0.16985-0.0166 0.35685 0.034 0.54051-0.0437 0.24702-0.083 0.48535-0.12746 0.73246l0.61351 0.11415c2.7604 3.3395 15.986 8.2292 32.284 11.693 18.505 3.9324 34.043 4.5633 35.029 1.4646l0.013 2e-3c7e-3 -0.0367 0.0142-0.0716 0.0213-0.1087 2e-3 -0.0104 9.4e-4 -0.0104 2e-3 -0.0153 2e-3 -0.0104 2e-3 -0.0104 2e-3 -0.0153 8.8723-49.248 16.322-89.106-17.913-95.792z" fill="#704946" fill-rule="evenodd" stroke="#000" stroke-linecap="round" stroke-linejoin="round" stroke-width="1.9586"/>
   <g transform="matrix(.67764 .7354 .7354 -.67764 -1599 2163.2)" fill-rule="evenodd" stroke="#000">
    <path transform="matrix(.072792 .065058 -.09185 .068459 475.72 2982.9)" d="m-1064 429.36c0 65.722-60.889 119-136 119s-136-53.278-136-119 60.889-119 136-119 136 53.278 136 119z" fill="#bb9a7a" stroke-linecap="round" stroke-linejoin="round" stroke-width="18.542"/>
    <path d="m345 2827.4c-20 0-20 65-20 100 15 5.0222 30 4.2994 45 0 0-35 0-100-20-100" fill="#cb1535" stroke-width="2"/>
   </g>
   <path d="m681.04 454.73c-0.22976 0.0117-0.45906 0.0443-0.68837 0.056-0.13036 7e-3 -0.26073 0.0132-0.39102 0.0199-0.20085 0.0102-0.40579 0.0203-0.60707 0.0308l3e-3 0.0529c-15.338 1.6686-29.094 12.127-38.02 24.901-19.141 27.206-25.198 62.065-24.208 95.17 0.96848 8.4548-0.0859 18.716 3.6775 25.899 12.722 7.3419 34.511 7.5726 49.412 8.6827 3.9389-0.0142 10.183-0.27964 16.961-0.58387l1e-3 0.021c0.71104-0.0361 1.3876-0.0705 2.0877-0.12703 0.0691-4e-3 0.13689-7e-3 0.20571-0.0105 6.7743-0.38403 13.013-0.75187 16.933-1.1372 14.712-2.6138 36.365-5.0503 48.279-13.643 3.0165-7.5271 0.92814-17.629 1.0352-26.138-2.3683-33.035-11.925-67.101-33.723-92.229-10.174-11.804-24.919-20.815-40.347-20.922l-4e-3 -0.0739c-0.20133 0.01-0.4061 0.0206-0.60707 0.0308z" fill="#cb1535" fill-rule="evenodd" stroke="#000" stroke-linecap="round" stroke-linejoin="round" stroke-width="1.9239"/>
   <path d="m673.32 356.33c-31.271 0.4665-63.653 19.178-72.559 49.021-8.2696 26.8 3.4946 58.022 28.494 72.379 25.875 15.802 60.034 16.932 87.928 5.7519 24.631-10.47 43.327-34.941 41.821-61.578-0.19601-27.155-20.536-51.529-46.816-60.185-12.305-4.4874-25.687-5.7756-38.868-5.3882z" fill="#4d3623" fill-rule="evenodd"/>
   <rect x="606.35" y="368.47" width="147.6" height="126.51" rx="70.635" ry="61.147" fill="#bb9a7a" fill-rule="evenodd" stroke="#000" stroke-linecap="round" stroke-linejoin="bevel" stroke-width="1.9411"/>
   <path d="m631.02 437.15s4.251 28.106-5.2675 37.625c-3.01 3.01-18.06-15.802-18.06-15.802l-6.7725-30.852 11.287-33.11 30.1-25.585h18.06z" fill="#4d3623" fill-rule="evenodd"/>
   <circle transform="matrix(1.7388 0 0 1.7388 599.06 373.47)" cx="45" cy="37.5" r="3" d="m 48,37.5 c 0,1.656854 -1.343146,3 -3,3 -1.656854,0 -3,-1.343146 -3,-3 0,-1.656854 1.343146,-3 3,-3 1.656854,0 3,1.343146 3,3 z" fill="#222"/>
   <circle transform="matrix(1.7388 0 0 1.7388 613.77 373.47)" cx="74" cy="37.5" r="3" d="m 77,37.5 c 0,1.656854 -1.343146,3 -3,3 -1.656854,0 -3,-1.343146 -3,-3 0,-1.656854 1.343146,-3 3,-3 1.656854,0 3,1.343146 3,3 z" fill="#222"/>
   <path transform="matrix(1.0926 0 0 1.1573 650.96 369.46)" d="m75 145c-0.77493 0.77493-7.7195-2.607-8.8019-2.4356-1.0824 0.17144-6.642 5.5338-7.6185 5.0363-0.97647-0.49754 0.09396-8.1473-0.40358-9.1238-0.49754-0.97647-7.3155-4.6069-7.144-5.6893 0.17144-1.0824 7.7776-2.4283 8.5525-3.2032 0.77493-0.77493 2.1208-8.381 3.2032-8.5525 1.0824-0.17144 4.7128 6.6465 5.6893 7.144 0.97647 0.49753 8.6262-0.5729 9.1237 0.40357 0.49754 0.97648-4.8649 6.5361-5.0363 7.6185-0.17144 1.0824 3.2105 8.027 2.4356 8.8019z" fill="url(#a)" stroke="#dac8be" stroke-width="1.0367"/>
   <path transform="matrix(.95394 0 0 .95229 902.61 466.21)" d="m-170-15.686c0 19.33-15.67 35-35 35s-35-15.67-35-35v-2e-6l35 2e-6z" fill="#c38080" stroke="#000" stroke-linecap="round" stroke-linejoin="round" stroke-width="2.0285"/>
   <path d="m674.24 367.27c-9.6226 0.4813-20.026 1.4813-28.384 6.2801-16.446 16.737-22.839 42.188-16.991 65.001 19.146-9.7144 38.199-20.024 58.562-26.781 9.5622-2.4148 19.775-2.5314 29.094-2.0312 14.537 2.9456 26.066 13.291 38.781 20.344-0.43949-24.61-17.409-46.478-39.625-55.906-12.944-5.9305-27.31-7.5342-41.438-6.9062z" fill="#4d3623" fill-rule="evenodd"/>
   <g transform="matrix(-.047627 .99887 -.99887 -.047627 943.4 -429.55)">
    <g transform="matrix(-.75428 -.65656 -.65656 .75428 3068.8 -1642.5)" fill-rule="evenodd" stroke="#000">
     <path transform="matrix(.072792 .065058 -.09185 .068459 475.72 2982.9)" d="m-1064 429.36c0 65.722-60.889 119-136 119s-136-53.278-136-119 60.889-119 136-119 136 53.278 136 119z" fill="#bb9a7a" stroke-linecap="round" stroke-linejoin="round" stroke-width="18.542"/>
     <path d="m335.83 2827.9c-15.3 15.6-10.83 64.5-10.83 99.5 15 5.0222 30 4.2994 45 0 0-35 5.28-112.42-19.314-109.43" fill="#cb1535" stroke-width="2"/>
    </g>
   </g>
  </g>
  <g transform="translate(-298)">
   <path d="m1288.1 638.23-0.5972-32.38" fill="none" opacity=".893" stroke="#fff" stroke-linecap="round" stroke-linejoin="round" stroke-width="1.9411"/>
   <path d="m1168.8 638.99-0.5971-32.38" fill="none" opacity=".893" stroke="#fff" stroke-linecap="round" stroke-linejoin="round" stroke-width="1.9411"/>
   <path transform="matrix(-.058114 .078447 .10381 .048447 1182.6 668.12)" d="m-1064 429.36c0 65.722-60.889 119-136 119s-136-53.278-136-119 60.889-119 136-119 136 53.278 136 119z" fill="#bb9a7a" fill-rule="evenodd" stroke="#000" stroke-linecap="round" stroke-linejoin="round" stroke-width="18.542"/>
   <path d="m1146.5 430.87c1.3046 54.493-18.104 118.44-12 120 19.378 4.9494 184.43 9.7014 182 0-10-40-10-110-20-130-18.439-36.878-130 0-130 0" fill="#4d3623" fill-rule="evenodd"/>
   <path d="m1317.9 582.73c-1.5253-26.672-20.451-93.508-42.295-90.243-21.844 3.2659-10.911 68.646-3.8523 93.693 2.6109 9.2654 36.724 4.5661 46.147-3.4505z" fill="#cb1535" stroke="#000" stroke-width="1.9411"/>
   <path transform="matrix(.058114 .078447 -.10381 .048447 1265.2 668.43)" d="m-1064 429.36c0 65.722-60.889 119-136 119s-136-53.278-136-119 60.889-119 136-119 136 53.278 136 119z" fill="#bb9a7a" fill-rule="evenodd" stroke="#000" stroke-linecap="round" stroke-linejoin="round" stroke-width="18.542"/>
   <path d="m1129.8 583.04c1.5252-26.672 20.451-93.508 42.295-90.243 21.844 3.2659 10.911 68.646 3.8523 93.693-2.6109 9.2654-36.724 4.5661-46.147-3.4505z" fill="#cb1535" stroke="#000" stroke-width="1.9411"/>
   <path d="m1192.5 562c-32.519-1.8071-34.726 36.235-36.667 83.526-0.083 0.151-0.1333 0.3019-0.1418 0.4615-0.01 0.1659 0.032 0.3416 0.1035 0.5097-0.01 0.2407-0.015 0.4726-0.025 0.7135l0.5984 0.028c3.0645 2.8137 16.285 5.7258 32.241 6.8773 18.115 1.3072 32.975-0.1359 33.506-3.2133h0.013c0-0.036 0-0.07 0.01-0.1062 1e-3 -0.01 4e-4 -0.01 1e-3 -0.015v-0.015c1.9597-48.014 3.8019-86.908-29.636-88.766z" fill="#704946" fill-rule="evenodd" stroke="#000" stroke-linecap="round" stroke-linejoin="round" stroke-width="1.9586"/>
   <path d="m1254.3 562.28c32.519-1.8072 34.726 36.235 36.667 83.525 0.083 0.151 0.1334 0.302 0.1418 0.4616 0.01 0.1659-0.032 0.3416-0.1034 0.5097 0.01 0.2407 0.015 0.4725 0.025 0.7134l-0.5985 0.028c-3.0645 2.8137-16.285 5.7258-32.241 6.8772-18.115 1.3073-32.975-0.1358-33.506-3.2132h-0.013c0-0.036 0-0.07-0.01-0.1062-1e-3 -0.01-4e-4 -0.01-1e-3 -0.015-1e-3 -0.01-1e-3 -0.01-1e-3 -0.015-1.9597-48.014-3.8019-86.908 29.636-88.766z" fill="#704946" fill-rule="evenodd" stroke="#000" stroke-linecap="round" stroke-linejoin="round" stroke-width="1.9586"/>
   <path d="m1224.5 468.25c-0.2437 0-0.488 0.021-0.7313 0.021h-0.4147c-0.213 0-0.4304-3e-4 -0.6439 0v0.053c-16.316 0.8887-31.43 10.636-41.559 22.941-21.711 26.2-29.991 60.708-30.722 93.82 0.5704 8.493-1.0962 18.688 2.4993 26.052 13.065 7.9776 36.102 9.3129 51.807 11.177 4.1678 0.1856 10.788 0.2371 17.975 0.277v0.021c0.7542 0 1.4717 0 2.2155-0.021 0.073-2e-4 0.1452 4e-4 0.2182 0 7.1872-0.04 13.807-0.091 17.975-0.277 15.705-1.8644 38.742-3.1997 51.807-11.177 3.5955-7.3644 1.9289-17.559 2.4993-26.052-0.7309-33.113-9.011-67.62-30.722-93.82-10.129-12.305-25.244-22.052-41.559-22.941v-0.074c-0.2135-2e-4 -0.4308 0-0.6439 0z" fill="#cb1535" fill-rule="evenodd" stroke="#000" stroke-linecap="round" stroke-linejoin="round" stroke-width="1.9801"/>
   <path d="m1229.2 657.48s0.4639-22.577 21.095-23.803c27.753-1.6501 31.355 20.341 31.355 20.341 2.4743 6.5576-52.669 12.695-52.45 3.4625z" fill="#f3f3f3" stroke="#000" stroke-width="2.0394"/>
   <rect x="1150" y="382.06" width="147.6" height="126.51" rx="70.635" ry="61.147" fill="#bb9a7a" fill-rule="evenodd" stroke="#000" stroke-linecap="round" stroke-linejoin="bevel" stroke-width="1.9411"/>
   <path d="m1147.5 452.66c-0.9571-4.806-1.3086-12.889-0.8082-18.588 1.401-15.959 8.6738-30.81 20.791-42.454 12.461-11.975 27.579-19.113 45.8-21.625 20.342-2.8043 42.33 2.2369 58.702 13.459 15.5 10.624 26.355 26.681 29.894 44.223 1.4165 7.0211 0.9967 24.961-0.6206 26.518-0.1226 0.1182-10.563-4.8071-23.2-10.945-30.53-14.828-35.625-16.409-52.789-16.376-11.767 0.024-18.066 1.006-27.046 4.2225-6.1762 2.2122-33.52 14.892-44.05 20.426l-6.2468 3.2834-0.427-2.1439z" fill="#4d3623" fill-rule="evenodd"/>
   <path d="m1216.3 657.06s-0.462-22.498-21.01-23.72c-27.641-1.6444-31.227 20.27-31.227 20.27-2.4642 6.5347 52.455 12.65 52.237 3.4507z" fill="#f3f3f3" stroke="#000" stroke-width="1.9891"/>
   <circle transform="matrix(1.7388 0 0 1.7388 1112.7 387.06)" cx="45" cy="37.5" r="3" d="m 48,37.5 c 0,1.656854 -1.343146,3 -3,3 -1.656854,0 -3,-1.343146 -3,-3 0,-1.656854 1.343146,-3 3,-3 1.656854,0 3,1.343146 3,3 z" fill="#222"/>
   <circle transform="matrix(1.7388 0 0 1.7388 1127.4 387.06)" cx="74" cy="37.5" r="3" d="m 77,37.5 c 0,1.656854 -1.343146,3 -3,3 -1.656854,0 -3,-1.343146 -3,-3 0,-1.656854 1.343146,-3 3,-3 1.656854,0 3,1.343146 3,3 z" fill="#222"/>
   <path transform="matrix(1.1573 0 0 1.1573 1178.5 383.06)" d="m75 145c-0.77493 0.77493-7.7195-2.607-8.8019-2.4356-1.0824 0.17144-6.642 5.5338-7.6185 5.0363-0.97647-0.49754 0.09396-8.1473-0.40358-9.1238-0.49754-0.97647-7.3155-4.6069-7.144-5.6893 0.17144-1.0824 7.7776-2.4283 8.5525-3.2032 0.77493-0.77493 2.1208-8.381 3.2032-8.5525 1.0824-0.17144 4.7128 6.6465 5.6893 7.144 0.97647 0.49753 8.6262-0.5729 9.1237 0.40357 0.49754 0.97648-4.8649 6.5361-5.0363 7.6185-0.17144 1.0824 3.2105 8.027 2.4356 8.8019z" fill="url(#a)" stroke="#dac8be" stroke-width="1.0367"/>
   <path transform="matrix(.99359 0 0 .95229 1427 479.81)" d="m-170-15.686c0 19.33-15.67 35-35 35s-35-15.67-35-35v-2e-6l35 2e-6z" fill="#c38080" stroke="#000" stroke-linecap="round" stroke-linejoin="round" stroke-width="2.0285"/>
  </g>
  <g transform="translate(198)">
   <path d="m952.02 652.92s-1.3809-21.9-32.777-22.076c-42.234-0.2368-47.049 21.294-47.049 21.294-3.5645 6.4893 80.436 9.7355 79.826 0.7818z" fill="#fff" stroke="#000" stroke-width="2.1573"/>
   <path d="m943.52 552.81c37.101 7.8683 29.95 45.255 20.157 91.494 0.0552 0.1702 0.0738 0.331 0.0429 0.4876-0.0322 0.1628-0.12214 0.3205-0.24572 0.4616-0.0513 0.2349-0.10273 0.4607-0.15269 0.6964l-0.68149-0.1499c-4.1659 1.8111-19.801 0.7148-38.072-2.8901-20.744-4.0928-37.123-9.8792-36.941-13.008h-0.015c0.01-0.035 0.013-0.069 0.021-0.104 0 0 1e-4 -0.012 0-0.015 0 0 1e-4 -0.011 0-0.015 9.9551-46.943 17.732-85.045 55.881-76.954z" fill="#704946" fill-rule="evenodd" stroke="#000" stroke-linecap="round" stroke-linejoin="round" stroke-width="1.9411"/>
   <path d="m991.77 651.4s-3.6875-21.631-34.926-18.488c-42.023 4.2278-44.536 26.147-44.536 26.147-2.8587 6.8297 81.014 1.1809 79.462-7.6584z" fill="#fff" stroke="#000" stroke-width="2.1573"/>
   <path d="m942.73 552.06c37.757-3.5847 42.111 34.23 46.591 81.282 0.10356 0.1458 0.16942 0.2937 0.18676 0.4524 0.018 0.165-0.0207 0.3424-0.0964 0.514 0.0213 0.2396 0.0397 0.4703 0.0625 0.7101l-0.69508 0.061c-3.4338 2.9737-18.681 6.6024-37.194 8.6252-21.019 2.2966-38.378 1.6721-39.141-1.3676l-0.016 0.01c0-0.036-0.01-0.07-0.012-0.1054 0-8e-4 -1e-3 -0.012-1e-3 -0.015 0 0-1e-3 -0.012-1e-3 -0.015-4.5361-47.772-8.5068-86.457 30.316-90.142z" fill="#704946" fill-rule="evenodd" stroke="#000" stroke-linecap="round" stroke-linejoin="round" stroke-width="1.9411"/>
   <path d="m935.9 466.62c-0.22895 0-0.45821 0.028-0.68673 0.031-0.12991 0-0.25982 0-0.38967 0.01-0.20016 0-0.40438 0.01-0.60497 0.01l8e-4 0.053c-15.316 1.1197-29.371 11.08-38.702 23.527-20.004 26.505-27.264 61.125-27.452 94.244 0.664 8.4839-0.7483 18.701 2.7409 26.014 12.396 7.7917 34.061 8.8007 48.845 10.442 3.9188 0.1265 10.139 0.084 16.893 0.022l3.2e-4 0.021c0.70858-0.011 1.3828-0.021 2.0813-0.052 0.0689-1e-3 0.13641 0 0.20499 0 6.7524-0.1418 12.971-0.2866 16.885-0.5316 14.728-2.0865 36.353-3.748 48.509-11.91 3.2672-7.4144 1.5477-17.585 1.9556-26.085-1.1858-33.098-9.4856-67.484-30.28-93.374-9.7025-12.16-24.051-21.692-39.394-22.35l-1e-3 -0.074c-0.20062 0-0.4047 0.01-0.60497 0.01z" fill="#cb1535" fill-rule="evenodd" stroke="#000" stroke-linecap="round" stroke-linejoin="round" stroke-width="1.9195"/>
   <path transform="matrix(1 0 0 .83607 622.83 474.63)" d="m308.5-67.945c0 16.845-15.894 30.5-35.5 30.5s-35.5-13.655-35.5-30.5 15.894-30.5 35.5-30.5 35.5 13.655 35.5 30.5z" fill="#4d3623" fill-rule="evenodd"/>
   <rect transform="matrix(-.98901 .14785 .14785 .98901 0 0)" x="-933.93" y="510.97" width="149.82" height="128.42" rx="71.7" ry="62.069" fill="#bb9a7a" fill-rule="evenodd" stroke="#000" stroke-linecap="round" stroke-linejoin="bevel" stroke-width="1.9411"/>
   <g transform="matrix(-.99773 .051335 -.051335 -.99773 876.72 441.29)" stroke-width="1.9429">
    <path d="m0 0c0-2.958-2.396-5.355-5.355-5.355-2.958 0-5.356 2.397-5.356 5.355 0 2.957 2.398 5.356 5.356 5.356 2.959 0 5.355-2.399 5.355-5.356"/>
   </g>
   <path d="m863.26 463.74c1.7811 8.5565 6.4072 15.972 12.886 21.708 8.6445-3.4706 14.739-11.88 14.739-21.708h-27.625z" fill="#c38080" stroke="#000" stroke-linecap="round" stroke-linejoin="round" stroke-width="1.9334"/>
   <path transform="matrix(-.98379 0 0 1.1573 968.08 388.4)" d="m75 145c-0.77493 0.77493-7.7195-2.607-8.8019-2.4356-1.0824 0.17144-6.642 5.5338-7.6185 5.0363-0.97647-0.49754 0.09396-8.1473-0.40358-9.1238-0.49754-0.97647-7.3155-4.6069-7.144-5.6893 0.17144-1.0824 7.7776-2.4283 8.5525-3.2032 0.77493-0.77493 2.1208-8.381 3.2032-8.5525 1.0824-0.17144 4.7128 6.6465 5.6893 7.144 0.97647 0.49753 8.6262-0.5729 9.1237 0.40357 0.49754 0.97648-4.8649 6.5361-5.0363 7.6185-0.17144 1.0824 3.2105 8.027 2.4356 8.8019z" fill="url(#a)" stroke="#dac8be" stroke-width="1.0367"/>
   <g transform="matrix(.99326 -.11588 .11588 .99326 256.79 -300.12)" fill-rule="evenodd" stroke="#000">
    <path transform="matrix(-.074923 .062202 .089065 .071579 469.86 1029.5)" d="m-1064 429.36c0 65.722-60.889 119-136 119s-136-53.278-136-119 60.889-119 136-119 136 53.278 136 119z" fill="#ab926c" stroke-linecap="round" stroke-linejoin="round" stroke-width="17.114"/>
    <path d="m573.37 977.39c6.4061-46.75-0.25798-109.55 30.952-107.87 22.437-2.4402 29.214 25.15 23.481 107.87-0.37651 5.4329-49.097-1.068-49.097-1.068" fill="#cb1535" stroke-width="2"/>
   </g>
   <path d="m917.3 370.47c3.7673-0.58215 23.612 1.0314 25.763 1.9514 33.188 3.607 49.225 15.677 61.178 37.847 8.6683 14.681 13.995 91.469 17.875 137.44-10.082 2.7614-20.146 5.5881-30.273 8.1904-10.602 3.782-49.204 12.379-56.874 14.464-15.427 4.3764-2.2519-63.198-2.0556-68.143-1.411-8.2346 6.7451-22.154-1.143-49.38-5.0536-17.314-48.603-34.75-72.126-39.991-0.6517-12.872 23.226-43.661 57.656-42.381z" fill="#4d3623" fill-rule="evenodd"/>
  </g>
 </g>
</svg>
