<?xml version="1.0" encoding="UTF-8"?>
<svg enable-background="new 0 0 143 155" version="1.1" viewBox="0 0 143 155" xmlns="http://www.w3.org/2000/svg">
 <style type="text/css">.st0{fill:#D1D3D4;stroke:#000000;stroke-miterlimit:10;} .st1{fill:#939598;} .st2{fill:#D1D3D4;} .st3{fill:none;stroke:#231F20;stroke-miterlimit:10;} .st4{fill:#F1F2F2;} .st5{fill:#FFFFFF;} .st6{fill:#F1F2F2;stroke:#F1F2F2;stroke-miterlimit:10;} .st7{fill:#6D6E71;stroke:#000000;stroke-width:0.5;stroke-miterlimit:10;} .st8{fill:#6D6E71;stroke:#000000;stroke-width:0.75;stroke-miterlimit:10;} .st9{fill:none;stroke:#231F20;stroke-width:2;stroke-miterlimit:10;} .st10{fill:#E6E7E8;} .st11{fill:none;} .st12{fill:none;stroke:#000000;stroke-width:0.75;stroke-miterlimit:10;} .st13{stroke:#000000;stroke-width:0.5;stroke-miterlimit:10;} .st14{fill:#ED1C24;stroke:#9C0A0E;stroke-miterlimit:10;} .st15{opacity:0.5;fill:#9E1F63;} .st16{fill:#F9ED32;stroke:#C8C02B;stroke-miterlimit:10;} .st17{fill:#DCC231;} .st18{fill:#8DC63F;stroke:#39B54A;stroke-miterlimit:10;} .st19{fill:#39B54A;} .st20{fill:#27AAE1;stroke:#1C75BC;stroke-miterlimit:10;} .st21{opacity:0.7;fill:#1C75BC;} .st22{fill:#7A5EA8;stroke:#662D91;stroke-miterlimit:10;} .st23{opacity:0.8;fill:#7F3F98;} .st24{fill:#E6E7E8;stroke:#000000;stroke-miterlimit:10;} .st25{stroke:#000000;stroke-width:0.25;stroke-miterlimit:10;} .st26{fill:#F9ED32;stroke:#000000;stroke-width:0.5;stroke-miterlimit:10;} .st27{fill:#F1F2F2;stroke:#000000;stroke-width:0.5;stroke-miterlimit:10;} .st28{fill:#FFFFFF;stroke:#000000;stroke-width:0.5;stroke-miterlimit:10;} .st29{fill:none;stroke:#000000;stroke-width:0.25;stroke-miterlimit:10;} .st30{fill:none;stroke:#000000;stroke-miterlimit:10;} .st31{fill:#FFFFFF;stroke:#000000;stroke-miterlimit:10;} .st32{stroke:#000000;stroke-miterlimit:10;}</style>
 <path class="st0" d="m115.4 91.8c2.7 7.1 9.9 11.5 14 18.1 1 2.2 0 4.4-1 7.1"/>
 <path class="st0" d="m128.6 116.5l-30.2-37.3c-10.1 0-15.3 9.9-13.2 17.6 2.1 9.9 11.3 8.8 19.6 11 1.2 0.6 2.1 1.7 3 2.6 6-0.2 13.1 4.4 17 8.9 0.9 1.1 1.3 2.2 1.4 3.3 0.7 0.6 1.5 1.1 2.3 1.6l1-1.1c-0.1-2.3 1-4.5-0.9-6.6z"/>
 <path class="st1" d="m103.1 95.5c0.4 0.8 0.7 1.7 0.8 2.6 0.1 0.6-0.2 1.2-0.1 1.7 0.2 1.4 2.1 1 2.4-0.2 0.2-1.1-0.1-2.7-0.6-3.8-0.3-0.6-0.7-1.3-1.2-1.5-0.6-0.2-1 0.3-1 0.9 0 0.5 0.4 1.6 0.6 2.1"/>
 <path class="st2" d="m116.9 104.9c1.7 1.9 3.4 3.5 5.2 5.3 0.7 0.7 1.3 1.4 1.9 2.2 0.4 0.6 0.6 1.3 1 1.8s1.1 1.1 1.7 1.4c0.5 0.2 1.1 0.2 1.1-0.6s-0.9-1.8-1.3-2.5c-0.7-1.3-1-2.8-1.6-4.1-0.6-1.5-1.5-2.9-2.3-4.2-0.4-0.7-1-1.4-1.3-2.2-0.4-0.9-0.7-1.6-1.3-2.4-1-1.4-2.2-2.5-3.1-4-0.6-1.1-1.4-2.4-1.7-3.6-0.4-1.2-0.1-2.6-0.4-3.8-0.4-1.7-0.9-3.6-2.1-4.9-0.5-0.5-1-0.9-1.5-1.3-0.8-0.6-1.3-1.2-2.3-1.6-1.6-0.7-3.2-2.1-5-2.3-0.6-0.1-1.3 0.1-1.9 0.1-1.1 0-1.6 0.1-2.6 0.6-0.7 0.3-1.9 0.8-2.2 1.7-0.2 0.6 0.2 1.5 0.5 2 0.8 1.5 1.5 3 2.5 4.4 1.2 1.7 2.7 3.1 4.1 4.7 2.1 2.3 4.2 4.6 6.1 7.1 0.8 1 1.6 2 2.1 3.1 0.3 0.6 0.5 0.9 0.9 1.4 0.6 0.6 1.1 1.5 1.7 2.1 0.5 0.6 1.1 1.1 1.7 1.6 1 0.8 2.2 1.3 3.4 1.9"/>
 <path class="st1" d="m101.8 92.3c-1.3 1-2.3 1.8-2.9 3.4-0.3 0.9-0.9 3.5-0.1 4.2 0.5 0.4 1.5 0.1 1.9-0.2 0.5-0.4 0.7-1.2 0.7-1.9-0.1-1.6-0.5-2.8 0.4-4.3 0.2-0.3 0.4-0.6 0.7-0.9-0.1-0.3-0.2-0.6-0.4-0.8-0.6 0.3-1.1 0.7-1.4 1.3"/>
 <path class="st1" d="m98.7 88.4c-0.8 0.1-1.4-0.1-2.1 0.6-0.5 0.5-0.8 1.4-1.2 2-0.5 0.8-1 1.7-1.2 2.6-0.1 0.6-0.4 1.4-0.3 1.9 0.2 0.8 0.8 0.9 1.5 1 0.9 0.2 1 0.1 1.4-0.8 0.5-1 0.7-2.1 1.3-3 0.4-0.7 1.6-2.9 2.7-2.4-0.6-0.4-1.1-1-1.7-1.4-0.3-0.2-0.6-0.4-1-0.5-0.2 0-0.7-0.2-0.6-0.1"/>
 <path class="st1" d="m98 89c-0.2-0.2-2.4-1.3-2.4-1.8 0-0.9 1.3-0.8 1.7-0.7 2.1 0.3 3.6 1.9 5.2 3.3s3.3 2.5 5.4 3c1.4 0.3 4.4 0.3 4.8-1.6 0.6-2.7-2.2-5-3.8-6.7-0.6-0.6-1-1.4-1.7-2-0.6-0.5-1.2-0.8-1.8-1.3-0.9-0.8-1.8-1.5-2.9-2 1.1-0.3 2.4 0.2 3.4 0.5 1.7 0.6 3 1.6 4.4 2.7 1.3 1.1 2.8 2.1 3.8 3.6 1 1.4 1.2 3.1 1.1 4.8 0 1.2-0.8 3.4-1.8 4.1-1.3 0.9-3.3 0.6-4.7 0.3-1-0.2-1.7-0.7-2.6-1.1-0.8-0.3-1.7-0.5-2.5-0.8s-1.6-0.7-2.4-1.2-1.4-1.2-2.2-1.7c-0.7-0.4-1.2-0.9-1.8-1.3-0.4-0.3-1.9-0.7-1.9-1.3"/>
 <path class="st3" d="m113.6 95.4c-3.6 0-7.9-0.6-11.2-2-2.8-1.2-4.5-4-7.1-5.4"/>
 <path class="st3" d="m95.1 95.1c0.6-1.3 1.1-3.1 2.6-3.7"/>
 <path class="st1" d="m122.4 103.5c-0.4 0.9-0.7 1.8-1.1 2.7-0.3 0.7-0.7 1.4-0.8 2.1 0 0.7 0.2 1.7 0.4 2.4 0.2 0.9 0.5 2.4 1.3 2.9 0.5 0.3 1.4 0.4 2 0.6s1.2 0.4 1.9 0.6 0.9 0.2 1.4-0.4c0.4-0.6 0.8-1.4 1-2.1 0.1-0.3 0.3-0.8 0.2-1-0.4 0.8-1.1 1-1.8 1.5-1.2-0.8-3.7-2.1-3.9-3.7-0.2-1.3-0.1-4.2 0.7-5.3-0.2-0.3-0.8-0.9-1.1-1.1-0.1 0.6-0.8 1.6-0.5 2.2"/>
 <path class="st3" d="m99.6 98.7c0.2-1.4 0-3.5 1.2-4.4"/>
 <path class="st3" d="m105.6 100c-0.2-1.6-0.1-2.6-1-3.7"/>
 <path class="st1" d="m85.6 88.7c0.2-1.4 1.4-2.6 2.2-3.6 1.7-2.1 3.8-3.7 6.2-4.9 1.2-0.6 2.5-1.3 3.8-1.5-2.7 2-5.2 4.3-6.4 7.7s-0.8 7.3 1.5 10.1c1.3 1.5 3 2.6 4.6 3.7-1.1 3.2 2.8 5 5 5.7-1.3 0.7-3.2 0-4.6-0.1-3.5-0.3-7.9-1.7-10.2-4.7-1.6-2-2.8-4.6-2.9-7.2-0.1-1.9 0.1-5.1 1.7-6.4"/>
 <path class="st4" d="m89.9 86.9c0.5-1.9 1.2-3.8 2.8-5 0.8-0.7 2.2-1.5 3.3-1.3-1.3 1-2.2 3.3-2.8 4.8-0.8 1.9-2 4-1.3 6.2 1.1 3.2 3.1 6.5 6.2 7.7-0.4 3.1 2.1 5.3 4.4 6.5-1.2 0.6-3.4-0.5-4.4-1.2-1.6-1-1.9-2.7-2.9-4.1-0.7-0.9-1.6-1.5-2.4-2.3-0.9-0.8-1.5-1.8-1.9-2.9-0.7-1.8-1.3-3.6-1.2-5.6 0-1.1-0.1-4.2 1.1-4.6"/>
 <path class="st3" d="m113.4 95.5c2.9-1.5 2.4-6.8 0.7-9.8-1.3-2.3-3.6-4.2-5.7-5.8-5.5-4.2-10.7-1.3-14.7 2.9 1.1-2.2 7.2-5.9 9.6-3.7"/>
 <path class="st1" d="m106.6 100.3c-0.7 1.1-1.9 2.5-1 3.7 0.4 0.6 1.5 1.8 2.2 2 0.5 0.1 1.2 0 1.6 0 0.8-0.1 1.7-0.2 2.5-0.2 1.1 0 1.9 0.2 2.8 0.9 0.5 0.4 1.1 0.8 1.7 1.1 0.8 0.5 1 0.7 1.8 0.1 0.6-0.4 1.4-0.6 2.1-1 0.5-0.3 1.2-0.4 1.6-0.8-0.3-0.3-1-0.1-1.4-0.1-0.5 0-1-0.1-1.6-0.2-0.5 0-1 0-1.4-0.1-0.7-0.2-1.2-0.7-1.9-1-1.2-0.4-2.3-0.5-3.5-0.5h-2.1c-0.3 0-0.4 0-0.7-0.1-0.4-0.3-0.6-0.7-1-1-0.7-0.4-0.8-0.4-0.5-1.1 0.2-0.5 0.5-1 0.7-1.5 0.3-0.8 0.5-1.9 1.2-2.6 0.4-0.4 0.7-0.3 1.2-0.2 0.9 0.1 1.7 0.2 2.6 0.5 1.2 0.4 2 1.6 3.1 2.2-0.3-0.6-0.8-1.2-1.2-1.9-0.3-0.5-0.6-1.2-1.1-1.5-0.7-0.5-1.9-0.5-2.7-0.5-0.6 0-1.1-0.2-1.6-0.2-0.5-0.1-1.1 0-1.4 0.4-1.1 1.3-1.6 2.8-2.3 4.2-0.1 0.2-0.3 0.4-0.3 0.6"/>
 <path class="st5" d="m123.5 104.4c-0.8 1-0.8 2.7-0.7 4 0.1 1.4 0.9 2.4 2.1 2.9 0.6 0.2 1.1 0.5 1.6 0 0.7-0.6 0.1-0.8-0.4-1.3-0.3-0.3-2.2-3.1-1.7-3.6v-0.1c0.6 0.4 1.2 1.5 1.9 1.6 0-1.1-1-2.5-1.7-3.2-0.3-0.3-0.8-0.9-1.1-0.7-0.2 0.2-0.3 1.3-0.3 1.6"/>
 <path class="st6" d="m126.6 117.5c0.6 1.1 0.7 2 1 3.1 0.1 0.3 0.2 1.6 0.5 1.8 0.7 0.6 0.7-2.3 0.6-2.8-0.2-1.4-0.7-2.3-1.9-3-0.8-0.5-0.9-0.1-0.5 0.6 0.3 0.6 0.6 1.1 0.8 1.7 0 0.1 0 0.1 0.1 0.2"/>
 <path class="st1" d="m124.5 118.1c0.5 0.7 1.1 1.2 1.4 2 0.2 0.5 0.2 0.9 0.3 1.4 0.2 0.6 1.2 1.9 1.9 1.5s0.4-2.2 0.3-2.9c-1.2 1.9-2.1-0.8-2.8-1.8-1.5-2.2-3.8-3.5-5.6-5.4-0.9-0.9-1.9-1.6-3-2.3-2-1.3-4.2-2-6.2-3.2-0.9-0.5-2.6-1.5-3.5-0.7-0.8 0.7-0.1 2.1 0.1 2.9 0.6 0 1.2-0.1 1.8 0 0.8 0.2 1.7 0.5 2.5 0.8 2 0.8 4.1 1.4 6 2.5 1.4 0.8 2.5 2.1 3.8 3 1.3 0.8 2.7 1.5 3.6 2.9 0.2 0.3 0.3 0.7 0.5 1"/>
 <path class="st1" d="m109.4 97.5c-0.5 0.7-1.3 1.2-1.8 1.9-0.5 0.8-1 2.8 0.5 2.5 0.9-0.2 1.7-1.2 2.5-1.8 1.1-0.7 3.6-3.1 0.7-3.4-0.7-0.1-1.2 0.5-1.7 0.9-0.4 0.3-1.4 0.7-1.6 1.2"/>
 <path class="st7" d="m124 116.7c3-0.8 5.3-3 5.7-6.2 1.1 0.3 2.6 1.4 3.7 2 1 0.5 2.9 0.8 3.7 1.6 1.7 1.9-1.2 6-2.6 7.4-1.4 1.3-5.2 4-6.9 3-0.8-0.5-4.3-6.2-4-7.1s2.3-0.9 2.8-2.1"/>
 <path class="st2" d="m131.2 113.4c-1.7 2.8-3.5 3.7-6.5 3.9 0.1 1.4 0.8 2.3 1.6 3.5 1 1.5 1.5 2.4 3.2 1.6 2.5-1.2 4.5-3 5.5-5.8-0.9 2-3 3.8-5 4.6-1.8 0.8-2.6-1-3.6-2.5 1.4 0.3 3.3-1.7 4.3-2.6s1.3-1.8 1.5-3.1c-0.3-0.1-0.5-0.2-0.8-0.4-0.1 1.2-1 2.5-1.9 3.1"/>
 <path class="st2" d="m128.6 118.3c1.1-1.1 1.4-2.5 2.3-3.6 0.6-0.7 1.9-0.7 1.9 0.7 0 0.7-0.3 0.5-0.8 0.8 0 0-0.4-0.2-0.5-0.1-0.2 0.2-0.2 0.6-0.4 0.8-0.9 0.7-1.5 0.9-2.5 0.9 0.3-0.7 2.5-5.2 3.2-3.4"/>
 <path class="st0" d="m34.1 92.1c-2.7 7.1-9.9 11.5-14 18.1-1 2.2 0 4.4 1 7.1"/>
 <path class="st0" d="m21 116.9l30.2-37.3c10.1 0 15.3 9.9 13.2 17.6-2.1 9.9-11.3 8.8-19.6 11-1.2 0.6-2.1 1.7-3 2.6-6-0.2-13.1 4.4-17 8.9-0.9 1-1.3 2.2-1.4 3.3-0.7 0.6-1.5 1.1-2.3 1.6l-1-1.1c0-2.3-1-4.5 0.9-6.6z"/>
 <path class="st1" d="m46.4 95.9c-0.4 0.8-0.7 1.7-0.8 2.6-0.1 0.6 0.2 1.2 0.1 1.7-0.2 1.4-2.1 1-2.4-0.2-0.2-1.1 0.1-2.7 0.6-3.8 0.3-0.6 0.7-1.3 1.2-1.5 0.6-0.2 1 0.3 1 0.9 0 0.5-0.4 1.6-0.6 2.1"/>
 <path class="st2" d="m32.7 105.3c-1.7 1.9-3.4 3.5-5.2 5.3-0.7 0.7-1.3 1.4-1.9 2.2-0.4 0.6-0.6 1.3-1 1.8s-1.1 1.1-1.7 1.4c-0.5 0.2-1.1 0.2-1.1-0.6s0.9-1.8 1.3-2.5c0.7-1.3 1-2.8 1.6-4.1 0.6-1.5 1.5-2.9 2.3-4.2 0.4-0.7 1-1.4 1.3-2.2 0.4-0.9 0.7-1.6 1.3-2.4 1-1.4 2.2-2.5 3.1-4 0.6-1.1 1.4-2.4 1.7-3.6 0.4-1.2 0.1-2.6 0.4-3.8 0.4-1.7 0.9-3.6 2.1-4.9 0.5-0.5 1-0.9 1.5-1.3 0.8-0.6 1.3-1.2 2.3-1.6 1.6-0.7 3.2-2.1 5-2.3 0.6 0 1.3 0.1 1.9 0.1 1.1 0 1.6 0.1 2.6 0.6 0.7 0.3 1.9 0.8 2.2 1.7 0.2 0.6-0.2 1.5-0.5 2-0.8 1.5-1.5 3-2.5 4.4-1.2 1.7-2.7 3.1-4.1 4.7-2.1 2.3-4.2 4.6-6.1 7.1-0.8 1-1.6 2-2.1 3.1-0.3 0.6-0.5 0.9-0.9 1.4-0.6 0.6-1.1 1.5-1.7 2.1-0.5 0.6-1.1 1.1-1.7 1.6-1 0.8-2.2 1.3-3.4 1.9"/>
 <path class="st1" d="m47.7 92.7c1.3 1 2.3 1.8 2.9 3.4 0.3 0.9 0.9 3.5 0.1 4.2-0.5 0.4-1.5 0.1-1.9-0.2-0.5-0.4-0.7-1.2-0.7-1.9 0.1-1.6 0.5-2.8-0.4-4.3-0.2-0.3-0.4-0.6-0.7-0.9 0.1-0.3 0.2-0.6 0.4-0.8 0.6 0.3 1.1 0.7 1.4 1.3"/>
 <path class="st1" d="m50.9 88.8c0.8 0.1 1.4-0.1 2.1 0.6 0.5 0.5 0.8 1.4 1.2 2 0.5 0.8 1 1.7 1.2 2.6 0.1 0.6 0.4 1.4 0.3 1.9-0.2 0.8-0.8 0.9-1.5 1-0.9 0.2-1 0.1-1.4-0.8-0.5-1-0.7-2.1-1.3-3-0.4-0.7-1.6-2.9-2.7-2.4 0.6-0.4 1.1-1 1.7-1.4 0.3-0.2 0.6-0.4 1-0.5 0.2-0.1 0.7-0.2 0.6-0.1"/>
 <path class="st1" d="m51.6 89.3c0.2-0.2 2.4-1.2 2.4-1.8 0-0.9-1.3-0.8-1.7-0.7-2.1 0.3-3.6 1.9-5.2 3.3s-3.3 2.5-5.4 3c-1.4 0.3-4.4 0.3-4.8-1.6-0.6-2.7 2.2-5 3.8-6.7 0.6-0.6 1-1.4 1.7-2 0.6-0.5 1.2-0.8 1.8-1.4 0.9-0.8 1.8-1.5 2.9-2-1.1-0.3-2.4 0.2-3.4 0.5-1.7 0.6-3 1.6-4.4 2.7-1.3 1.1-2.8 2.1-3.8 3.6-1 1.4-1.2 3.1-1.1 4.8 0 1.2 0.8 3.4 1.8 4.1 1.3 0.9 3.3 0.6 4.7 0.3 1-0.2 1.7-0.7 2.6-1.1 0.8-0.3 1.7-0.5 2.5-0.8s1.6-0.7 2.4-1.2 1.4-1.2 2.2-1.7c0.7-0.4 1.2-0.9 1.8-1.3 0.2-0.3 1.6-0.7 1.6-1.3"/>
 <path class="st3" d="m35.9 95.8c3.6 0 7.9-0.6 11.2-2 2.8-1.2 4.5-4 7.1-5.4"/>
 <path class="st3" d="m54.4 95.5c-0.6-1.3-1.1-3.1-2.6-3.7"/>
 <path class="st1" d="m27.1 103.9c0.4 0.9 0.7 1.8 1.1 2.7 0.3 0.7 0.7 1.4 0.7 2.1s-0.2 1.7-0.4 2.4c-0.2 0.9-0.5 2.4-1.3 2.9-0.5 0.3-1.4 0.4-2 0.6s-1.2 0.4-1.9 0.6-0.9 0.2-1.4-0.4c-0.4-0.6-0.8-1.4-1-2.1-0.1-0.3-0.3-0.8-0.2-1 0.4 0.8 1.1 1 1.8 1.5 1.2-0.8 3.7-2.1 3.9-3.7 0.2-1.3 0.1-4.2-0.7-5.3 0.2-0.3 0.8-0.9 1.1-1.1 0.1 0.6 0.8 1.6 0.5 2.2"/>
 <path class="st3" d="m50 99.1c-0.2-1.4 0-3.5-1.2-4.4"/>
 <path class="st3" d="m44 100.4c0.2-1.6 0.1-2.6 1-3.7"/>
 <path class="st1" d="m63.9 89.1c-0.2-1.4-1.4-2.6-2.2-3.6-1.7-2.1-3.8-3.7-6.2-4.9-1.2-0.6-2.5-1.3-3.8-1.5 2.7 2 5.2 4.3 6.4 7.7s0.8 7.3-1.5 10.1c-1.3 1.5-3 2.6-4.6 3.7 1.1 3.2-2.8 5-5 5.7 1.3 0.7 3.2 0 4.6-0.1 3.5-0.3 7.9-1.7 10.2-4.7 1.6-2 2.8-4.6 2.9-7.3 0.1-1.9-0.1-5.1-1.7-6.4"/>
 <path class="st4" d="m59.7 87.3c-0.5-1.9-1.2-3.8-2.8-5-0.8-0.7-2.2-1.5-3.3-1.3 1.3 1 2.2 3.3 2.8 4.8 0.8 1.9 2 4 1.3 6.2-1.1 3.2-3.1 6.5-6.2 7.7 0.4 3.1-2.1 5.3-4.4 6.5 1.2 0.6 3.4-0.5 4.4-1.2 1.6-1 1.9-2.7 2.9-4.1 0.7-0.9 1.6-1.5 2.4-2.3 0.9-0.8 1.5-1.8 1.9-2.9 0.7-1.8 1.3-3.6 1.2-5.6 0-1.1 0.1-4.2-1.1-4.6"/>
 <path class="st3" d="m36.1 95.9c-2.9-1.5-2.4-6.8-0.7-9.8 1.3-2.3 3.6-4.2 5.7-5.8 5.5-4.2 10.7-1.3 14.7 2.9-1.1-2.2-7.2-5.9-9.6-3.7"/>
 <path class="st1" d="m42.9 100.7c0.7 1.1 1.9 2.5 1 3.7-0.4 0.6-1.5 1.8-2.2 2-0.5 0.1-1.2 0-1.6 0-0.8-0.1-1.7-0.2-2.5-0.2-1.1 0-1.9 0.2-2.8 0.9-0.5 0.4-1.1 0.8-1.7 1.1-0.8 0.5-1 0.7-1.8 0.1-0.6-0.4-1.4-0.6-2.1-1-0.5-0.3-1.2-0.4-1.6-0.8 0.3-0.3 1-0.1 1.4-0.1 0.5 0 1-0.1 1.6-0.2 0.5 0 1 0 1.4-0.1 0.7-0.2 1.2-0.7 1.9-1 1.2-0.4 2.3-0.5 3.5-0.5h2.1c0.3 0 0.4 0 0.7-0.1 0.4-0.3 0.6-0.7 1-1 0.7-0.4 0.8-0.4 0.5-1.1-0.2-0.5-0.5-1-0.7-1.5-0.3-0.8-0.5-1.9-1.2-2.6-0.4-0.4-0.7-0.3-1.2-0.2-0.9 0.1-1.7 0.2-2.6 0.5-1.2 0.4-2 1.6-3.1 2.2 0.3-0.6 0.8-1.2 1.2-1.9 0.3-0.5 0.6-1.2 1.1-1.5 0.6-0.4 1.8-0.4 2.7-0.4 0.6 0 1.1-0.2 1.6-0.2 0.5-0.1 1.1 0 1.4 0.4 1.1 1.3 1.6 2.8 2.3 4.2 0.1 0.2 0.3 0.4 0.3 0.6"/>
 <path class="st5" d="m26 104.8c0.8 1 0.8 2.7 0.7 4-0.1 1.4-0.9 2.4-2.1 2.9-0.6 0.2-1.1 0.5-1.6 0-0.7-0.6-0.1-0.8 0.4-1.3 0.3-0.3 2.2-3.1 1.7-3.6v-0.1c-0.6 0.4-1.2 1.5-1.9 1.6 0-1.1 1-2.5 1.7-3.2 0.3-0.3 0.8-0.9 1.1-0.7 0.2 0.2 0.3 1.3 0.3 1.6"/>
 <path class="st6" d="m22.9 117.8c-0.6 1.1-0.7 2-1 3.1-0.1 0.3-0.2 1.6-0.5 1.8-0.7 0.6-0.7-2.3-0.6-2.8 0.2-1.4 0.7-2.3 1.9-3 0.8-0.5 0.9-0.1 0.5 0.6-0.3 0.6-0.6 1.1-0.8 1.7 0 0.1 0 0.1-0.1 0.2"/>
 <path class="st1" d="m25.1 118.5c-0.5 0.7-1.1 1.2-1.4 2-0.2 0.5-0.2 0.9-0.3 1.4-0.2 0.6-1.2 1.9-1.9 1.5s-0.4-2.2-0.3-2.9c1.2 1.9 2.1-0.8 2.8-1.8 1.5-2.2 3.8-3.5 5.6-5.4 0.9-0.9 1.9-1.6 3-2.3 2-1.3 4.2-2 6.2-3.2 0.9-0.5 2.6-1.5 3.5-0.7 0.8 0.7 0.1 2.1-0.1 2.9-0.6 0-1.2-0.1-1.8 0-0.8 0.2-1.7 0.5-2.5 0.8-2 0.8-4.1 1.4-6 2.5-1.4 0.8-2.5 2.1-3.8 3-1.3 0.8-2.7 1.5-3.6 2.9-0.2 0.3-0.3 0.7-0.5 1"/>
 <path class="st1" d="m40.1 97.9c0.5 0.7 1.3 1.2 1.8 1.9 0.5 0.8 1 2.8-0.5 2.5-0.9-0.2-1.7-1.2-2.5-1.8-1.1-0.7-3.6-3.1-0.7-3.4 0.7-0.1 1.2 0.5 1.7 0.9 0.4 0.3 1.4 0.7 1.6 1.2"/>
 <path class="st7" d="m25.6 117c-3-0.8-5.3-3-5.7-6.2-1.1 0.3-2.6 1.4-3.7 2-1 0.5-2.9 0.8-3.7 1.6-1.7 1.9 1.2 6 2.6 7.4 1.4 1.3 5.2 4 6.9 3 0.8-0.5 4.3-6.2 4-7.1s-2.3-0.9-2.8-2.1"/>
 <path class="st2" d="m18.4 113.8c1.7 2.8 3.5 3.7 6.5 3.9-0.1 1.4-0.8 2.3-1.6 3.5-1 1.5-1.5 2.4-3.2 1.6-2.5-1.2-4.5-3-5.5-5.8 0.9 2 3 3.8 5 4.6 1.8 0.8 2.6-1 3.6-2.5-1.4 0.3-3.3-1.7-4.3-2.6s-1.3-1.8-1.5-3.1c0.3-0.1 0.5-0.2 0.8-0.4 0.1 1.2 1 2.5 1.9 3.1"/>
 <path class="st2" d="m21 118.6c-1.1-1.1-1.4-2.5-2.3-3.6-0.6-0.7-1.9-0.7-1.9 0.7 0 0.7 0.3 0.5 0.8 0.8 0 0 0.4-0.2 0.5-0.1 0.2 0.2 0.2 0.6 0.4 0.8 0.9 0.7 1.5 0.9 2.5 0.9-0.3-0.7-2.5-5.2-3.2-3.4"/>
 <path class="st0" d="m91.9 125.8c0.8 1.9-0.9 3.6-1.5 5.2-0.4 1.2-0.1 2.7-0.2 4-0.1 1.7-0.6 3.3-0.9 5-0.2 1.3 0.1 2.6-0.2 3.8-0.8 3-3.1 5-6.1 3.5-1.6-0.8-2.1-1.2-2-2.8s0.2-2.5-0.4-4-1-2.5-1-4.2c0.1-1.4 0.2-2.7-0.2-4s-1.5-2.1-2-3.4c-0.3-0.9-0.3-2.1 0.2-3 0.7-1.2 0.5-0.8 1.7-1.1 1.4-0.4 2.9-0.8 4.3-1 2.6-0.3 7.2-0.7 8.3 2z"/>
 <path class="st1" d="m82.8 138.2v-0.3c0.5 1.6-0.7 5.6 1.4 6.2 1.1 0.3 1.8-0.2 2.6-1 0.7-0.7 2-2.4 2.1-3.4-1 0.6-2.4 0.8-3.6 0.4-1.2-0.5-1.7-1.7-2.2-2.8 0 0.1 0.1 0.2 0.1 0.2"/>
 <path class="st3" d="m83.1 137.3c1 1.8 1.2 4.1 3.8 3.7 2-0.3 1.7-2.3 2.5-2.8"/>
 <path class="st1" d="m90.2 127.5c0-1.8-1.6-2-3-2.2-1.7-0.2-3-0.4-4.7-0.1-1.3 0.2-3.1 0.3-3.6 1.8-0.1 0.4-0.1 0.8 0.1 1.3 0.4-0.1 0.7-0.1 1.1-0.1h0.4c0.1-0.2 0.2-0.3 0.4-0.4 0.6-0.3 2 0.2 2.6 0.6 0.7 0.4 1.4 1.9 1.4 3.1 1.6 2.4 2.6 5 3 7.6 0.3-0.7 0.5-1.7 0.6-2.2 0.2-0.8 0.4-1.5 0.4-2.3s-0.3-1.6-0.3-2.4c-0.1-1.7 1.6-3 1.6-4.7z"/>
 <path class="st4" d="m89.6 125.8c-0.5-0.4-1.2-0.5-1.8-0.6-1.1-0.3-2.2 0.5-2.1 1.6s1.2 2.8 2.4 3.2c2 0.7 3-3.2 1.5-4.2z"/>
 <path class="st5" d="m82.3 143.9c-0.3 1.4 0.6 1.8 1.8 2.2 0.7 0.3 1.6 0.4 2.3 0 1.4-0.8 1.8-3.5 1.7-4.8-0.8 1.8-1.7 3.6-4 3.2-1.9-0.3-1.2-3.1-1.9-4.3 0 1 0 1.9 0.1 2.9 0 0.5 0.1 0.9 0.2 1.4 0 0.3 0.2 1.2 0.4 1"/>
 <path class="st8" d="m81.5 146.5c-0.2-1.3-0.6-2.9-0.3-4.2 1.3 1.7 1.4 3.3 3.8 3.5 2.1 0.1 3-0.6 4.1-2.4 0.3 1 0.2 2.2 0.5 3.2 0.2 1.1 0.7 1.8 0.2 2.8-1.2 2-2.9 1.8-4.8 1.5-1-0.2-2-0.3-3-0.7-1.2-0.4-1.1-0.5-1.1-1.8 0.1-2.1 0.3-4.3 0-6.3 0.1 0.1 0.1 0.2 0.1 0.3"/>
 <path class="st2" d="m82.2 149.1c-0.5-1.4-1-3.5-0.9-5 0.4 3 4.3 5 7.1 4.1-0.8 1.2-2.9 1.8-4.2 1.6-1.8-0.4-1.8-2.2-2.5-3.6"/>
 <path class="st0" d="m52.9 126.6c-0.8 1.9 0.9 3.6 1.5 5.2 0.4 1.2 0.1 2.7 0.2 4 0.1 1.7 0.6 3.3 0.9 5 0.2 1.3-0.1 2.6 0.2 3.8 0.8 3 3.1 5 6.1 3.5 1.6-0.8 2.1-1.2 2-2.8s-0.2-2.5 0.4-4 1-2.5 1-4.2c-0.1-1.4-0.2-2.7 0.2-4s1.5-2.1 2-3.4c0.3-0.9 0.3-2.1-0.2-3-0.7-1.2-0.5-0.8-1.7-1.1-1.4-0.4-2.9-0.8-4.3-1-2.5-0.3-7.1-0.8-8.3 2z"/>
 <path class="st1" d="m62 138.9v-0.3c-0.5 1.6 0.7 5.6-1.4 6.2-1.1 0.3-1.8-0.2-2.6-1-0.7-0.7-2-2.4-2.1-3.4 1 0.6 2.4 0.8 3.6 0.4 1.2-0.5 1.7-1.7 2.2-2.8 0 0.1-0.1 0.2-0.1 0.2"/>
 <path class="st3" d="m61.7 138.1c-1 1.8-1.2 4.1-3.8 3.7-2-0.3-1.7-2.3-2.5-2.8"/>
 <path class="st1" d="m54.7 128.3c0-1.8 1.6-2 3-2.2 1.7-0.2 3-0.4 4.7-0.1 1.3 0.2 3.1 0.3 3.6 1.8 0.1 0.4 0.1 0.8-0.1 1.3-0.4-0.1-0.7-0.1-1.1-0.1h-0.4c-0.1-0.2-0.2-0.3-0.4-0.4-0.6-0.3-2 0.2-2.6 0.6-0.7 0.4-1.4 1.9-1.4 3.1-1.6 2.4-2.6 5-3 7.6-0.3-0.7-0.5-1.7-0.6-2.2-0.2-0.8-0.4-1.5-0.4-2.3s0.3-1.6 0.3-2.4c0.1-1.7-1.6-3-1.6-4.7z"/>
 <path class="st4" d="m55.2 126.6c0.5-0.4 1.2-0.5 1.8-0.6 1.1-0.3 2.2 0.5 2.1 1.6s-1.2 2.8-2.4 3.2c-2 0.7-2.9-3.2-1.5-4.2z"/>
 <path class="st5" d="m62.5 144.7c0.3 1.4-0.6 1.8-1.8 2.2-0.7 0.3-1.6 0.4-2.3 0-1.4-0.8-1.8-3.5-1.7-4.8 0.8 1.8 1.7 3.6 4 3.2 1.9-0.3 1.2-3.1 1.9-4.3 0 1 0 1.9-0.1 2.9 0 0.5-0.1 0.9-0.2 1.4 0 0.3-0.2 1.2-0.4 1"/>
 <path class="st8" d="m63.4 147.3c0.2-1.3 0.6-2.9 0.3-4.2-1.3 1.7-1.4 3.3-3.8 3.5-2.1 0.1-3-0.6-4.1-2.4-0.3 1-0.2 2.2-0.5 3.2-0.2 1.1-0.7 1.8-0.2 2.8 1.2 2 2.9 1.8 4.8 1.5 1-0.2 2-0.3 3-0.7 1.2-0.4 1.1-0.5 1.1-1.8-0.1-2.1-0.3-4.3 0-6.3-0.1 0.1-0.1 0.2-0.1 0.3"/>
 <path class="st2" d="m62.7 149.9c0.5-1.4 1-3.5 0.9-5-0.4 3-4.3 5-7.1 4.1 0.8 1.2 2.9 1.8 4.2 1.6 1.8-0.4 1.8-2.2 2.5-3.6"/>
 <path class="st0" d="m40.9 93.7c0.3-2.4 0.4-5.8 2.4-7.3 1.9-1.4 5.1-1.8 7.3-2.3 6.7-1.4 13.7-2.6 20.5-2.9 8.3-0.4 16.5 0.3 24.6 2.3 7.5 1.8 12.7 4.6 9.6 13-1.1 3-1.3 6.1-2 9.2-0.7 3.2-2.5 5.4-3.8 8.3-1.3 2.8-1.4 6-3.1 8.6-1.9 2.9-5.2 4.6-8.5 5.6-2.6 0.9-5.5 1.6-8.2 2-8.8 1.3-23.2 3.7-29.9-4.2-2.1-2.5-1.3-5.3-1-8.3 0.3-3.5-1.7-6.2-2.2-9.6-0.5-3.5 1.4-7.3-1.6-10.1-1.5-1.4-3-1.3-3.6-3.5-0.5-1.9 0.2-4.1 0.3-6.1 0.2 0.2 0.2 0.4 0.2 0.7"/>
 <path class="st5" d="m78.4 107.7c-0.5-0.1-0.9-0.2-1.4-0.2 0 0 0.3-0.7 0.4-0.7 0.2-0.2 0.4-0.3 0.7-0.3 0.9-0.1 1.8 0.3 2.8 0.3 1.3 0 2.5-0.1 3.8-0.2 4.6-0.1 9.6-0.7 12.8-4.5 1.8-2.2 3-4.9 4.3-7.4-0.6 3.9-1.4 7.9-4.6 10.4-2.9 2.3-6.6 2.6-10.1 2.5-3.5 0-6.8-0.3-10.3 0.2"/>
 <path class="st1" d="m80.3 107.9c-1.1-0.1-4.1-0.4-3.4 1.7 0.3 0.9 1.9 0.6 2.7 0.6 1.1 0.1 2.3 0.2 3.4 0.3 0.8 0.1 1.6 0.3 2.4 0.5 0.7 0.2 0.7 0.4 0.7 1.1 0.1 1.9-0.3 4.2-1.1 6-0.4 0.8-1.2 2.1-1.4 2.9-0.4 0.2-0.6 0.8-0.8 1.2-0.3 0.5-0.8 1-1.2 1.4-0.7 0.7-2 1.4-2.9 1.4 0.3 0.1 0.7 0.1 1 0.1 0.5 0.1 1.1 0.3 1.6 0.4 0.7 0 1.3-0.5 1.8-0.9 1.8-1.7 2.5-4.4 3.5-6.6 1.5-3.2 2.6-6.8 3.9-10.1-0.7-0.3-2-0.1-2.8-0.1-1.3-0.1-2.5 0-3.8-0.2-0.9-0.1-1.9-0.1-2.8-0.1-0.5 0-1.6-0.3-2 0 0 0.1 0.1 0.2 0.2 0.2"/>
 <path class="st1" d="m85.8 125.5c2.3-1.5 4.5-4.8 5.9-7.2 1.1-2 2.3-3.8 3.5-5.7 2.6-4 4-8.9 6-13.3 1-2.3 2.8-5.4 2.4-7.9-0.3-1.8-1.7-3.6-2.4-5.1 0.9 1.4 3 1.4 3.6 3 0.4 1 0.6 3.1 0.4 4.1-0.7 3.4-3.4 6.5-3.5 10.1-0.1 3.5-1.7 5.9-3.2 8.9-1.1 2.2-1.2 4.5-2 6.8s-2.7 4.5-4.5 6.1c-2.2 2-5 1.8-7.5 2.9 0.7-2.1 3.4-3.6 4.1-5.8"/>
 <path class="st1" d="m85.6 124c-7.3 0.1-14.4 3.1-21.7 1.2-1.7-0.4-2-1.2-2.7-2.9-1.1-2.9-2-7.3-4-9.8-0.8-1-2.5-1.5-3.4-2.5-1.2-1.2-1.7-2.6-2.3-4.1-1.2-3.2-2.5-6.7-3.2-10-0.4-1.9 0.3-3.2 1.6-4.2 0.2-0.4 0.5-0.8 0.9-1.1 2.4-2.3 5.1-4.2 7.8-5.8 0.8-0.6 1.7-1.2 2.5-1.8-0.3-0.1-0.6-0.2-0.8-0.3-2 0.2-3.9 0.5-5.8 0.9-2 0.4-4 0.8-6 1.3-1.5 0.5-3.5 0.2-4.5 1.4-1.4 1.5-1.7 6-1.3 7.7 0.3 1.5 2.1 1.9 3.2 2.7 1.4 0.9 2.3 1.6 2.5 3.3 0.4 2.9-0.2 5.8-0.1 8.6 0.1 3 2.3 4.9 2 8-0.3 3.6-1 7.8 2.5 10.2 4.7 3.2 11.9 3.7 17.5 3.9 6.4 0.2 13.3-0.7 19-3.7 1.7-0.9 2.8-2.8 4.5-3.7-2.9 0.6-5.5 0.7-8.2 0.7z"/>
 <path class="st1" d="m66.3 121.3c0 0.8 0.3 2.2 1.2 2.6 0.6 0.3 1.5-0.4 2-0.7 0.6-0.4 1.5-1 2.2-1.1 0.8 0 0.8 0.6 1.1 1.2 0.2 0.4 1.1 1.4 1.4 1.6 0.2 0.1 1.5 0 1.8-0.1 1.2-0.4-0.3-2.6-0.2-3.4 0-0.1-0.1-0.2-0.1-0.2 0.7 0.1 1.2 0.1 1.9 0.4s1.1 0.7 1.7 1.1c0.3-0.6 1.2-1.2 1.2-1.9 0-0.5-0.5-0.8-0.9-1.2-0.7-0.6-1.1-0.9-2.1-1-0.6-0.1-1.3 0-1.9-0.2 0-0.5-0.3-1-0.3-1.5 0.8 0 1.5 0.2 2.2 0.4 0.6 0.2 1.4 0.6 2 0.7 1.1 0.2 1.8-2.1 1.1-2.8-0.5-0.5-1.9-0.7-2.5-0.9s-1.3-0.3-1.9-0.6c-0.8-0.3-1.2-0.5-1.4-1.4-0.1-0.5-0.2-1-0.2-1.4 0-0.6 0.3-1.2 0.1-1.8-0.2-0.9-0.9-0.7-1.6-0.8-0.8-0.2-1.1-0.3-1.2 0.6-0.1 0.8-0.3 1.6-0.4 2.4-0.1 0.5 0.1 2.2-0.2 2.6-0.2 0.3-1.4 0.3-1.8 0.3-1.2 0.1-2.2 0.4-3.3 0.8s-1.2 0.7-0.9 1.8c0.1 0.6 0.3 1.4 0.8 1.8 0.4 0.4 0.9 0.1 1.4-0.3 0.8-0.5 1.6-1 2.6-1.2 0.6-0.1 0.8-0.2 1 0.4 0.2 0.5 0.3 1-0.1 1.3-0.2 0.1-0.7 0.1-1 0.2-0.5 0.1-0.8 0.3-1.2 0.5-0.7 0.3-1.2 0.6-1.9 1s-1 0.4-0.7 1.2c0.2 0.4 0.5 1.1 0.9 1"/>
 <path class="st3" d="m77.1 108.1c3.6 0 7-0.3 10.5-0.5 2.1-0.1 4.7 0.5 6.6-0.2 4.4-1.4 8-8.7 8.8-12.8-0.3-0.3-0.1 0.1-0.3 0.3"/>
 <path class="st3" d="m48 95.2c1.9 3.6 2.5 7.2 3.4 11 0.7 2.9 2.2 3.9 5.2 4.4 4.1 0.7 10-1.2 13-0.7"/>
 <path class="st3" d="m57.3 110.8c2.1 3.4 3.1 6.2 4.5 10 0.4 1.1 1 4.2 1.7 4.9 1.1 1.1 4.9 0.4 6.4 0.4 2.7-0.1 5.2-0.8 7.9-0.8 1.3 0 3.6 0.3 4.7-0.4s2.5-3.8 3.2-5.2c1-2 1.5-4.3 2.5-6.3 0.9-1.7 1.6-2.9 2-4.7 0.1-0.6 0.4-0.6 0.1-0.8"/>
 <path class="st9" d="m73.5 109.3c0 3.1-0.2 5.9 0.2 8.9 0.3 2.2 1.1 4.3 1.5 6.4"/>
 <path class="st10" d="m53.8 107.8c-1.2-1.5-1.7-3.4-2-5.3-0.6-3.5-0.4-7.8 3.8-8.9 3.7-1 8.6-0.4 12 1.2 2.9 1.3 4.5 4 4.9 7.1 0.3 3-0.8 5.7-3.7 6.7-1.9 0.7-4 0.8-6 0.8h-3.5c-1.5 0-3.4 0.5-4.7-0.6-0.4-0.4-0.7-0.7-1.1-1.2-0.5-0.6-0.8-0.6-0.5-1.4"/>
 <path class="st10" d="m77.6 106.2c1.7-4.5 4.4-11.2 10.1-10.9 1 0 2.1 0.3 3.1 0.5 1.3 0.1 2.6-0.5 3.7-1.2 0.7-0.5 1.3-1.1 2-1.7 0.3-0.3 0.9-1 1.4-1 0.7 0 1.2 1.5 1.3 2.1 0.7 2.8-0.6 5.8-2.1 8.1-1.1 1.7-2.2 3.3-4.2 3.9-2.9 1-6.3 0.5-9.3 0.4-1.6-0.1-3.2 0.3-4.8 0.6-0.7 0.1-1.2 0.2-1.3-0.7 0-0.6 0.4-1.2 0.5-1.7 0.1 0 0.2 0.1 0.2 0.1"/>
 <path class="st3" d="m66.3 117.1c4.1-2.9 8.8-2.6 13.3-0.5"/>
 <path class="st3" d="m67.8 122.4c2.6-2.8 8.5-3.8 11.7-1.2"/>
 <path class="st3" d="m93.5 102.4c-0.3-0.4-0.6-0.8-1-1-2.8 2.1 0.5 4.2 1.7 1.5"/>
 <path class="st3" d="m58.2 107.6c-0.9-0.1-4.2-1.8-1.8-2.7 0.8-0.3 2.3 1.1 2.7 1.7"/>
 <path class="st11" d="m78 104.8c0 0.1-0.1 0.2-0.1 0.3"/>
 <path class="st4" d="m52.4 106.5c1.3 3 3.9 2.9 6.8 3.4 2.1 0.3 4.2-0.1 6.3-0.5 1.7-0.3 3.6-0.5 5.1-1.5-3.2 0.1-6.5 0.7-9.7 0.7-2.1 0-4.9-0.2-6.7-1.5-1.2-0.8-1.7-2.2-2.1-3.6 0 1.8 0.5 3.5 1.4 5.1"/>
 <path class="st4" d="m66.9 111.1c-1.7-0.1-3.3 0.1-4.9 0.2-0.6 0-1.2 0.1-1.7 0.2-0.8 0.3-0.5 0.6-0.1 1.3 0.4 0.9 0.9 1.7 1.3 2.7 0.4 1.1 1.1 2 1.5 3 0.7 1.8 0.7 3.7 1.3 5.4 0.8 2.6 4.4 1.9 6.3 0.9-0.3-0.2-0.8 0-1.2 0-0.5 0-1-0.2-1.4-0.5-1-0.8-1.7-2.2-2.1-3.4-0.3-0.8-0.5-1.6-0.7-2.4-0.2-0.9-0.7-1.8-0.9-2.7s-0.6-1.9-0.8-2.8c0.9-0.3 1.8-0.5 2.7-0.9 0.8-0.4 1.6-0.6 2.4-0.7-0.5 0.5-0.7 1.5-0.9 2.2 1.1-0.6 1.9-1.5 2.2-2.7-1.3-0.4-3.3-0.1-4.6-0.1"/>
 <path class="st4" d="m48.4 103.5c-0.1 1.2-0.3 2.6-0.2 3.8 0.1 1.1 0.5 2.1 0.8 3.2 0.3 0.9 0.5 1.8 0.9 2.7 0.4 0.8 0.7 1.6 0.8 2.4 0.1 1.6-0.4 3.3-0.8 4.8-0.4 1.7-0.2 2.9 0.8 4.3 0.5 0.7 1 1.6 1.7 2.2 0.6 0.6 1.4 0.9 2.1 1.3 1.4 0.8 3.3 1.3 4.9 1.2-0.8-0.4-1.7-0.6-2.4-1.2-0.9-0.7-1.9-1.4-2.5-2.4-1.5-2.2-1.4-5.1-1.5-7.7-0.3-3.9-3.2-6.9-3.4-10.8-0.1-1.5-0.2-2.9-0.4-4.3-0.2-1.5-0.2-2.9-1-4.3-0.8-1.5-1.9-2.5-3.3-3.5-0.7-0.5-1-1-1.3-1.9-0.1-0.4-0.5-1.6-0.1-1.8-0.5 1.1-0.9 2.3-0.5 3.5s1.7 1.8 2.7 2.5c1.2 1 1.8 2.2 2.1 3.7 0.3 1 0.5 2.3 0.5 3.4v0.5"/>
 <path class="st4" d="m76.1 107.4c-2.1-1.5-3-3.2-2.5-5.9 0.5-2.8 1.9-5.7 3.1-8.3 0 3.5-3.1 13 2.6 14-1.7 1.7-4.6-1.6-5.1-1.3"/>
 <path class="st0" d="m61.3 67.2c0 3.7-2.9 6.9-5.3 9.6-1.2 1.3-2.6 2.5-3.9 3.8-1.2 1.2-2.2 2.6-3.6 3.5 0.8 0.6 1.9 0.8 2.6 1.4 0.9 0.9 1.6 2.1 2.3 3.2 1.4-0.3 2.9-2.6 3.4-3.6-0.3 1.4 0.5 3.4 0.9 4.8 0.2 0.5 0.3 1.8 0.7 2.2s1.7 0.8 2.3 1.1c0.1-1.6 0.4-3.5 0.2-5.1 0.3 1.5 1.5 3 2.1 4.4 1.1-0.2 2.1 0.4 3.2 0.3 0.4-2 2-3.7 2.4-5.7 0.4 0.8 0.9 1.5 1.3 2.3 0.5 1.2 0.6 2.5 1.3 3.6 1.2-1.1 2.1-3.7 2.6-5.2 0.7 0.3 4.3-0.7 5.5-0.8 0.6 1.6 2.3 3 3.1 4.4 0.4-0.7 1.2-1 1.9-0.8 0.5-0.9-0.3-2.3-0.5-3.3-0.3-1.5-0.4-1.8 1-2.6 0.7 1.1 1.9 2.4 2.4 3.7 0.4-1 2.5-2.5 3.4-3.2 1.1-1 2.7-1.5 3.8-2.4-2.4-0.4-5.1-3.7-6.4-5.3-1.5-1.8-3.1-3.4-3.5-5.5-0.7-4.2-0.5-8.9-0.1-13.2 0.2 0 0 0.1 0.1 0.3"/>
 <path class="st1" d="m62.2 69.9c0.1 2.4-0.9 3.3 1.3 4.4 0.9 0.5 1.7 0.6 2.6 0.8 2 0.5 4.1 0.9 6.1 0.7s4.2-1.3 5.7-2.7c1.5-1.3 2.5-3.4 4-4.4 0.1 1.7 0.8 3.4 0.8 5.2 0 1.4-0.5 3.5 0.2 4.8 0.9-1.9 0.7-5.4 0.6-7.6s0.2-5.4-0.8-7.3c-2 1.4-2.9 3.7-5.3 4.9-2.2 1.1-4.6 1.4-7 1.5-1.3 0.1-2.5 0-3.7-0.3-0.9-0.3-1.9-1.1-2.9-1-2.1 0.2-1.8 3-2.1 4.7"/>
 <path class="st1" d="m72.7 75.7c2.3-1.4 4.2-3.9 5.9-5.8 1.4-1.6 3.8-3.2 4.8-4.9-0.5 1.1-0.2 2.5-0.7 3.5-0.5 1.2-2.7 2.4-3.7 3.3-2.1 1.9-4.5 3.5-6.6 5.5 0.4-1 1-1.7 1.7-2.5"/>
 <path class="st4" d="m62.9 71.6c-0.5-0.6-1.1-1.2-1.9-1.4-0.1 2.5-0.9 5.3-2.5 7.4-1.4 1.7-3.1 4.6-5.3 5.5 2.9 0 5.9-4.1 7-6.2 0.6-1.1 1.1-2.4 1.6-3.5 0.2-0.5 0.8-1.4 0.8-1.8 0-0.6-1-1.3-1-1.4"/>
 <path class="st5" d="m82.9 79.2c0.4-1.5 0.8-3.2 1-4.8 1.1 1.5 1.4 3.5 2.3 5.1 0.8 1.4 2 2.6 2.8 4-1.3-1.2-2.8-2.3-4.2-3.5-1.6-1.4-1.6-2-1.6-4"/>
 <path class="st1" d="m63.1 70.7c-1.5 1.7 0.1 2.6 1.6 3.7 1.3 1 2.5 2.1 3.6 3.3-0.4-0.8-0.6-1.8-1.1-2.5"/>
 <path class="st1" d="m62.8 82c0.5 2.1 1.3 4.2 1.7 6.3 0.2 1.1 0 2.5 0.5 3.4 0.9-1.6 1.1-4 1.5-5.8 0.4-1.7 0.1-3.9 0.7-5.5-0.5 2.7-1.6 5.3-2 8.1-0.6-1.4-0.8-3-1.3-4.5-0.5-1.4-1.5-2.4-1.5-3.8 0.2 2 0 5 1.6 6.5v-0.4"/>
 <path class="st12" d="m61.7 67.9c0.8 0.8 0.9 1.8 1.5 2.7 0.5 0.7 1.1 1.3 1.7 2 0.8 0.9 3 2.8 3 3.7"/>
 <path class="st1" d="m75.5 77c1.2-0.9 2.7-2.7 4.2-3.3 0.8 1.9 0.5 4.2 1.6 6.1-0.8-0.7-2-1.4-2.8-1.2-1.1 0.2-2.9 1.9-3.6 2.6-1.5 1.4-2.1 3.1-3.2 4.7 0.8-2.5 1.7-5.5 3.1-7.8 0.9-1.6 2.3-2.4 3.6-3.6 0 0.2-0.1 0.3-0.3 0.4"/>
 <path class="st12" d="m74.3 78.7c2.2-1.5 3.7-3.7 5.3-5.5 0.6-0.7 1.2-1.4 1.7-2.1 0.4-0.5 1.2-1.8 1.5-1.6"/>
 <path class="st1" d="m68.9 84.4c-0.3-2-1.5-5-2.8-6.7-0.7-0.9-1.8-1.5-2.6-2.4-0.7-0.7-1.1-1.7-1.9-2.3-0.1 1.6 0.6 6.3 2 7.4 0.1-0.9 0-1.9 0.1-2.8 2.4 1.9 4.5 4.2 6 6.7-0.1-0.1-0.1-0.3-0.2-0.4"/>
 <path class="st13" d="m71.7 85.4c0.5-2.3 1.1-5 1.9-7.2 0.7-2 3-2.6 4.9-3.8-0.9 2.3-3.4 3.7-4.5 5.9-1 1.9-1.5 4.1-2.2 6.1-0.2 0-0.1-0.2-0.3-0.3"/>
 <path class="st13" d="m70 85.5c-0.9-2.4-1.8-4.6-2.6-7s-3.5-3.4-5.3-5.2c0.3 2.1 2.8 3.4 4 5.1 1.1 1.5 2.4 4 3.1 5.8 0.3 0.2-0.2-0.1-0.2-0.1"/>
 <path class="st10" d="m70.5 84.5c1.8-1.7 0.5-5 1.8-7 1.4-2.1 3.8-3.8 5.9-5.3 0.9 2.2-3.4 3.4-4.6 5.2-1.5 2.2-1.6 4.9-2.7 7.2 0.3-0.7 0.3-1.8 0.3-2.6 0 0.1 0.1 0.2 0.2 0.4"/>
 <path class="st14" d="m60.7 52.2c-0.4-2.5-1.7-7.8-6-6.5-3.7 1.1-3.4 4.9-4.1 7.5-1 3.4-3.1 7.3-6.6 9.3-1.6 0.9-6.8 1.4-7.7 2.9 3.1 2.5 8.6 1.4 12-0.7 0.1 1.1-1 2.6-1.4 3.6-1.1 2.6-2.6 4.8-4.2 7.1-1.4 2-3.4 3.9-5.7 5.1 1.5-0.9 3.2-1.2 4.8-1.7 2.8-1 5.7-1.9 8.3-3.2 2.8-1.4 4.3-3.9 6.4-6 2.2-2.2 3.7-4.6 5.2-7.3 1.6-2.9 2.9-6.2 1.9-9.4-0.7-2.2-3.1-4.3-4.4-6.2-0.3 0.2-0.5 0.4-0.6 0.8"/>
 <path class="st15" d="m46.6 74.9c4.2-2 12.8-9.4 10.9-14.1-0.4 1.8-1.7 3.4-3.1 4.7-1 0.9-2.8 3.2-4.1 3.6-0.1-3 0.1-6.7 2.7-9.2-2 2.3-3.3 4.7-4.3 7.4-0.5 1.3-1.1 3-1.3 4.3-0.2 1.1 0.2 2.2 0 3.3 0.7-0.8 1.7-2.4 2.8-2"/>
 <path class="st15" d="m47.7 64.1c-3.4 0.2-6.1 2-9.6 1.6 1.8 0.6 4.8-1.3 6.4-2.3 2.6-1.5 4.1-3 5.5-5.4 1.3-2.1 1.9-4.4 3.1-6.6 1.6-2.8 3.6-3.9 6.4-5.1-2.8-0.1-5.3 10.9-7 13-1.2 1.4-2.4 3.2-3.9 4.3-1.1 0.7-3.3 1.2-3.9 1.5"/>
 <path class="st16" d="m59.3 47.8c0.2-2 0.5-5.3-2.5-5-1.5 0.2-2.9 1.6-3.8 2.6-1.9 2.3-3.1 5-5.2 7.2-2.3 2.3-5.8 2.8-7.7 5.5-2 3-0.1 5.7-1.5 8.7-0.6 1.4-3 4.4-4.7 3.7 3.2 0.9 6.5-0.1 8.9-2.4 2.6-2.5 3-6.6 6.7-8.3-0.7 1.4-0.9 2.7 0.2 4 0.8 1 2.8 2.1 3.8 1.2-1.9-3.5 0.5-5.7 2.5-8.6 1.4-2.1 3.6-4.8 3.9-7.4 0.1-1.2-0.3-4-1-4.5"/>
 <path class="st17" d="m43.8 59.2c-0.9 1.6-1.9 3.1-3.3 4.3 4.6-0.3 7.1-4.7 10.3-7.1-0.1 0.5 0.2 1 0.2 1.5 1.6-0.8 2-4.8 2.8-6.3 1.1-2.2 2.8-4.2 4.6-6-3.3 1.3-6 5.5-6.6 8.8-0.4-0.4-0.3-1.3-0.4-1.9-1.5 1.6-2.2 4-3.7 5.6-0.8 0.9-2 1.6-3 2.3-0.5 0.4-2.6 1.3-2.3 1"/>
 <path class="st18" d="m58.8 36.8c0-3.1-0.6-4.7-2.5-7-0.8-1-1.5-2.1-2.9-1.3-1.2 0.7-2.1 3.4-2.8 4.6-0.9 1.7-1.5 3.6-1.9 5.5-0.7 3-0.9 6-3 8.5-2 2.5-4.6 3.4-7.4 4.5 1.3 1.3 3.8 0.4 5.1-0.5-3.3 2.6-7.3 3.9-7.6 8.9-0.1 2.1 1.8 9.2 5.3 7.5-5.7-2.5 0.8-7.6 3.2-9.3 3-2.2 6.4-5.8 8-9.1 0.1 0.9-0.1 2.3 1 2.6-0.8-1.8 1.6-3.1 2.9-3.9 1.7-1.2 2.9-2 3.3-4.2 0.5-2.7 0.2-8.4-1.3-10.7"/>
 <path class="st19" d="m39.2 57.7c2.1-5.6 10.2-7.6 10.2-14.3 0.3 0.7 0.5 1.5 0.5 2.3 3.6-3.1 4.8-7.8 4.8-12.4-0.7 3.7 2.3 6.7 1.3 10.7-1 1-3 1-4 2-4 5-6 10-12.9 11.9"/>
 <path class="st20" d="m64.9 30.8c-0.3-3.1-0.8-5.7-3.6-7.2-1.7-0.9-3.4-1.1-5.2-0.1-4.2 2.3-7.5 7-8.8 11.5-0.8 2.9-0.7 6.6-2.5 9.2-1.5 2.1-3.8 3.2-6.1 3.8 1.6 1.5 4-0.4 5.4-1.5-2.5 3.4-4.5 10.9 1 12.8-1.3-3.7-1.2-7.8 1.6-10.8 1.9-2.1 3.8-3.5 5.3-6 1.1-1.9 1.7-3.7 2.6-5.7 1.6-3.4 3.6-4.2 7-5 1.5-0.3 2.9-1.1 3.7-2.5 0.5-0.7 1.3-3.1-0.2-2.8-0.1 0-0.5 0.2-0.6 0.2"/>
 <path class="st21" d="m47.9 37.4c-0.4 3.3-0.3 6.6-1 9.8 0.5-2.2 2.3-4.3 3-6.4 0.7-1.9 0.9-4.1 1.2-6.2 0.3-2.3 0.8-4.5 2.6-6.2 2.4-2.1 3.6-2.3 5.8-0.3-0.4-5.5-6.1-2.2-7.7 0.8-1.6 3.2-1.5 6.7-3.1 9.8-0.4-1.1-0.3-2.2-0.4-3.4-0.9 1.4-0.8 4-0.3 5.5"/>
 <path class="st22" d="m67 22.3c-0.9-1.2-2.2-3.7-3.7-4.7-1.3-0.9-1.3-0.2-2.5-0.3-1.7-0.2-3.1-1.7-4-3.1 0.4 1.8 0.2 3.4 1.5 4.9-2.7-0.3-5.2-0.4-7.6 1-2.5 1.5-2.5 3.9-3.5 6.3-1.8 4.4-6.4 8.3-10.7 10.1 3.3 1.4 5.7-1.9 8.2-3.1-2.9 2.5-0.2 7.6 2.2 9.5-0.1-0.2-0.3-0.3-0.4-0.4-0.1 2-3.8 5.3-5.5 6.1 3.6-0.4 7.1-3.1 7.8-6.7 0.6-3-0.9-5.9 0.8-8.7 1.8-2.9 4.8-2.1 7.5-2.9 2.5-0.7 6.2-3.8 7.9-5.8 1.6-1.8 0.1-3-0.8-4.6-0.2 0.1-0.4 0.1-0.5 0.3"/>
 <path class="st23" d="m46 35c0 0.9-0.6 4 1 4.1-0.2-2.7-0.3-4.3 0.8-7 1-2.3 1.9-3.9 4.2-5 3.9-1.9 8.4-0.9 11.8-4.2-1.4-0.6-1.7-1.6-3.5-1.8-1.5-0.2-3.2-0.3-4.6 0-2.3 0.5-3.7 3.3-5.9 3.5 1.8-0.4 3.4-0.2 4.9-1.5-1 1.7-2.4 2.1-3.8 3.3-1.2 1.1-2.2 2.5-2.9 4-0.8 1.7-2.7 8-0.6 8.7"/>
 <path class="st14" d="m82.6 53.4c0.4-2.5 1.7-7.8 6-6.5 3.7 1.1 3.4 4.9 4.1 7.5 1 3.4 3.1 7.3 6.6 9.3 1.6 0.9 6.8 1.4 7.7 2.9-3.1 2.5-8.6 1.4-12-0.7-0.1 1.1 1 2.6 1.4 3.6 1.1 2.6 2.6 4.8 4.2 7.1 1.4 2 3.4 3.9 5.7 5.1-1.5-0.9-3.2-1.2-4.8-1.7-2.8-1-5.7-1.9-8.3-3.2-2.8-1.4-4.3-3.9-6.4-6-2.2-2.2-3.7-4.6-5.2-7.3-1.6-2.9-2.9-6.2-1.9-9.4 0.7-2.2 3.1-4.3 4.4-6.2 0.3 0.2 0.5 0.4 0.6 0.8"/>
 <path class="st15" d="m96.7 76.2c-4.2-2.1-12.8-9.4-10.9-14.1 0.4 1.8 1.7 3.4 3.1 4.7 1 0.9 2.8 3.2 4.1 3.6 0.1-3-0.1-6.7-2.7-9.2 2 2.3 3.3 4.7 4.3 7.4 0.5 1.3 1.1 3 1.3 4.3 0.2 1.1-0.2 2.2 0 3.3-0.7-0.8-1.7-2.4-2.8-2"/>
 <path class="st15" d="m95.6 65.3c3.4 0.2 6.1 2 9.6 1.6-1.8 0.6-4.8-1.3-6.4-2.3-2.6-1.5-4.1-3-5.5-5.4-1.3-2.1-1.9-4.4-3.1-6.6-1.6-2.8-3.6-3.9-6.4-5.1 2.8-0.1 5.3 10.9 7 13 1.2 1.4 2.4 3.2 3.9 4.3 1.1 0.7 3.3 1.2 3.9 1.5"/>
 <path class="st16" d="m84 49.1c-0.2-2-0.5-5.3 2.5-5 1.5 0.2 2.9 1.6 3.8 2.6 1.9 2.3 3.1 5 5.2 7.2 2.3 2.3 5.8 2.8 7.7 5.5 2 3 0.1 5.7 1.5 8.7 0.6 1.4 3 4.4 4.7 3.7-3.2 0.9-6.5-0.1-8.9-2.4-2.6-2.5-3-6.6-6.7-8.3 0.7 1.4 0.9 2.7-0.2 4-0.8 1-2.8 2.1-3.8 1.2 1.9-3.5-0.5-5.7-2.5-8.6-1.4-2.1-3.6-4.8-3.9-7.4-0.1-1.2 0.3-4 1-4.5"/>
 <path class="st17" d="m99.5 60.4c0.9 1.6 1.9 3.1 3.3 4.3-4.6-0.3-7.1-4.7-10.3-7.1 0.1 0.5-0.2 1-0.2 1.5-1.6-0.8-2-4.8-2.8-6.3-1.1-2.2-2.8-4.2-4.6-6 3.3 1.3 6 5.5 6.6 8.8 0.4-0.4 0.3-1.3 0.4-1.9 1.5 1.6 2.2 4 3.7 5.6 0.8 0.9 2 1.6 3 2.3 0.5 0.4 2.6 1.3 2.3 1"/>
 <path class="st18" d="m84.5 38.1c0-3.1 0.6-4.7 2.5-7 0.8-1 1.5-2.1 2.9-1.3 1.2 0.7 2.1 3.4 2.7 4.6 0.9 1.7 1.5 3.6 1.9 5.5 0.7 3 0.9 6 3 8.5 2 2.5 4.6 3.4 7.4 4.5-1.3 1.3-3.8 0.4-5.1-0.5 3.3 2.6 7.3 3.9 7.6 8.9 0.1 2.1-1.8 9.2-5.3 7.5 5.7-2.5-0.8-7.6-3.2-9.3-3-2.2-6.4-5.8-8-9.1-0.1 0.9 0.1 2.3-1 2.6 0.8-1.8-1.6-3.1-2.9-3.9-1.7-1.2-2.9-2-3.3-4.2-0.5-2.7-0.2-8.4 1.3-10.7"/>
 <path class="st19" d="m104.1 58.9c-2-5.6-10.1-7.6-10.1-14.3-0.3 0.7-0.5 1.5-0.5 2.3-3.6-3.1-4.8-7.8-4.8-12.4 0.7 3.8-2.3 6.8-1.3 10.8 1 1 3 1 4 2 4 5 6 10 12.9 11.9"/>
 <path class="st20" d="m78.4 32.1c0.3-3.1 0.8-5.7 3.6-7.2 1.7-0.9 3.4-1.1 5.2-0.1 4.2 2.3 7.5 7 8.8 11.5 0.8 2.9 0.7 6.6 2.5 9.2 1.5 2.1 3.8 3.2 6.1 3.8-1.6 1.5-4-0.4-5.4-1.5 2.5 3.4 4.5 10.9-1 12.8 1.3-3.7 1.2-7.8-1.6-10.8-1.9-2.1-3.8-3.5-5.3-6-1.1-1.9-1.7-3.7-2.6-5.7-1.6-3.4-3.6-4.2-7-5-1.5-0.3-2.9-1.1-3.7-2.5-0.5-0.7-1.3-3.1 0.2-2.8 0.1 0 0.5 0.2 0.6 0.2"/>
 <path class="st21" d="m95.4 38.6c0.4 3.3 0.3 6.6 1 9.8-0.5-2.2-2.3-4.3-3-6.4-0.7-1.9-0.9-4.1-1.2-6.2-0.3-2.3-0.8-4.5-2.6-6.2-2.4-2.1-3.6-2.3-5.8-0.3 0.4-5.5 6.1-2.2 7.7 0.8 1.6 3.2 1.5 6.7 3.1 9.8 0.4-1.1 0.3-2.3 0.4-3.4 0.9 1.4 0.8 4 0.3 5.5"/>
 <path class="st22" d="m76.3 23.6c0.9-1.2 2.3-3.7 3.7-4.7 1.3-0.9 1.3-0.2 2.5-0.3 1.7-0.2 3.1-1.7 4-3.1-0.4 1.8-0.2 3.4-1.5 4.9 2.7-0.3 5.2-0.4 7.6 1 2.5 1.5 2.5 3.9 3.5 6.3 1.8 4.4 6.4 8.3 10.7 10.1-3.3 1.4-5.7-1.9-8.2-3.1 2.9 2.5 0.2 7.6-2.2 9.5 0.1-0.2 0.3-0.3 0.4-0.4 0.1 2 3.8 5.3 5.5 6.1-3.6-0.4-7.1-3.1-7.8-6.7-0.6-3 0.9-5.9-0.8-8.7-1.8-2.9-4.8-2.1-7.5-2.9-2.5-0.8-6.2-3.8-7.9-5.8-1.6-1.8-0.1-3 0.8-4.6 0.2 0.1 0.4 0.2 0.5 0.3"/>
 <path class="st23" d="m97.3 36.2c0 0.9 0.6 4-1 4.1 0.2-2.7 0.3-4.3-0.8-7-1-2.3-1.9-3.9-4.2-5-3.9-1.9-8.4-0.9-11.8-4.2 1.4-0.6 1.7-1.6 3.5-1.8 1.5-0.2 3.2-0.3 4.6 0 2.3 0.5 3.7 3.3 5.9 3.5-1.8-0.4-3.4-0.2-4.9-1.5 1 1.7 2.4 2.1 3.8 3.3 1.2 1.1 2.2 2.5 2.9 4 0.8 1.7 2.7 8 0.6 8.7"/>
 <path class="st24" d="m57 26.5c-0.2 3.4 0.1 6.9 0.7 10.2 0.5 2.7 1.1 4.8 0.6 7.5-0.5 3-1.3 6-2.1 8.9-0.6 2.1-1.4 3.9-1.5 6.1-0.1 2.1 0.7 4.4 1.8 6.1 1.2 1.7 2.2 3.6 3.5 5.3 1.5 2 4.7 2 7 2.1 2.9 0.1 6.1 0.2 9-0.4 2.8-0.6 4.7-0.9 6.8-3.2 1-1.1 1.8-2.3 2.6-3.5 0.7-1.1 1.8-2.3 2.4-3.4 0.9-1.8 0.1-4.1-0.1-6-0.3-2.8-0.7-5.5-1.1-8.3-0.3-2.3-0.8-5-0.4-7.3 0.4-2.2 1.6-4.2 2.4-6.2 0.9-2.1 0.5-3.9 0.3-6-0.2-1.2 0.3-1.9 0.9-3 0.9-1.6 1.7-3.4 2.6-5 1-1.7 2.5-3.7 2-5.8-2.5-1-6.5 1.7-8.5 2.9-2.5 1.5-3.9 3.5-6.1 5.3-1.8 1.5-4.1 0.1-6.2-0.1-2.4-0.2-5.4 0.3-7.7 0.8-1 0.2-1.8 0.9-2.7 1-1 0.2-2.2-0.5-3-1.1-1.5-1.1-2.7-2.4-4-3.8-1-1.2-2.8-3.3-4.5-3.1 0.2 2.5 0.8 5.4 1.4 8 0.6 2.3 2.3 7.4 4.5 8"/>
 <path class="st2" d="m57.8 64.6c-0.7-1-1.5-1.5-1.7-2.8-0.1-0.7-0.2-1.3-0.2-2 0.1-1.6 0.4-3.3 0.9-4.8 0.4-1.6 0.8-3.4 1.5-4.8 0.8-1.5 1.5 0.9 1.5 1.6 0.2 2 0.1 4.1 0.2 6.2 0.1 1.2 0.1 2.3 0.6 3.4 0.2 0.6 1 2.1 1.9 1.6-0.3 1.2-1.9 0.8-2.8 1.3-1.2 0.7-0.2 2.9 0.4 3.8-0.8-0.6-1.5-1.9-2.1-2.7-0.4-0.6-1.4-1.9-1.4-2.5"/>
 <path class="st2" d="m60.7 69.2c0.6 0.8 1.5 2 2.6 2.3 0.8 0.2 1.7 0.3 2.5 0.3 1 0.1 2-0.2 3-0.1 1.1 0.1 2.2-0.4 3.3-0.3 1.7 0.2 3.8-0.1 5.4-0.6 1.9-0.6 3.3-2.3 4.8-3.7 0.8-0.7 1.4-1.6 2.1-2.4 0.6-0.7 1.5-1.6 1.9-2.5 0.6-1.2 0.8-3.4 0.2-4.6-0.6 1.3-0.4 3-1.1 4.4-0.3 0.5-0.8 0.9-1.2 1.3-0.7 0.7-1.4 1.5-2.1 2.1-1.3 1.2-2.4 2.2-3.8 3.2-1.6 1.1-3.2 1.3-5.1 1.1-2.2-0.2-4.3-0.1-6.4-0.1-0.8 0-1.7 0.2-2.5 0.1-1.1 0-1.3-0.4-1.9-1.2-0.6-0.7-1.6-1.1-2.2-1.9-0.5-0.5-0.6-2-1.4-1.9 0.5 1.3 0.6 2.4 1.5 3.5 0.4 0.5 1.7 2.4 2.4 2.3"/>
 <path class="st2" d="m87.7 28.6c0-0.2-0.1-0.3-0.1-0.5 0-0.4 0-0.7-0.2-1-0.6-0.7-1.3 0-1.7 0.5-0.6 0.8-0.9 1.8-1.2 2.8-0.2 0.6-0.7 1.7-0.6 2.4 0.3-0.1 0.6-0.3 0.8-0.5s0.2-0.8 0.5-0.9c0.6-0.3 0.4 0.8 0.4 1.2 0 2-0.7 3.8-1.3 5.7-0.5 1.5-0.7 2.9-0.6 4.4 0 1.1 0.4 2.2 0.4 3.4 0 0.2-0.1 0.4-0.1 0.6 0.1 1.8-0.7 3.7-2.5 4.4 0.3 0.3 0.6 0.6 0.9 0.7 0.4 0.1 0.7-0.1 1-0.3 0.1-0.1 0.7-0.4 0.8-0.4 0.5 0.1 1.1 1.5 1.2 1.9 0.3 0.9-0.1 2.1 0.3 3 0.3-0.5 0.1-1.3 0.1-1.9 0.1-0.9 0.1-1.7 0.1-2.7-0.1-1.5-0.3-3.2-0.6-4.7-0.6-3.7-0.7-7.9 1.2-11.2 0.8-1.4 1.7-2.7 1.9-4.3-0.2-0.6-0.2-2.4-0.7-2.6z"/>
 <path class="st25" d="m85.7 24.6c1-1.9 2-3.5 3.4-5.1 0.9-1 1.5-1.9 2.5-2.8 1-0.8 1 0 0.9 0.9-0.3 1.2-1 2.3-1.6 3.4-0.9 1.3-1.3 3.8-3.1 4.1-1.3 0.3-2.3 1.1-3.3 1.8 0.5-0.6 0.5-1.4 0.9-2 0.5-0.9 1.4-1.5 1.8-2.5 0 0.1-0.1 0.2-0.1 0.2"/>
 <path class="st2" d="m83.5 22.6c0.7-0.7 1.2-1.6 1.8-2.3s1.4-1.4 2.1-2c0.9-0.8 1.9-1.6 3-2.1 1.2-0.6 3-1.1 2.9 0.9 0-1.8-2.3-0.4-2.9 0-1.4 1.1-2.5 2.2-3.6 3.6-0.1 0.1-0.5 0.4-0.5 0.6 0 0.4 0.4 0.2 0.5 0.4 0.1 0.4-1.1 1.5-1.3 1.8-0.6 0.8-1.3 2.5-2.2 3 0.1-1.4-2.7-1.8-3.5-2 0.5-0.1 0.9-0.9 1.2-1.3 0.4-0.4 0.7-0.8 1.2-1-0.3 0.6-0.8 1-1.1 1.7 0.4 0.6 1.3 0.4 1.8 0.9 0.1-0.5 0.8-2.9 1.5-2.7"/>
 <path class="st4" d="m85.6 20c1.3-1.9 3.7-3.5 5.9-4.4 0.6-0.2 1.4-0.6 1.8 0.1 0.2 0.4 0.1 1.2 0 1.6 0.1-2.2-2.8-0.6-3.6-0.1-0.9 0.7-1.8 1.3-2.6 2.1-0.5 0.5-1.1 1.1-1.7 1.4-1.3-1.2 2.5-3.5 3.2-4-0.5 0.5-2 1.5-1.9 2"/>
 <path class="st2" d="m56.3 28.1c-1.3-1.3-1-3.3-1.4-4.9-0.4-1.8-1.3-3.3-1.8-5 1.8 2 4.1 3.5 5.8 5.7 0.5 0.7 0.8 1.5 1.4 2.2s2.2 2.1 3.1 2c-0.1 0-0.5 0.2-0.7 0.3-0.3 0.1-0.6 0-1 0-0.8-0.1-1.2-0.5-1.9-0.9-0.4 0.4 0 1 0.4 1.3-2.5-0.9-1.9-4.5-3.8-6.1-0.6 1.9 0 4.1-0.4 6-0.1-0.4-0.5-2.3-0.7-2.1"/>
 <path class="st2" d="m58.8 30.7c1.2 1.6 2.8 3.1 3.6 5 0.6 1.5 1.2 2.9 2.3 4.1 0.8 0.9 2 2.1 3.1 2.7 1.2 0.6 2.8 0.4 4.1 0.5 0.9 0.1 2.3 0.5 3-0.2 0.8-0.9 1.1-2.1 2-3 1.2-1.3 1.9-2.9 2.9-4.4 0.9-1.4 1.9-2.7 2.9-4.1 0.7-1 1.8-1.9 2.2-3-2.7 2.2-5.5 4.8-7.6 7.6-1.1 1.5-2 2.7-4 2.5-1.6-0.1-3.2-0.1-4.7-0.7-1.3-0.5-1.9-1.5-2.8-2.4l-2.7-2.7c-1-1-2.2-1.4-3.2-2.2-0.4-0.3-0.9-0.8-1.2-1.2-0.3-0.3-0.5-0.8-0.8-1 0.2 0.6 0.6 1.1 1 1.7s0.8 1.2 1.1 1.9c0.2 0.4 0.3 0.8 0.6 1"/>
 <path class="st2" d="m66.1 38.3c-0.5-1.3-0.6-1.9-0.4-3.2 0.1-1 0.3-2 0.7-2.9 0.2-0.5 0.6-2 1.3-2.1 0.4 1.6 0.9 3.2 1.2 4.9 0.2 1.1 0.4 2.8 1.8 2.9 0.5 0 1.3 0 1.8-0.1 1-0.3 1.3-1.6 1.5-2.4 0.5-1.7 0.3-4.9 1.8-6.1 0.5 2 0.7 4.1 0.6 6.1-0.1 1.9-0.4 5.2-2.7 5.5-0.9 0.1-1.8 0.1-2.7 0.2-1.1 0.1-2.1 0.1-3.1-0.5-1-0.7-1.1-2.4-1.7-3.4-0.3-0.6-0.8-1.2-0.7-1.9 0.2 0 0.2 0.1 0.2 0.2"/>
 <path class="st2" d="m58.1 54.8c0.6-3.7 0.2-9.3 3.5-10.3 2.8-0.9 5.9-1.6 8.8-1.7 1.7-0.1 3.4 0.6 5.2 0.7s3.5 0.6 5.2 0.7c0.9 0 2.3 0.2 3 1 0.9 1 0.5 2.9 0.9 4.2-1-2.1-4.4-2.7-6.2-3-3.1-0.4-6.1 0.1-9.2 0.5-2 0.3-5.2-0.2-6.9 1.3-1 1-1.9 3.2-2.6 4.6-0.5 1.1-1.1 3.4-1.9 4-0.6-2 0.5-5 0.6-7"/>
 <path class="st26" d="m69.6 20.5c-2.1-0.4-3.4-0.5-4.6 0.7-0.7 0.8-1.1 1.7-1.6 2.6-0.9 1.6-2.1 4.2-4.7 4.8 3.4-0.7 5.8-2.9 7.8-4.7 1.1-1 1.5-2.7 3.8-2.6 2.4 0.1 3 2.1 3.8 3.3 0.9 1.4 2.6 1.7 4.6 2-1.9 0-0.7-2.9-0.7-3.6 0-1.3-0.8-2.6-2.7-3.1-1.6-0.4-2.9 1.1-4.2 0.6-1.1-0.4-0.6-1.2-2.2-0.9-1.2 0.2-1.8 1.2-2.9 1.3v-0.3"/>
 <path class="st27" d="m65.3 26.4c0 1.1 1.5 2.2 2.6 2.3 1 0 2.4-0.8 3.3-1.3 2.4-1.4 2.6-6 2.5-8.4-0.3-5.2-0.7-10.8-2.3-15.6-1.7 1.6-2.3 5.6-3 7.8-0.8 2.5-1.4 5.1-1.9 7.7-0.4 2.1-1.1 4-1.3 6.1-0.2 2 0.6 2.9 2.4 3.8 0.1 0 0.2-0.1 0.1-0.3"/>
 <path class="st2" d="m72.2 23.9c0.8-1.4 1-2.8 0.7-4.4-1.3 0.9-1.9 2.2-3.5 2.9-1.1 0.5-2.4 1.1-3.4 0.2-0.1 1.1-0.7 2.2 0.6 2.9 1 0.6 2.3 0.4 3.2-0.2 0.8-0.5 1.8-1.3 2.5-2 0.7-0.6 0.6-2.1 0.4-2.7"/>
 <path class="st2" d="m66.8 19.8c0.4-1.4 0.6-2.9 0.9-4.3 0.9 2 4.7-1.5 5-2.8 0.3 1.1 0.2 2.1 0.2 3.2 0 0.6 0.1 0.8-0.1 1.2-0.4 0.8-1.4 1.3-2.2 1.7-0.8 0.3-2 0.4-2.8 0.2-1.4-0.4-0.5-1.4-0.6-2.6"/>
 <path class="st2" d="m68.7 12.1c0.4-0.8 0.5-1.7 0.7-2.6 0.1-0.6 0.2-0.6 0.5-1.1 0.7-0.9 1.3-1.6 1.9-2.5-0.1 1.3 0.6 2.7 0.8 4 0.1 0.8 0.1 0.9-0.7 1s-1.3-0.2-1.9-0.4c-0.4 0.8-1.1 2.6-0.8 3.6-0.9-1.1-0.2-3.7 0.2-4.9v0.2"/>
 <path class="st28" d="m84.7 61.2c-0.8 1.4-2.5 2.8-3.7 4-1.3 1.3-3.1 1.9-4.9 2.4-3.8 0.9-8 0.5-11.7 1.6 0.2 0.5 0.7 1 1.3 1.4 1.9-0.1 3.9-0.1 5.8 0 1.7 0.1 3.4 0.4 5.1-0.2 2.1-0.7 4.5-3 6-4.6 0.6-0.6 1.4-1.4 1.8-2.1 0.6-1 0.3-1.5 0.3-2.5z"/>
 <path class="st29" d="m65 70c4.5-0.2 9.8-1 14.2-2.1"/>
 <path class="st29" d="m75.4 67.7c0.2 0.8 0.3 1.8-0.3 2.5"/>
 <path class="st29" d="m76.8 67.6c0.2 0.6 0.1 1.3-0.1 1.9"/>
 <path class="st25" d="m75.3 62.5c-0.7-1.1-0.6-2.8-0.1-4 0.3-0.7 0.8-1.8 1.7-1.8 2.2-0.1 2.7 4.2 0.4 4.4-0.3 0-0.4-0.2-0.8 0-0.2 0.1-0.4 0.4-0.5 0.5-0.4 0.6-0.5 1.3-1 1.8v-1.3 0.2"/>
 <path class="st25" d="m64.4 63.6c0.7-1.1 0.6-2.8 0.1-4-0.3-0.7-0.8-1.8-1.7-1.8-2.2-0.1-2.7 4.2-0.4 4.4 0.3 0 0.4-0.2 0.8 0 0.2 0.1 0.4 0.4 0.5 0.5 0.4 0.6 0.5 1.3 1 1.8v-1.3 0.2"/>
 <path class="st30" d="m67.5 32.5c0.6 3.5-1.4 10.9 1.6 11.1 1.3 0.1 2.4 0 3.7-0.2 1.1-0.1 2.6 1.2 3.5-0.9 0.4-0.9 0.6-2.6 0.8-3.8 0.2-0.9 0.7-4.2 0.9-3.8"/>
 <path class="st30" d="m71.9 43.3c-0.4-4.3 0-7.4 0.1-11.5"/>
 <path d="m71.5 32.3c-0.1 3.4-0.3 6.8 0.2 10.2 0 0.3 1 0.9 1.1 0.5 0.3-0.8 0.4-1.6 0.5-2.4-0.4-0.1-0.8-0.3-1.1-0.4v0.2c0 0.4 1.1 0.9 1.1 0.4 0.1-0.5 0.1-1 0.2-1.5-0.4-0.2-0.8-0.3-1.1-0.5-0.1 1.2-0.4 2.4-0.7 3.6-0.1 0.4 1 0.9 1.1 0.6 0.3-1.2 0.6-2.5 0.7-3.7 0-0.4-1.1-0.8-1.1-0.5-0.1 0.5-0.2 1.1-0.3 1.6 0.4 0.1 0.8 0.3 1.1 0.4v-0.2c0-0.4-1.1-0.9-1.1-0.4-0.1 0.8-0.2 1.5-0.5 2.2 0.4 0.2 0.8 0.3 1.1 0.5-0.5-3.4-0.3-6.8-0.2-10.2 0.2-0.4-0.9-0.9-1-0.4z"/>
 <path d="m71.5 33.7c-0.1 1.6-0.1 3.3-0.1 4.9 0 0.5 0.2 3.8-0.4 4 0.3 0 0.6 0.1 0.8 0.1-0.2-0.2-0.4-0.5-0.6-0.8s-1.3-0.3-1.2-0.2c0.2 0.3 1.8 2.2 2.2 1.1 0.4-1 0.3-2.2 0.3-3.3 0-1.8 0.1-3.7 0.2-5.5 0-0.4-1.2-0.6-1.2-0.3z"/>
 <path d="m69 43c-1.2-3.2-0.8-6.9-0.6-10.2h-0.5c0.3 0.1-0.2 2.8-0.2 3.2-0.2 1.5-0.2 3-0.3 4.4 0 0.3 1 0.9 1.1 0.6 0.1-2.1 0.3-4.2 0.5-6.3 0.1-1.1-0.1-1.9-1.1-2.4-0.1-0.1-0.5-0.3-0.5 0-0.1 3.4-0.6 7.1 0.7 10.4 0 0.1 1 0.7 0.9 0.3z"/>
 <path class="st31" d="m81.5 32.6c-1.2 2.3-2.1 4.8-3.4 7.1-0.6 1.1-3.5 4.9-0.9 5.7 1.4 0.5 3.4-1.8 4-2.9 0.8-1.5 1.2-3.2 1.1-4.9 0-0.9-1.2-4.1-0.8-5z"/>
 <path class="st31" d="m61.1 32.6c1.2 2.3 2.1 4.8 3.4 7.1 0.6 1.1 3.5 4.9 0.9 5.7-1.4 0.5-3.4-1.8-4-2.9-0.8-1.5-1.2-3.2-1.1-4.9 0-0.9 1.3-4.1 0.8-5z"/>
 <path class="st32" d="m73.9 43.4c1.3-2.6 2.2-5.1 3.4-7.8 0.7-1.7 1.9-5 3.3-6.1 0.8 1.4 2.9 2.4 3.4 3.8-0.9 0.2-2.4 0.4-3.1 1-0.9 0.8-1.4 2.5-2 3.5-0.7 1.2-1.5 2.3-2.2 3.5-0.5 0.9-0.7 2.2-1.6 2.7-0.6-0.3-1.2-0.4-1.7-0.7 0.6-0.7 1-1.7 1.7-2.1"/>
 <path class="st32" d="m67.7 42.7c-1.3-2.6-2.2-5.1-3.4-7.8-0.7-1.7-1.9-5-3.3-6.1-0.8 1.4-2.9 2.4-3.4 3.8 0.9 0.2 2.4 0.4 3.1 1 0.9 0.8 1.4 2.5 2 3.5 0.7 1.2 1.5 2.3 2.2 3.5 0.5 0.9 0.7 2.2 1.6 2.7 0.6-0.3 1.2-0.4 1.7-0.7-0.6-0.7-1-1.7-1.7-2.1"/>
</svg>
