<?xml version="1.0" encoding="UTF-8"?>
<!DOCTYPE svg  PUBLIC '-//W3C//DTD SVG 1.1//EN'  'http://www.w3.org/Graphics/SVG/1.1/DTD/svg11.dtd'>
<svg width="297mm" height="210mm" clip-rule="evenodd" fill-rule="evenodd" image-rendering="optimizeQuality" shape-rendering="geometricPrecision" text-rendering="geometricPrecision" version="1.1" viewBox="0 0 29700 21000" xml:space="preserve" xmlns="http://www.w3.org/2000/svg" xmlns:xlink="http://www.w3.org/1999/xlink">
 <defs>
  <style type="text/css">
    .str4 {stroke:#008EDB;stroke-width:8.47}
    .str1 {stroke:#4E7800;stroke-width:8.47}
    .str6 {stroke:#74AB13;stroke-width:8.47}
    .str8 {stroke:#FEFEFE;stroke-width:16.93}
    .str5 {stroke:#4E7800;stroke-width:16.93}
    .str0 {stroke:#898989;stroke-width:25.4}
    .str3 {stroke:#7BA7C7;stroke-width:33.87}
    .str2 {stroke:#FEFEFE;stroke-width:67.73}
    .str7 {stroke:#9FF500;stroke-width:67.73}
    .fil32 {fill:none}
    .fil2 {fill:#FEFEFE}
    .fil20 {fill:#102C44}
    .fil24 {fill:#74AB13}
    .fil11 {fill:#81C700}
    .fil21 {fill:#8BD600}
    .fil30 {fill:#8EDB00}
    .fil3 {fill:#99CD34}
    .fil23 {fill:#99EB00}
    .fil13 {fill:#B3BEC4}
    .fil1 {fill:#2B2A29;fill-rule:nonzero}
    .fil10 {fill:#898989;fill-rule:nonzero}
    .fil28 {fill:#FEFEFE;fill-rule:nonzero}
    .fil7 {fill:#254BB6;fill-rule:nonzero}
    .fil8 {fill:#3AE6FA;fill-rule:nonzero}
    .fil9 {fill:#44B438;fill-rule:nonzero}
    .fil25 {fill:#79B016;fill-rule:nonzero}
    .fil31 {fill:#83BD18;fill-rule:nonzero}
    .fil27 {fill:#97E800;fill-rule:nonzero}
    .fil26 {fill:#9ADE1D;fill-rule:nonzero}
    .fil29 {fill:#9FF500;fill-rule:nonzero}
    .fil4 {fill:#D657DC;fill-rule:nonzero}
    .fil5 {fill:#DF171A;fill-rule:nonzero}
    .fil6 {fill:#FBF51B;fill-rule:nonzero}
    .fil15 {fill:url(#av)}
    .fil19 {fill:url(#aw)}
    .fil12 {fill:url(#ay)}
    .fil0 {fill:url(#az)}
    .fil16 {fill:url(#a)}
    .fil17 {fill:url(#ba)}
    .fil18 {fill:url(#bb)}
    .fil14 {fill:url(#bc)}
    .fil22 {fill:url(#bd)}
  </style>
    <mask id="bk">
  <linearGradient id="bl" x1="27228" x2="27134" y1="3994.8" y2="5036.2" gradientUnits="userSpaceOnUse">
   <stop stop-color="#fff" offset="0"/>
   <stop stop-color="#fff" stop-opacity="0" offset="1"/>
  </linearGradient>
     <rect x="26002" y="4037" width="2359" height="957" fill="url(#bl)"/>
    </mask>
    <mask id="am">
  <linearGradient id="ax" x1="26378" x2="26322" y1="8569.6" y2="9877.7" gradientUnits="userSpaceOnUse">
   <stop stop-color="#fff" offset="0"/>
   <stop stop-color="#fff" stop-opacity="0" offset="1"/>
  </linearGradient>
     <rect x="24794" y="8595" width="3113" height="1258" fill="url(#ax)"/>
    </mask>
     <mask id="be">
  <linearGradient id="bf" x1="2397.1" x2="2632.9" y1="1661.6" y2="3777.5" gradientUnits="userSpaceOnUse">
   <stop stop-color="#fff" offset="0"/>
   <stop stop-color="#fff" stop-opacity="0" offset="1"/>
  </linearGradient>
      <rect x="709" y="1770" width="3611" height="1899" fill="url(#bf)"/>
     </mask>
     <mask id="bg">
  <linearGradient id="bh" x1="2402.1" x2="2640.6" y1="1649.1" y2="3789.9" gradientUnits="userSpaceOnUse">
   <stop stop-color="#fff" offset="0"/>
   <stop stop-color="#fff" stop-opacity="0" offset="1"/>
  </linearGradient>
      <rect x="709" y="1757" width="3624" height="1924" fill="url(#bh)"/>
     </mask>
    <mask id="bi">
  <linearGradient id="bj" x1="2413.9" x2="2849.1" y1="2635.8" y2="5290.2" gradientUnits="userSpaceOnUse">
   <stop stop-color="#fff" offset="0"/>
   <stop stop-color="#fff" stop-opacity="0" offset="1"/>
  </linearGradient>
     <rect x="17" y="1666" width="5229" height="4595" fill="url(#bj)"/>
    </mask>
    <mask id="bm">
  <linearGradient id="bn" x1="10937" x2="10992" y1="3515.1" y2="5469.9" gradientUnits="userSpaceOnUse">
   <stop stop-color="#fff" offset="0"/>
   <stop stop-color="#fff" stop-opacity="0" offset="1"/>
  </linearGradient>
     <rect x="7964" y="3290" width="6001" height="2405" fill="url(#bn)"/>
    </mask>
     <mask id="bo">
  <linearGradient id="bp" x1="28065" x2="27987" y1="1683" y2="3533.7" gradientUnits="userSpaceOnUse">
   <stop stop-color="#fff" offset="0"/>
   <stop stop-color="#fff" stop-opacity="0" offset="1"/>
  </linearGradient>
      <rect x="26332" y="1481" width="3388" height="2256" fill="url(#bp)"/>
     </mask>
     <mask id="bq">
  <linearGradient id="br" x1="28055" x2="27978" y1="1691.7" y2="3525" gradientUnits="userSpaceOnUse">
   <stop stop-color="#fff" offset="0"/>
   <stop stop-color="#fff" stop-opacity="0" offset="1"/>
  </linearGradient>
      <rect x="26313" y="1461" width="3408" height="2294" fill="url(#br)"/>
     </mask>
    <mask id="bs">
  <linearGradient id="bt" x1="2101.2" x2="2350.5" y1="8987.1" y2="10234" gradientUnits="userSpaceOnUse">
   <stop stop-color="#fff" offset="0"/>
   <stop stop-color="#fff" stop-opacity="0" offset="1"/>
  </linearGradient>
     <rect x="937" y="9058" width="2578" height="1105" fill="url(#bt)"/>
    </mask>
    <mask id="bu">
  <linearGradient id="al" x1="19339" x2="19154" y1="1377.4" y2="2790.1" gradientUnits="userSpaceOnUse">
   <stop stop-color="#fff" offset="0"/>
   <stop stop-color="#fff" stop-opacity="0" offset="1"/>
  </linearGradient>
     <rect x="17558" y="1360" width="3377" height="1448" fill="url(#al)"/>
    </mask>
    <mask id="an">
  <linearGradient id="ao" x1="3642.6" x2="3982.9" y1="11430" y2="12600" gradientUnits="userSpaceOnUse">
   <stop stop-color="#fff" offset="0"/>
   <stop stop-color="#fff" stop-opacity="0" offset="1"/>
  </linearGradient>
     <rect x="2791" y="11607" width="2043" height="816" fill="url(#ao)"/>
    </mask>
    <mask id="ap">
  <linearGradient id="aq" x1="18109" x2="18177" y1="12395" y2="13433" gradientUnits="userSpaceOnUse">
   <stop stop-color="#fff" offset="0"/>
   <stop stop-color="#fff" stop-opacity="0" offset="1"/>
  </linearGradient>
     <rect x="17020" y="12433" width="2245" height="963" fill="url(#aq)"/>
    </mask>
    <mask id="ar">
  <linearGradient id="as" x1="14258" x2="14405" y1="9054.3" y2="10815" gradientUnits="userSpaceOnUse">
   <stop stop-color="#fff" offset="0"/>
   <stop stop-color="#fff" stop-opacity="0" offset="1"/>
  </linearGradient>
     <rect x="12341" y="9137" width="3980" height="1595" fill="url(#as)"/>
    </mask>
    <mask id="at">
  <linearGradient id="au" x1="24934" x2="25006" y1="11816" y2="12513" gradientUnits="userSpaceOnUse">
   <stop stop-color="#fff" offset="0"/>
   <stop stop-color="#fff" stop-opacity="0" offset="1"/>
  </linearGradient>
     <rect x="23848" y="11862" width="2245" height="606" fill="url(#au)"/>
    </mask>
  <linearGradient id="av" x1="19834" x2="19834" y1="7633.4" y2="6458.7" gradientUnits="userSpaceOnUse">
   <stop stop-color="#BBBECF" offset="0"/>
   <stop stop-color="#DCE9F2" offset="1"/>
  </linearGradient>
  <linearGradient id="aw" x1="18936" x2="18936" y1="6245.1" y2="6802.6" gradientUnits="userSpaceOnUse">
   <stop stop-color="#86B2D1" offset="0"/>
   <stop stop-color="#89BEE6" offset="1"/>
  </linearGradient>
  <linearGradient id="ay" x1="24569" x2="24569" y1="17183" y2="20252" gradientUnits="userSpaceOnUse">
   <stop stop-color="#27BDFC" offset="0"/>
   <stop stop-color="#1499E4" offset="1"/>
  </linearGradient>
  <linearGradient id="az" x1="14860" x2="14860" y1="-298.85" y2="20701" gradientUnits="userSpaceOnUse">
   <stop stop-color="#2E7EFF" offset="0"/>
   <stop stop-color="#D1F7FF" offset="1"/>
  </linearGradient>
  <linearGradient id="a" x1="18864" x2="21118" y1="7019.4" y2="7985.2" gradientUnits="userSpaceOnUse">
   <stop stop-color="#D6E5F8" offset="0"/>
   <stop stop-color="#B5BCC4" offset="1"/>
  </linearGradient>
  <linearGradient id="ba" x1="21560" x2="22360" y1="6051.6" y2="6935.2" gradientUnits="userSpaceOnUse">
   <stop stop-color="#0C2D4E" offset="0"/>
   <stop stop-color="#1A2C44" offset="1"/>
  </linearGradient>
  <linearGradient id="bb" x1="21519" x2="22584" y1="6884.6" y2="7341.1" gradientUnits="userSpaceOnUse" xlink:href="#a">
  </linearGradient>
  <linearGradient id="bc" x1="19875" x2="20799" y1="6761.4" y2="6139.9" gradientUnits="userSpaceOnUse">
   <stop stop-color="#D0DEEB" offset="0"/>
   <stop stop-color="#C5D5E4" offset="1"/>
  </linearGradient>
  <radialGradient id="bd" cx="25244" cy="19471" r="33.07" gradientUnits="userSpaceOnUse">
   <stop stop-color="#20AFF3" offset="0"/>
   <stop stop-color="#0085CC" offset="1"/>
  </radialGradient>
 </defs>
   <polygon class="fil0" points="10 20701 29710 20701 29710 -299 10 -299"/>
   <path class="fil1" d="m20 20691h29680v-20980h-29680v20980zm-10-20990h29700v21000h-29700v-21000z"/>
   <path class="fil2 str0" d="m26258 4900c-102-10-187-60-223-119s-23-127 30-165 146-47 167-94c21-48-29-135 4-223s149-178 250-174 188 103 236 117c47 14 55-56 85-109s84-90 152-69 151 100 212 101 101-76 141-103 81-4 103 28c22 33 26 75 54 61s79-85 145-99 146 29 170 85-8 126 11 143 88-18 154-29 127 2 168 29 60 68 63 113-10 94-24 132c-13 37-27 63-3 71 23 9 84 0 129 30 46 30 77 98 61 160-16 63-79 120-150 123-70 3-148-48-212-51s-115 41-181 76-146 61-227 41c-82-20-165-86-232-94-67-9-117 39-180 39-63-1-137-50-213-56-75-6-151 33-202 48s-76 8-97-7-38-36-105-31-186 36-287 27z" mask="url(#bk)"/>
   <path class="fil3 str1" d="m5036 14349l-40 71 299 99 12 127c-92 63-165 48-262 75-19 5-37 11-55 17h624c-66-18-126-41-162-89l30-129c-171 85-28 8-88 97-43 63 57 18-36 56l-24-101c-2-39 3-56 7-91 59-4 100 0 158-20l103-68c-21-17-20-15-57-35-24-13-28-13-54-26s-36-15-71-47l122-63c-46-57-25-36-130-82l54-105c-133-33-95-92-97-98-1-4-3-11-4-15-1-3-5-11-6-14l-19-79c-9-91-22-73-32-89-83 67-46 90-53 126l-7 23c-34 87-61 34 3 112l-115 61c41 55 45 33 58 89l-143 72 116 82c-91 57-15 41-131 44z"/>
    <path class="fil4" d="m17 5817c2191 831 4161 2081 5801 3645 2263 2160 3898 4919 4622 8006h-653c-711-2908-2266-5506-4405-7548-1523-1453-3343-2624-5365-3424v-680z"/>
    <path class="fil5" d="m17 2926c3089 724 5850 2247 8029 4326 2791 2663 4627 6238 4975 10217h-637c-346-3799-2106-7212-4774-9758-2064-1970-4673-3421-7592-4132v-653z"/>
    <path class="fil6" d="m17 3501c2899 764 5490 2236 7558 4208 2684 2561 4484 5965 4928 9760h-639c-441-3615-2165-6857-4726-9301-1953-1863-4392-3262-7121-4010v-657z"/>
    <path class="fil7" d="m17 5209c2362 827 4481 2135 6227 3801 2373 2265 4056 5188 4721 8459h-648c-655-3091-2259-5854-4509-8e3 -1629-1555-3598-2786-5790-3586v-674z"/>
    <path class="fil8" d="m17 4663c2531 815 4799 2178 6648 3942 2471 2357 4193 5429 4797 8863h-645c-597-3254-2241-6165-4589-8404-1733-1653-3849-2942-6211-3733v-668z"/>
    <path class="fil9" d="m17 4085c2713 794 5140 2213 7098 4080 2576 2458 4338 5692 4868 9303h-642c-525-3432-2210-6504-4663-8845-1842-1758-4118-3103-6661-3877v-662z"/>
   <path class="fil3 str1" d="m1762 14178l44-82c102 2 60 42 172-10-15-70-32-47-20-119 1-3 4-10 4-13l7-25c13-78-21-46 5-86-76-136-22-163-56-274-17 24-14 20-31 50l-37 63c-22 33-22 31-48 66l-135 184c-3 3-8 9-11 12l-48 36c-2 1-9 3-11 7 74 68 81 67 158 85l7 106z"/>
   <path class="fil3 str1" d="m4380 14656c-81-49 18-23-87-37l-102 3c-80 185 75 443 292 192-29-45-63-109-103-157z"/>
   <path class="fil2 str0" d="m25129 9733c-135-13-248-79-296-157s-31-168 39-218 193-62 221-125-38-178 5-295 197-236 331-231c134 6 249 136 312 155s73-74 113-144c40-71 111-119 201-92 90 28 200 133 281 134s134-101 187-136c53-36 107-6 137 38 30 43 35 99 71 80 37-19 105-112 192-130s193 38 225 112-10 166 15 189 117-24 203-38c87-15 168 3 222 38 54 36 79 90 83 149 4 60-14 125-31 174-18 49-35 83-4 95 31 11 111 0 171 40 61 39 102 129 81 212s-105 158-198 163c-93 4-195-63-280-67s-153 55-239 101c-87 46-193 80-301 54s-219-113-307-125c-89-12-155 52-238 51s-182-67-281-74c-100-7-200 44-267 64s-100 10-128-9-50-47-139-41c-89 7-246 48-380 35z" mask="url(#am)"/>
    <path class="fil2" d="m911 3579c-76-27-140-61-192-102v-1448c114-8 260 109 348 122 100 15 124-104 235-202s309-174 453-117c144 58 235 249 319 281s162-96 283-192c120-96 283-160 441-137s311 133 403 221 124 153 201 134 198-124 324-124c126-1 256 101 282 198 25 97-55 188-27 258s164 120 247 240 113 310 44 449c-70 139-238 227-453 278s-475 66-1038 127-1429 168-1870 14z" mask="url(#be)"/>
    <path class="fil10" d="m907 3591c-74-26-136-59-188-98v-32c53 42 118 78 196 106 413 145 1206 58 1766-4l98-11c154-17 286-30 401-42 301-30 480-48 635-85 111-26 209-63 288-111 71-43 125-96 157-160 32-65 42-141 35-216-8-81-36-160-78-220-42-61-99-103-147-140-47-35-87-65-102-102-15-38-3-80 11-124 13-43 27-89 15-135-12-47-51-96-103-132-49-34-108-57-166-57-77 1-153 42-218 77-39 21-73 40-102 47-65 16-100-20-155-79-17-18-35-37-57-58-51-49-121-104-201-148-61-34-128-60-195-70-73-11-147-2-217 20-78 24-152 65-214 115-37 29-69 62-100 91-72 71-129 128-195 103-40-15-79-61-123-112-55-64-118-138-196-169-64-26-139-23-213-5-86 22-169 68-228 119-40 35-69 74-94 107-46 62-81 108-151 98-38-6-85-29-135-54-70-35-148-73-211-68v-25c70-4 150 35 223 71 48 24 93 46 127 51 55 8 86-33 127-88 26-35 56-74 98-111 61-54 148-101 238-124 78-20 159-22 228 6 84 34 150 110 206 176 42 49 79 92 113 105 51 19 103-33 169-97 31-30 64-63 102-93 64-51 141-94 222-119 74-23 152-32 229-21 71 10 140 38 204 73 81 45 153 102 206 152 23 21 41 41 58 59 49 52 80 85 131 72 26-7 60-25 97-45 67-36 147-79 230-80 64 0 128 24 181 61 56 40 99 94 113 146 14 53-1 103-16 149-12 40-24 77-12 108s49 59 93 92c50 38 108 82 153 146 44 64 74 147 82 232 8 79-3 161-38 230-34 69-92 125-166 171-81 49-182 87-295 114-156 37-336 55-638 86-114 11-245 25-401 42l-98 11c-563 62-1359 149-1777 2z" mask="url(#bg)"/>
   <path class="fil2" d="m149 1686c250 46 592 99 771 258s196 423 285 488 252-67 470-102 491 28 712 150c221 123 391 305 458 521 66 216 30 465 129 516 100 51 336-97 594-160s539-41 801 57c263 98 507 271 662 521s219 576 214 840c-4 264-77 465-213 658s-335 377-557 477c-221 100-465 114-664 107s-354-37-494-81-266-103-346-58c-81 46-117 196-293 292-177 96-494 136-714 11s-341-417-485-417-310 292-551 375-556-41-822-126c-30-10-60-19-89-28v-4320c41 3 85 12 132 20z" mask="url(#bi)"/>
   <path class="fil2" d="m8939 5662c-710-50-914-171-963-362-49-190 56-450 228-523s410 39 473-6c63-46-51-250 30-410 80-160 354-275 528-286s249 83 254 17-60-292 15-465c76-173 292-293 509-327s436 20 554 122c119 103 138 256 174 299s88-23 184-73 236-85 336-54c100 32 162 130 223 105 62-24 123-171 248-270 125-98 313-148 478-108s308 170 379 309c71 138 72 285 71 391s-3 172 74 167c77-4 232-79 450-69s498 106 651 303 179 494 24 721c-155 228-490 385-817 461s-645 71-1411 79c-767 8-1983 28-2693-22z" mask="url(#bm)"/>
    <path class="fil2" d="m29710 1884c-61-4-181 27-261 66-85 41-126 92-176 27-51-65-111-245-234-353s-309-143-462-131c-153 13-275 73-373 151s-172 172-201 258-12 164-29 189-67-2-138-17-162-19-238-8c-76 10-137 34-186 76s-86 103-103 169-14 137-19 180c-5 44-19 61-83 54s-179-37-315-46c-137-9-295 3-396 65s-145 175-153 269 19 168 66 235 115 128 197 172c83 44 180 71 259 51 78-19 137-85 121-67s-107 119-86 223 154 210 289 245 272-3 361-65 132-150 159-206c28-56 41-79 55-56 14 24 27 94 61 154s88 109 164 145 174 60 273 62c100 3 201-16 280-62s137-121 159-137c22-17 8 24 45 70 36 46 122 99 223 115 100 16 215-4 302-61s146-149 175-187c30-38 30-21 74 8s133 69 178 91c5 2 9 5 13 6v-1683z" mask="url(#bo)"/>
    <path class="fil10" d="m29710 1904c-26-2-66 4-109 14-49 12-102 30-144 50-19 9-35 19-50 27-62 36-100 58-150-6-18-23-36-58-58-100-41-79-95-182-174-251-55-48-124-82-196-102-83-24-172-30-251-24-75 6-141 24-201 50s-113 59-161 97-90 80-124 123c-33 42-57 85-71 126-15 45-17 89-18 123-1 31-2 55-13 70-20 30-54 20-103 6-17-5-35-10-55-14-35-7-74-12-114-13s-81 0-117 5-69 13-98 25-54 27-77 47-43 44-60 71-29 57-37 88c-11 43-13 89-15 127-1 19-2 37-3 51-3 27-10 47-27 59-16 12-40 16-77 12-24-2-54-8-89-15-61-11-139-26-225-32-73-5-153-4-226 8-60 10-116 27-159 54s-75 63-98 103c-28 49-42 103-47 151-4 44 0 84 11 120 11 37 29 70 51 102 23 33 51 64 84 93 31 27 67 52 107 73 42 22 88 40 134 49 39 8 78 9 112 1 57-14 104-56 114-65l2-2h1c22-23 47-35 64-38 22-11 25-9 18 2 11 7 0 30-57 66-8 8-33 37-54 75-20 37-37 84-27 130 9 46 44 94 92 135 51 43 117 78 183 95 61 16 122 16 178 6 64-11 122-36 167-68 83-58 124-140 151-194l2-5c15-29 26-50 35-62 21-24 37-24 53 5 6 11 12 28 19 49 10 31 23 70 42 105 16 28 37 54 63 77s56 43 92 60c37 18 80 33 126 43 45 10 92 16 139 18 50 1 101-3 148-14 44-10 85-25 121-46 54-32 98-78 127-107 12-13 22-23 30-29 17-13 29-12 39 2 4 6 6 12 9 21 3 12 9 31 24 51 18 23 49 47 88 67 35 18 77 33 122 40 49 8 101 7 152-4 49-10 96-28 136-54 70-45 122-116 154-160 7-9 13-17 17-23 35-45 43-39 77-13 6 4 13 10 22 16 34 22 94 50 140 72 15 7 29 14 36 18l2 1 3 1v42c-6-2-13-5-20-9l-2-1c-12-6-24-12-36-17-47-23-109-52-144-75-10-6-18-12-25-18-10-7-12-9-23 6-5 7-11 14-16 22-34 46-88 120-164 169-45 29-96 49-150 60-55 11-112 12-166 4-49-8-95-24-134-44-44-23-80-51-101-78-17-22-24-42-29-56-4 4-9 9-14 15-30 31-76 79-135 114-40 23-85 40-133 51-51 11-104 16-158 14-50-1-100-8-147-18-49-11-94-27-134-46-39-19-73-41-101-66-29-26-53-55-71-87-21-38-35-80-45-112-4-13-8-25-11-33-6 10-15 26-25 46l-2 5c-29 57-72 145-163 208-49 35-113 62-182 74-62 11-128 11-195-6-72-18-143-56-198-103-54-46-94-101-105-157s7-111 30-155c-13 6-27 11-42 15-40 10-84 9-128 0-49-10-99-29-144-53-42-22-80-49-114-78-35-30-65-64-90-100-25-35-44-73-56-113-12-41-17-85-13-135 5-54 21-113 51-167 26-45 62-87 111-117 48-30 109-49 173-59 76-12 159-14 234-9 88 6 167 21 230 32 35 6 64 12 86 14 27 3 42 1 50-4 7-5 9-16 11-33 2-14 2-30 3-48 2-40 4-88 16-135 9-35 23-68 42-98 18-30 41-58 67-80 26-23 55-40 88-53 32-13 68-22 108-27 39-5 82-7 124-5s84 6 121 14c22 5 41 10 58 15 33 9 56 16 60 10 4-7 5-26 6-50 1-36 3-83 20-134 15-45 42-92 77-137s80-90 130-130 106-75 170-102 134-46 213-53c84-7 177 0 265 25 78 22 152 58 211 110 85 74 140 180 183 262 21 39 38 73 54 94 29 37 56 21 100-4 16-9 33-19 52-28 44-21 100-40 152-53 45-11 87-17 118-15v39z" mask="url(#bq)"/>
   <path class="fil2" d="m1228 10162c-131-6-251-70-282-175s28-249 107-305 180-22 230-46 50-105 111-179 183-142 265-165 125-2 169-42 91-142 191-177c101-35 256-4 336 32 80 35 84 75 151 68s195-60 290-56c94 3 154 63 211 120 56 56 109 109 205 139 96 31 235 39 283 137s5 286-72 404-187 167-295 181-213-6-292-36-132-69-248-46-296 108-464 126c-169 18-326-30-476-28-149 2-290 55-420 50z" mask="url(#bs)"/>
   <path class="fil11" d="m16 14500c235-216 541-372 931-405 516-44 1180 126 1615 451s642 805 825 910c183 106 341-163 673-375 333-212 839-367 1298-351s869 202 1161 390 466 378 664 307 419-403 903-709c483-306 1229-585 1893-519s1246 476 1561 821 364 625 490 631c127 6 333-263 660-460 328-196 777-320 1244-269s952 276 1234 527c281 252 359 530 524 622s418-3 719-209c300-206 648-522 1020-696s767-206 1170-40 814 530 1257 696 917 134 1291-110 648-700 1314-942c666-241 1724-268 2410-32 685 236 998 735 1265 984s488 249 694-51 395-901 622-1258c227-356 491-468 822-456 331 11 727 146 991 455 224 263 351 651 444 784v5504h-29695v-6201z"/>
   <path class="fil2" d="m17939 2807c-171-7-329-92-370-229s36-326 140-399 235-29 301-60 66-137 146-235c80-97 240-186 348-216s164-2 222-55 119-186 251-232 336-5 441 42c105 46 110 98 198 89 87-9 256-79 380-74s202 83 276 157 143 143 268 183 307 51 370 179 7 374-94 529c-100 155-245 218-386 237s-279-8-383-47c-103-39-173-91-325-61s-387 141-608 165-428-40-623-37-380 72-551 65z" mask="url(#bu)"/>
   <path class="fil2" d="m3005 12352c-89-8-164-52-196-104s-20-111 26-145c46-33 128-41 146-82 19-42-25-118 3-195 29-77 130-156 219-153 89 4 165 90 206 102s48-49 75-95c27-47 73-79 133-61s132 88 186 89 88-66 124-90c35-24 71-4 90 25 20 29 23 66 47 53 24-12 69-74 127-86s128 25 149 74-7 110 10 125c16 15 77-16 135-25 57-10 111 2 147 25 36 24 53 59 55 99 3 39-9 82-21 115s-23 55-3 63c21 8 73 0 113 26s67 85 53 140-69 105-131 108-129-42-185-45-101 36-158 67-127 53-199 35-145-75-203-83c-59-8-103 34-157 34-55-1-120-44-186-49s-132 29-177 42c-44 14-66 7-85-6-18-13-33-31-92-27s-162 32-252 23z" mask="url(#an)"/>
   <path class="fil2" d="m17273 13395c-114-5-219-61-246-152s24-217 93-265 157-19 200-40c44-21 44-91 97-156s159-124 231-144 109-2 147-37c39-35 79-124 167-154 88-31 223-3 293 28s73 65 131 59 170-52 252-49 134 55 183 104 95 95 178 121c83 27 204 34 246 119s4 249-62 352c-67 103-163 145-257 158-94 12-186-5-254-31-69-26-115-60-216-40s-257 94-404 109c-147 16-284-26-414-24s-252 48-366 43z" mask="url(#ap)"/>
   <path class="fil2" d="m12988 10711c-471-33-606-114-639-240s37-298 151-347 272 26 314-4-34-166 20-272c53-106 235-182 350-190 116-7 165 55 168 11s-40-194 10-309 194-194 338-217c144-22 289 13 368 81s92 170 115 198c24 29 58-15 122-48s156-56 223-36c67 21 107 86 148 70s82-114 165-179 208-98 317-72c110 27 204 113 251 205s48 189 47 259-2 114 49 111 154-52 299-46c144 7 330 70 432 201 101 130 119 328 16 479s-325 255-542 306-428 47-936 52c-509 5-1315 19-1786-15z" mask="url(#ar)"/>
   <rect class="fil12 str2" x="21460" y="17183" width="6218" height="3069"/>
    <ellipse class="fil13" transform="matrix(.80942 -.12701 .12701 .80942 17491 6744.6)" rx="73" ry="357"/>
    <polygon class="fil14" points="19738 6572 20490 6668 20936 6233 20367 6233"/>
    <path class="fil15" d="m17890 7344c904 290 2349 149 4336-423-497-89-1241-194-2233-314-992-148-1700-119-2124 87-289 117-426 237-412 358 94 153 239 251 434 293z"/>
    <path class="fil16" d="m20698 7826c-1356-343-1945-569-1767-677h1133c777 401 1165 602 1165 602-97 80-274 106-531 76z"/>
    <path class="fil17" d="m21483 6804l715 113s44-303 239-787c-283-60-601 165-954 674z"/>
    <path class="fil18" d="m21483 6804l715 113c241 163 342 281 342 281 79 93-30 224-203 195-594-258-854-589-854-589z"/>
    <path class="fil19 str3" d="m18437 6540c333 263 666 262 997-1-281-294-614-294-997 1z"/>
    <path class="fil20" d="m17457 7052c56 95 139 171 249 229 109-151 109-322 1-512-170 83-254 177-250 283z"/>
    <ellipse class="fil13" transform="matrix(.80942 -.12701 .12701 .80942 17587 7357.7)" rx="73" ry="357"/>
   <path class="fil21" d="m16 16732c235-142 504 249 957 223 453-25 902-870 1337-656 435 213 894 992 1076 1061 183 69 499-121 832-260s975-241 1417-323c1184-220 3034 678 3068 670 561-133 831-912 1494-890 382 13 1026 290 1341 517s364 411 490 414c127 4 333-173 660-302 328-129 777-210 1244-177 699 50 986 637 1308 755 965 129 1439-364 2189-594 372-114 767-135 1170-26s814 348 1257 457c110 27 223 46 335 57v2491h-20177v-3417z"/>
   <path class="fil2" d="m24101 12467c-114-3-219-38-246-96-27-57 24-137 93-167 69-31 157-12 200-25 44-13 44-57 97-98s159-78 231-91 109-1 147-23c39-22 79-78 167-97s223-2 293 17 73 41 131 37 170-33 252-31 134 35 183 66 95 60 178 76c83 17 204 21 246 75s4 157-62 221c-67 65-163 91-257 99s-186-3-254-20c-69-16-115-38-216-25-101 12-257 59-404 69s-284-17-414-15c-130 1-252 30-366 27z" mask="url(#at)"/>
   <ellipse class="fil22 str4" cx="25207" cy="19493" rx="56" ry="45"/>
   <ellipse class="fil22 str4" cx="24669" cy="19777" rx="89" ry="71"/>
   <ellipse class="fil22 str4" cx="24861" cy="19573" rx="60" ry="48"/>
   <ellipse class="fil22 str4" cx="24100" cy="19456" rx="86" ry="68"/>
   <ellipse class="fil22 str4" cx="24274" cy="19662" rx="68" ry="54"/>
   <ellipse class="fil22 str4" cx="24449" cy="18782" rx="56" ry="45"/>
   <ellipse class="fil22 str4" cx="23912" cy="19066" rx="89" ry="71"/>
   <ellipse class="fil22 str4" cx="24104" cy="18862" rx="60" ry="48"/>
   <ellipse class="fil22 str4" cx="23342" cy="18744" rx="86" ry="68"/>
   <ellipse class="fil22 str4" cx="23517" cy="18950" rx="68" ry="54"/>
   <ellipse class="fil22 str4" cx="25431" cy="19153" rx="56" ry="45"/>
   <ellipse class="fil22 str4" cx="24868" cy="19027" rx="89" ry="71"/>
   <ellipse class="fil22 str4" cx="25086" cy="19232" rx="60" ry="48"/>
   <ellipse class="fil22 str4" cx="24325" cy="19115" rx="86" ry="68"/>
   <ellipse class="fil22 str4" cx="24499" cy="19321" rx="68" ry="54"/>
   <ellipse class="fil22 str4" cx="25812" cy="18541" rx="56" ry="45"/>
   <ellipse class="fil22 str4" cx="25274" cy="18825" rx="89" ry="71"/>
   <ellipse class="fil22 str4" cx="25466" cy="18620" rx="60" ry="48"/>
   <ellipse class="fil22 str4" cx="24705" cy="18503" rx="86" ry="68"/>
   <ellipse class="fil22 str4" cx="24879" cy="18709" rx="68" ry="54"/>
   <ellipse class="fil22 str4" cx="25054" cy="17830" rx="56" ry="45"/>
   <ellipse class="fil22 str4" cx="24517" cy="18114" rx="89" ry="71"/>
   <ellipse class="fil22 str4" cx="24709" cy="17909" rx="60" ry="48"/>
   <ellipse class="fil22 str4" cx="23948" cy="17792" rx="86" ry="68"/>
   <ellipse class="fil22 str4" cx="24122" cy="17998" rx="68" ry="54"/>
   <ellipse class="fil22 str4" cx="26037" cy="18200" rx="56" ry="45"/>
   <ellipse class="fil22 str4" cx="25473" cy="18074" rx="89" ry="71"/>
   <ellipse class="fil22 str4" cx="25691" cy="18280" rx="60" ry="48"/>
   <ellipse class="fil22 str4" cx="24930" cy="18162" rx="86" ry="68"/>
   <ellipse class="fil22 str4" cx="25104" cy="18368" rx="68" ry="54"/>
   <ellipse class="fil22 str4" cx="23700" cy="18562" rx="86" ry="68"/>
   <ellipse class="fil22 str4" cx="23512" cy="18173" rx="89" ry="71"/>
   <ellipse class="fil22 str4" cx="23703" cy="17968" rx="60" ry="48"/>
   <ellipse class="fil22 str4" cx="25245" cy="17558" rx="86" ry="68"/>
   <ellipse class="fil22 str4" cx="23116" cy="18057" rx="68" ry="54"/>
   <ellipse class="fil22 str4" cx="26339" cy="17872" rx="56" ry="45"/>
   <ellipse class="fil22 str4" cx="26564" cy="17532" rx="56" ry="45"/>
   <ellipse class="fil22 str4" cx="26219" cy="17611" rx="60" ry="48"/>
   <ellipse class="fil22 str4" cx="25853" cy="17825" rx="56" ry="45"/>
   <ellipse class="fil22 str4" cx="26078" cy="17484" rx="56" ry="45"/>
   <ellipse class="fil22 str4" cx="25732" cy="17564" rx="60" ry="48"/>
   <ellipse class="fil22 str4" cx="24438" cy="17788" rx="56" ry="45"/>
   <ellipse class="fil22 str4" cx="24662" cy="17448" rx="56" ry="45"/>
   <ellipse class="fil22 str4" cx="24317" cy="17527" rx="60" ry="48"/>
   <ellipse class="fil22 str4" cx="23273" cy="17817" rx="56" ry="45"/>
   <path class="fil3 str1" d="m792 13711l-40 71 299 99 12 127c-92 63-165 48-262 75-19 5-37 11-55 17h624c-66-18-126-41-162-89l30-129c-171 85-28 8-88 97-43 63 57 18-36 56l-24-101c-2-39 3-56 7-91 59-4 100 0 158-20l103-68c-21-17-20-15-57-35-24-13-28-13-54-26s-36-15-71-47l122-63c-46-57-25-36-130-82l54-105c-133-33-95-92-97-98-1-4-3-11-4-15-1-3-5-11-6-14l-19-79c-9-91-22-73-32-89-83 67-46 90-53 126l-7 23c-34 87-61 34 3 112l-115 61c41 55 45 33 58 89l-143 72 116 82c-91 57-15 41-131 44z"/>
   <ellipse class="fil22 str4" cx="23498" cy="17477" rx="56" ry="45"/>
   <ellipse class="fil22 str4" cx="23153" cy="17556" rx="60" ry="48"/>
   <ellipse class="fil22 str4" cx="22787" cy="17770" rx="56" ry="45"/>
   <ellipse class="fil22 str4" cx="23012" cy="17429" rx="56" ry="45"/>
   <ellipse class="fil22 str4" cx="22666" cy="17509" rx="60" ry="48"/>
   <path class="fil3 str1" d="m2286 13974l-69 43 214 231-51 117c-111 10-168-38-265-61-19-5-38-9-57-12l546 302c-49-48-90-97-99-157l89-98c-191-8-28-6-124 42-68 34 41 43-59 32l28-100c17-35 30-47 50-76 54 25 88 48 148 59l124-10c-10-25-10-23-32-58-14-23-18-25-35-49s-24-31-40-75l138 4c-13-72-4-43-74-135l98-66c-101-93-39-127-38-132 1-4 3-11 3-15 1-3 1-11 2-15l21-78c36-84 16-74 14-93-105 18-84 56-108 85l-17 16c-72 60-70 0-52 100l-130-3c9 68 23 51 8 107l-160-7 62 128c-107 6-33 29-136-25z"/>
   <path class="fil11 str5" d="m1857 18511c-3-54 18-96 63-114 45-19 115-15 173-36 59-21 106-67 129-116 23-48 23-99 17-138s-17-68-33-90-37-38-30-67c7-30 42-73 51-124s-8-108-42-154c-34-45-84-78-143-90s-128-4-172 6c-44 9-63 20-95-3s-77-80-121-111-86-37-140-32-120 20-162 53-61 84-70 129c-9 46-9 87-6 117 3 31 9 51-2 70s-40 37-66 50-50 21-80 75c-31 54-68 153-41 220s117 101 177 117c59 16 87 14 93 36 6 21-10 65 1 104s47 74 99 88c51 15 116 9 162-2s73-28 96 15 41 145 74 186 80 21 90-23-16-111-19-166z"/>
   <path class="fil11 str5" d="m28356 13841c5-32 21-53 50-59 28-6 68 5 105-1 36-5 69-27 88-52s25-54 26-78-2-41-9-56-17-26-9-42c7-16 33-37 44-66 11-28 8-64-6-94s-39-55-72-69-74-17-100-17-39 4-54-13c-16-17-35-55-57-78s-45-31-77-35c-32-3-72-2-100 12s-45 41-56 67c-11 25-15 49-17 67s-1 31-9 40c-9 10-27 17-44 21s-31 6-55 34-57 81-49 122c8 42 56 72 89 88 32 16 49 18 50 31s-13 37-12 60c2 24 19 48 47 63 28 14 66 19 94 18s46-8 54 20c8 27 7 89 21 116s44 21 55-3 4-66 8-98z"/>
   <path class="fil23 str1" d="m8695 19351l-58 103 435 144 18 185c-134 91-240 70-380 109l-81 24h907c-96-26-183-60-236-130l44-187c-248 124-40 12-128 141-62 92 82 26-53 82l-35-147c-3-57 5-81 10-133 86-6 146 0 230-29l150-100c-30-25-30-22-82-51-34-19-41-19-79-38s-52-22-104-68l178-92c-67-83-36-52-190-120l78-152c-194-47-139-134-141-142-2-5-5-17-6-22-2-5-7-15-8-20l-28-115c-13-132-32-106-47-129-121 97-67 131-77 184l-11 33c-49 127-89 49 4 163l-167 88c60 80 65 48 85 130l-208 104 169 119c-132 84-22 60-191 64z"/>
   <path class="fil23 str6" d="m10308 19447c68 128 59-5 78 188 120 33 132-7 208 79 67-196 52-12 159-129 19-21 95-202 34-258-66-60-70 7-188-91-33-27-33-42-86-69-85 37-79 34-111 110l-93 169z"/>
   <path class="fil21 str5" d="m8254 17159c21-44 55-68 99-64 44 5 97 37 153 46 55 8 113-8 152-36s61-68 73-102 16-61 13-85-13-46 5-66 64-40 93-76 40-89 33-140c-7-50-33-98-75-133s-100-58-139-69-58-11-74-43c-15-32-27-96-48-140s-52-66-97-86c-45-19-104-35-151-27-48 8-84 40-111 72s-45 65-55 90c-11 26-15 44-32 55-17 10-47 12-74 11-26-1-48-5-96 25-47 30-120 92-127 157-8 64 50 130 90 168s63 49 58 68c-4 19-36 47-44 83s6 79 40 112 88 57 129 68 70 9 70 53-30 132-21 179c8 46 54 50 81 20s35-95 56-139z"/>
   <path class="fil21 str5" d="m5250 16747c0-40 17-69 51-81s85-6 129-19 81-45 100-79 21-71 19-101c-2-29-9-51-20-68s-25-29-19-51c6-21 34-52 43-88 9-37-1-80-24-115s-58-61-101-73-94-9-127-4-47 12-69-7c-22-18-53-62-84-87s-61-31-101-30-89 9-122 32c-33 22-49 59-58 92s-11 63-10 86 4 38-5 52-31 25-51 34c-20 8-38 13-62 51-25 38-57 109-40 160 17 50 82 79 124 94 43 15 63 15 66 30 3 16-10 47-4 77 6 29 32 56 68 69 37 13 85 12 119 6s55-17 70 15 24 108 46 140 58 19 67-13c10-32-7-82-7-123z"/>
   <path class="fil3 str1" d="m6287 16318l-53 74 319 148-3 142c-110 57-190 32-300 49-21 3-43 7-64 11l692 80c-71-28-134-62-168-120l50-139c-200 72-32 5-110 96-56 65 60 27-47 58l-14-115c3-44 11-61 20-100 66 3 111 13 178-1l124-63c-21-21-21-20-58-46-24-17-30-18-57-36s-37-21-73-61l144-55c-44-69-23-43-134-108l73-109c-144-53-94-115-95-121-1-4-2-13-3-17s-4-12-5-16l-11-90c1-102-15-83-25-102-101 63-63 94-75 133l-11 24c-49 93-72 29-11 125l-135 53c38 66 46 43 53 107l-168 61 119 106c-108 52-22 44-151 32z"/>
   <path class="fil21 str5" d="m2050 16172c20-35 50-52 85-45s77 37 121 48c45 11 92 2 126-18s54-51 67-78c12-27 17-49 16-69s-7-38 9-53 55-28 81-55c26-28 39-70 36-111-2-41-20-82-51-114-32-32-77-54-108-66s-47-13-57-40-15-80-29-117-38-58-73-77-82-36-121-33-71 27-96 51c-24 24-41 49-51 69-11 20-15 35-30 42s-39 7-61 4c-21-3-39-7-80 13-41 21-104 67-115 118-11 52 31 109 61 143s47 44 43 59c-5 15-32 36-42 64-9 28-1 64 25 94 25 30 68 53 100 65 33 12 56 13 53 48s-34 106-30 144c3 38 41 45 65 22s35-75 55-109z"/>
   <path class="fil11 str5" d="m5536 18955c22-62 64-99 123-100 59 0 136 36 212 39s150-27 199-70 71-100 83-147 12-84 5-116c-8-32-24-59-2-90 21-30 81-63 114-116s40-126 23-192-58-126-120-168c-61-41-142-63-196-73s-80-6-105-47-50-125-85-181c-35-55-80-81-143-101-63-19-144-33-207-15s-107 66-139 113-50 93-61 129-13 62-35 78c-21 16-62 23-97 26s-66 1-125 47-147 141-148 228 86 167 145 213c59 45 91 56 88 83-3 26-41 69-47 118s19 105 70 145 126 64 183 73 95 2 101 61-21 182-3 243 80 60 112 15 33-133 55-195z"/>
   <path class="fil24 str1" d="m12334 17196c1 0 45-4 65 0 72 15 33 6 63 25 0 0 92-165 231-1 5 6 18 25 22 32l36 47c-206-311 92-211 117-383 13-84-1-37-13-111-1-8-3-14-4-23-63-401-169-196-350-250-52-16-98-50-166-61-231 86-151 147-143 326 5 116-154 259 143 273v126z"/>
   <path class="fil3 str1" d="m13489 14558l-40 71 299 99 12 127c-92 63-165 48-262 75-19 5-37 11-55 17h624c-66-18-126-41-162-89l30-129c-171 85-28 8-88 97-43 63 57 18-36 56l-24-101c-2-39 3-56 7-91 59-4 100 0 158-20l103-68c-21-17-20-15-57-35-24-13-28-13-54-26s-36-15-71-47l122-63c-46-57-25-36-130-82l54-105c-133-33-95-92-97-98-1-4-3-11-4-15-1-3-5-11-6-14l-19-79c-9-91-22-73-32-89-83 67-46 90-53 126l-7 23c-34 87-61 34 3 112l-115 61c41 55 45 33 58 89l-143 72 116 82c-91 57-15 41-131 44z"/>
   <path class="fil3 str1" d="m18517 14648l-65 50 236 209-39 121c-110 21-171-22-270-35-19-3-38-5-58-7l573 247c-54-43-99-88-114-146l79-106c-191 11-29-4-119 54-64 41 45 39-56 37l18-102c14-37 25-50 43-81 56 20 92 40 153 44l122-22c-12-24-13-22-38-55-16-21-21-23-40-45-19-23-27-28-47-71l137-10c-20-71-9-43-87-127l91-75c-110-83-51-122-51-128 0-4 2-12 2-15v-15l14-80c28-87 9-75 5-94-103 28-78 64-99 95l-16 18c-66 67-69 7-42 104l-129 10c16 67 28 48 18 105l-160 9 74 121c-106 17-30 32-138-11z"/>
   <path class="fil21 str5" d="m17475 15066c0-26 11-45 33-52 22-8 55-4 83-12s52-29 65-51 14-46 12-65-6-33-13-44-16-19-12-33 22-33 28-57-1-52-15-74c-15-22-38-40-65-47-28-8-61-6-82-2-21 3-30 8-45-4s-34-40-54-56-40-20-66-19-58 6-79 21c-21 14-31 38-37 59s-7 41-6 55c1 15 3 25-3 33-6 9-20 16-33 22-13 5-24 9-40 33-16 25-37 71-26 103s53 51 80 61c28 9 41 9 43 20 2 10-7 31-3 50s20 36 44 45c24 8 55 8 77 4s36-11 45 10c10 21 15 70 30 90 14 20 37 12 43-8 6-21-4-53-4-79z"/>
   <path class="fil11 str5" d="m24812 14652c17-36 45-55 80-51s79 30 124 37 91-6 123-29 49-55 59-82 13-49 10-69-10-37 4-53c15-17 52-32 75-61s32-72 26-113-27-79-60-108c-34-29-81-47-112-56s-47-9-59-35-22-78-39-113-42-54-78-69c-36-16-84-29-122-22-39 6-68 32-90 58s-36 52-45 73-12 36-26 44-38 10-60 9c-21-1-39-4-77 20s-97 74-103 126 40 105 72 136 51 39 47 55-29 38-36 67 5 64 32 91c28 27 71 46 104 55s56 8 56 43-24 107-17 145 44 41 66 16 28-77 45-113z"/>
   <path class="fil3 str1" d="m23292 14187l-40 71 299 99 12 127c-92 63-165 48-262 75-19 5-37 11-55 17h624c-66-18-126-41-162-89l30-129c-171 85-28 8-88 97-43 63 57 18-36 56l-24-101c-2-39 3-56 7-91 59-4 100 0 158-20l103-68c-21-17-20-15-57-35-24-13-28-13-54-26s-36-15-71-47l122-63c-46-57-25-36-130-82l54-105c-133-33-95-92-97-98-1-4-3-11-4-15-1-3-5-11-6-14l-19-79c-9-91-22-73-32-89-83 67-46 90-53 126l-7 23c-34 87-61 34 3 112l-115 61c41 55 45 33 58 89l-143 72 116 82c-91 57-15 41-131 44z"/>
   <path class="fil11 str6" d="m22311 14443c68 128 59-5 78 188 120 33 132-7 208 79 67-196 52-12 159-129 19-21 95-202 34-258-66-60-70 7-188-91-33-27-33-42-86-69-85 37-79 34-111 110l-93 169z"/>
   <path class="fil24 str5" d="m17723 16951c7-39 28-64 63-70s83 9 128 4 86-29 110-59c25-30 33-65 35-94 3-29-1-50-8-69-8-18-19-33-10-52 10-20 41-44 56-78s12-77-4-115c-16-37-46-69-86-87-40-19-89-24-122-25-32-1-47 4-66-18s-41-69-66-98-54-40-93-46-88-6-123 10-57 48-71 79c-14 30-21 59-24 81s-2 37-13 49-34 19-55 24-38 6-69 39c-30 33-73 96-66 147 8 51 66 90 104 111 39 21 58 25 59 40 1 16-18 44-17 73s21 60 54 78c33 19 80 26 114 26s56-7 65 26c9 34 5 109 21 143s52 28 67-1c14-29 7-81 14-119z"/>
   <path class="fil24 str1" d="m15402 17376l-34 84 345 66 32 139c-93 83-176 77-279 121-20 8-40 17-59 27l691-91c-76-10-145-27-193-75l15-147c-177 119-30 13-83 120-38 76 65 12-32 68l-41-108c-8-43-4-62-5-102 65-13 111-15 172-45l105-91c-25-16-25-14-68-31-28-11-33-10-64-21s-42-12-86-41l126-88c-60-56-33-36-156-72l44-124c-152-17-119-88-122-94-2-4-5-12-7-16-2-3-7-11-8-14l-33-84c-23-99-35-77-49-93-83 86-38 106-40 148l-5 26c-25 102-63 46 20 124l-118 84c53 55 55 30 78 91l-148 100 141 74c-92 77-11 48-139 68z"/>
   <path class="fil23 str1" d="m14403 18973l-32 114 456 37 61 175c-109 120-217 124-344 195-25 14-49 28-73 43l882-214c-100-2-192-15-260-71l-2-192c-212 179-36 21-91 167-39 104 86 6-32 92l-69-134c-16-55-14-80-21-131 82-26 142-35 216-82l123-132c-35-17-34-15-92-30-38-10-44-9-86-18-42-10-55-9-117-42l151-132c-85-65-47-42-213-72l40-167c-200 0-167-97-171-104-3-5-8-15-11-19s-10-13-13-17l-54-105c-44-125-56-95-76-114-95 123-34 143-31 197l-2 35c-18 135-75 69 43 158l-141 125c77 64 75 31 113 106l-178 151 193 76c-109 112-7 63-170 107z"/>
   <path class="fil1" d="m16 14478c88-80 186-152 294-212 182-101 393-169 636-190 264-23 567 11 858 92 280 78 549 201 764 361 253 189 429 429 567 619 100 137 181 248 256 291 114 66 222-25 374-154 81-69 174-148 289-221 173-110 392-205 628-268 220-59 454-92 676-84 207 7 404 49 585 110 222 75 420 178 582 282 69 45 132 89 190 130 184 131 319 228 465 175 91-33 188-123 316-241 145-134 328-304 585-467 263-166 604-325 968-425 306-84 627-126 931-96 297 29 578 127 826 258 308 162 566 374 741 566 154 169 245 322 312 435 69 116 112 190 172 192 65 3 156-74 276-175 103-87 228-192 379-283 172-103 378-187 603-235 204-44 424-60 648-35 227 25 459 90 669 180 224 96 424 219 570 349 145 129 235 265 312 380 72 108 132 197 210 241 80 44 182 43 301 6 120-38 258-112 407-215 95-65 195-141 299-221 224-171 468-357 722-476 192-90 390-142 593-149 192-6 388 28 585 109 190 78 382 200 577 324 220 140 446 284 680 371 222 83 453 117 674 98 217-18 425-87 609-206 128-84 245-193 370-310 239-223 508-474 946-633 338-123 778-190 1218-196 429-6 859 47 1199 164 532 183 839 523 1075 784 69 76 132 146 193 203 131 123 251 184 363 178 111-6 215-80 316-227 103-151 203-379 305-613 101-230 204-467 317-644 114-180 239-298 376-370s288-97 455-91c178 6 376 48 561 133 161 74 313 181 436 325 145 171 250 394 331 566 41 87 75 160 105 207v34c-36-47-75-131-123-232-80-171-184-393-328-562-121-142-271-247-430-320-183-84-378-125-554-131-164-6-311 19-445 89s-256 186-368 363c-112 176-215 412-315 641-103 235-203 464-307 617-105 153-214 230-332 236-117 7-242-57-377-183-61-57-124-127-194-204-234-259-540-597-1067-778-337-116-765-169-1192-163-438 6-875 73-1211 195-435 157-702 407-939 629-126 117-243 227-373 312-187 122-398 191-618 210-224 19-458-15-683-99-236-89-463-233-684-373-195-124-386-245-574-323-195-80-388-114-577-108-200 7-395 58-585 147-253 118-495 303-719 474-104 80-204 156-300 221-151 103-290 179-413 217-124 39-231 39-317-8-83-46-144-137-217-247-76-114-166-248-309-376-144-129-343-251-565-346-209-89-438-154-663-179-221-24-439-9-641 35-222 48-426 131-597 233-149 89-273 194-376 281-124 104-217 183-290 180-71-3-116-80-188-202-67-113-156-265-309-432-174-191-430-401-736-562-246-129-524-227-819-256-302-30-621 12-924 95-361 99-700 257-962 422-256 161-438 331-582 464-129 120-228 211-322 245-156 56-295-43-484-178-58-41-120-86-189-130-161-103-357-206-577-280-179-60-374-101-579-109-220-8-452 24-670 83-233 63-451 157-622 266-113 72-206 151-286 219-159 135-271 229-397 156-79-46-161-158-263-297-138-189-313-427-563-614-212-158-480-280-757-357-289-81-589-114-851-91-241 21-449 88-628 187-112 62-213 137-304 221v-27z"/>
   <path class="fil25" d="m10 14437c40-36 83-70 128-102 49-35 101-68 155-99 96-53 199-97 310-130 106-32 219-53 340-64 133-11 277-9 423 7 147 16 298 45 446 86 145 40 287 93 420 155 128 61 248 131 355 211 128 96 237 205 332 314 94 109 173 217 243 312 50 68 95 129 136 179 40 47 76 83 110 103 45 26 90 21 140-5 57-29 120-83 195-146 40-34 83-71 133-109 48-38 101-77 159-114 89-56 189-109 297-155 107-46 221-86 340-118 114-31 232-54 350-69 112-14 225-20 336-16 101 3 200 15 295 33 103 19 203 46 299 78 106 36 206 77 299 123 106 52 203 107 290 163 34 22 68 45 100 67 33 23 62 44 91 64 91 65 169 121 241 153 67 30 130 41 193 18 84-30 179-118 303-233l1-1c73-68 155-144 252-224s208-164 338-246c138-87 298-173 471-249 159-70 330-132 506-180 161-44 326-77 490-94 153-16 305-18 453-3 145 14 285 44 420 87 147 46 288 106 419 175 147 77 283 166 403 258 136 104 253 212 347 315 156 171 248 326 316 441 63 107 103 174 144 176 52 2 138-71 253-167 52-44 109-92 173-141s134-99 210-145c90-54 188-102 293-143 101-39 208-72 320-96 106-23 217-38 330-44 108-6 217-3 328 9 113 12 227 34 338 64 117 31 232 72 341 118 113 48 220 104 318 163 98 60 187 125 262 192 74 66 134 134 186 200 51 66 93 129 132 186 70 104 127 190 199 230 35 19 75 29 120 29 47 1 98-8 155-26 58-18 121-45 187-81 67-36 138-79 211-130 94-65 194-140 297-219l1-1c226-172 470-359 728-480 99-47 200-83 303-109 100-25 201-40 303-43 100-3 200 4 302 23 99 18 198 48 298 89 97 40 194 91 291 147 98 57 194 118 292 180 219 139 443 282 673 368 109 41 219 69 330 85s221 20 329 10c107-9 211-31 312-65 98-33 193-79 281-136 125-82 241-190 365-305l1-1c241-225 513-479 958-640 169-61 363-109 569-142 211-34 435-53 660-56 221-3 443 10 652 38 201 27 391 70 558 128 540 186 851 530 1089 793l2 2c67 74 129 142 189 198 63 59 124 103 181 132 55 27 107 40 157 37 49-3 97-21 144-55 49-35 98-88 146-158 102-149 201-375 302-608 101-231 205-469 319-648 59-92 120-169 184-231 65-63 133-113 204-150 72-38 147-63 226-78 78-15 160-20 246-17 95 3 194 16 294 40 94 22 188 54 280 96 85 39 168 87 246 145 73 54 141 117 202 189 75 87 138 188 194 288 54 99 101 199 142 286 22 46 41 88 59 124l15 30v155l-21-25c-20-24-41-60-63-102-21-40-44-90-69-144-40-85-85-182-139-280-53-96-114-192-184-274-57-67-120-125-188-175-73-54-150-99-230-136-86-40-175-69-264-91-95-22-188-35-277-38-79-3-154 2-226 16-71 14-138 36-202 70s-125 78-184 136-116 129-171 215-108 188-160 297c-53 111-103 226-153 340-52 118-103 235-154 341-52 107-103 204-157 282-55 80-111 140-169 181-60 43-123 66-188 69-65 4-131-12-199-45-66-32-134-82-204-147-31-29-63-61-95-96-29-31-64-69-100-109l-1-1c-232-256-534-590-1053-769-163-56-347-97-542-124-205-28-422-40-638-37-220 3-440 21-647 55-201 32-390 79-554 138-427 155-692 402-927 621l-1 1c-127 118-245 229-378 315-95 62-196 110-301 146-107 36-219 59-333 69-115 10-232 6-349-11s-233-47-348-90c-240-90-468-235-690-376-98-62-194-124-288-178-95-55-188-104-280-142-94-39-187-66-280-84-95-18-190-25-283-21-96 3-191 17-285 41-97 24-193 59-287 103-249 117-490 300-712 470-105 80-205 157-301 222-76 52-150 98-220 135-71 38-138 67-201 87-65 20-127 31-183 30-59-1-112-14-160-40-90-50-153-144-229-258l-1-2c-37-56-78-117-127-179s-106-127-175-189c-71-63-155-125-249-183-94-57-197-111-306-157-105-45-216-84-329-114-108-29-217-50-325-62-106-12-211-14-314-8-108 6-214 21-316 43-108 23-210 55-307 92-101 39-195 85-280 136-73 44-140 92-202 139-61 47-118 95-169 139-129 109-227 192-313 188-89-4-138-87-216-219-66-111-155-262-305-426-91-99-204-204-335-305-117-89-249-175-391-250-127-67-262-125-404-169-130-40-264-69-403-83-143-14-289-12-436 3-160 16-320 48-476 91-171 47-338 108-494 176-169 74-324 157-459 242-126 80-234 162-329 240-95 79-176 153-247 220l-1 1c-132 122-233 216-334 252-87 31-169 20-255-18-81-36-164-95-260-164-57-41-119-85-187-129-84-54-179-109-281-158-90-44-187-84-288-118-92-31-188-57-287-75-92-17-186-28-282-32-105-4-214 2-323 16-114 14-228 37-338 67-115 31-225 69-328 113-104 45-200 95-285 148-55 35-105 72-153 109-47 37-90 74-130 107-81 69-150 127-218 161-74 36-144 42-218-1-43-25-86-67-132-121-44-52-90-115-141-185-69-94-147-200-238-306-91-105-195-210-318-302-102-76-217-144-340-202-129-61-266-111-406-150-143-40-289-68-432-83-141-15-279-18-407-7-115 10-222 30-322 60-106 31-203 73-293 123-54 30-105 63-154 98-50 37-98 76-143 118l-28 26v-119z"/>
   <path class="fil1" d="m16 14639c88-80 186-152 294-212 182-101 393-169 636-190 264-23 567 11 858 92 280 78 549 201 764 361 253 189 429 429 567 619 100 137 181 248 256 291 114 66 222-25 374-154 81-69 174-148 289-221 173-110 392-205 628-268 220-59 454-92 676-84 207 7 404 49 585 110 222 75 420 178 582 282 69 45 132 89 190 130 184 131 319 228 465 175 91-33 188-123 316-241 145-134 328-304 585-467 263-166 604-325 968-425 306-84 627-126 931-96 297 29 578 127 826 258 308 162 566 374 741 566 154 169 245 322 312 435 69 116 112 190 172 192 65 3 156-74 276-175 103-87 228-192 379-283 172-103 378-187 603-235 204-44 424-60 648-35 227 25 459 90 669 180 224 96 424 219 570 349 145 129 235 265 312 380 72 108 132 197 210 241 80 44 182 43 301 6 120-38 258-112 407-215 95-65 195-141 299-221 224-171 468-357 722-476 192-90 390-142 593-149 192-6 388 28 585 109 190 78 382 200 577 324 220 140 446 284 680 371 222 83 453 117 674 98 217-18 425-87 609-206 128-84 245-193 370-310 239-223 508-474 946-633 338-123 778-190 1218-196 429-6 859 47 1199 164 532 183 839 523 1075 784 69 76 132 146 193 203 131 123 251 184 363 178 111-6 215-80 316-227 103-151 203-379 305-613 101-230 204-467 317-644 114-180 239-298 376-370s288-97 455-91c178 6 376 48 561 133 161 74 313 181 436 325 145 171 250 394 331 566 41 87 75 160 105 207v34c-36-47-75-131-123-232-80-171-184-393-328-562-121-142-271-247-430-320-183-84-378-125-554-131-164-6-311 19-445 89s-256 186-368 363c-112 176-215 412-315 641-103 235-203 464-307 617-105 153-214 230-332 236-117 7-242-57-377-183-61-57-124-127-194-204-234-259-540-597-1067-778-337-116-765-169-1192-163-438 6-875 73-1211 195-435 157-702 407-939 629-126 117-243 227-373 312-187 122-398 191-618 210-224 19-458-15-683-99-236-89-463-233-684-373-195-124-386-245-574-323-195-80-388-114-577-108-200 7-395 58-585 147-253 118-495 303-719 474-104 80-204 156-300 221-151 103-290 179-413 217-124 39-231 39-317-8-83-46-144-137-217-247-76-114-166-248-309-376-144-129-343-251-565-346-209-89-438-154-663-179-221-24-439-9-641 35-222 48-426 131-597 233-149 89-273 194-376 281-124 104-217 183-290 180-71-3-116-80-188-202-67-113-156-265-309-432-174-191-430-401-736-562-246-129-524-227-819-256-302-30-621 12-924 95-361 99-700 257-962 422-256 161-438 331-582 464-129 120-228 211-322 245-156 56-295-43-484-178-58-41-120-86-189-130-161-103-357-206-577-280-179-60-374-101-579-109-220-8-452 24-670 83-233 63-451 157-622 266-113 72-206 151-286 219-159 135-271 229-397 156-79-46-161-158-263-297-138-189-313-427-563-614-212-158-480-280-757-357-289-81-589-114-851-91-241 21-449 88-628 187-112 62-213 137-304 221v-27z"/>
   <path class="fil26" d="m10 14587c39-34 80-66 123-97 50-36 102-69 156-99 96-53 200-98 312-131 106-32 220-54 341-64 134-11 278-9 425 7 148 16 299 45 448 86 145 41 288 93 421 156 129 61 249 132 357 212 129 96 238 206 333 315 94 109 173 217 243 312 50 68 95 129 136 179 39 47 75 82 108 101 42 24 85 19 132-5 56-29 119-82 194-145 40-34 83-71 133-110 49-38 102-77 160-114 89-57 190-109 298-156 107-46 222-86 341-118 114-31 233-55 351-69 113-14 226-20 337-16 102 4 201 15 297 33 104 19 204 46 300 79 106 36 206 78 300 123 106 52 204 108 291 164 34 22 68 45 100 67 33 23 62 44 91 64 90 64 168 120 240 152 65 30 126 40 187 18 82-30 177-117 300-231l1-1c73-68 156-145 252-224 97-80 208-164 339-247 139-88 299-173 472-249 159-70 331-132 507-180 161-44 326-77 491-94 153-16 306-18 455-3 145 14 286 45 421 87 148 46 289 106 420 176 147 78 283 166 405 259 136 104 254 213 348 316 157 172 249 327 317 442 62 104 101 170 137 172 48 2 134-70 247-165 52-44 109-92 173-141s134-99 211-145c90-54 189-102 294-144 102-40 209-72 321-97 106-23 217-38 331-45 108-6 218-3 330 9 113 12 228 34 339 65 117 32 232 72 342 119 114 49 221 104 319 164 99 60 188 126 263 193 74 67 135 135 187 201 51 66 94 129 132 187 69 103 126 188 196 227 34 19 73 28 116 28 46 1 97-8 152-26 58-18 120-45 186-80 67-36 137-79 211-129 94-64 193-140 296-219l1-1c226-172 471-359 730-480 100-47 202-84 304-109 100-25 202-40 305-43 100-3 202 4 303 23 99 19 199 48 299 89 97 40 194 91 292 147 98 57 195 118 292 180 219 139 443 282 672 367 108 40 218 69 328 85s220 19 328 10c106-9 210-30 310-64 98-33 191-78 279-136 125-81 240-189 363-304l1-1c242-226 514-480 960-642 170-61 364-109 571-142 211-34 436-53 661-56 222-3 443 10 653 38 202 28 392 70 560 128 542 187 854 531 1093 795l2 3c67 74 128 142 188 197 63 59 122 102 179 130 54 27 105 39 153 36 47-3 94-20 140-53 49-35 97-87 144-156 101-148 200-374 302-606 101-232 205-470 320-650 59-93 121-170 185-233 65-64 134-114 206-151 73-38 148-64 228-79 79-15 161-20 248-17 95 3 195 16 296 40 94 22 189 54 282 97 86 39 169 88 248 146 73 55 142 118 204 190 75 88 139 189 195 290 54 99 101 199 142 286 22 46 41 88 59 123 3 5 5 10 8 15v187l-27-33c-21-25-42-61-64-104-21-40-44-90-70-144-40-84-85-181-139-279-53-96-113-191-183-273-57-66-119-124-187-174-72-54-149-99-229-135-86-39-174-69-263-90-94-22-187-35-275-38-79-3-153 2-224 16-70 14-137 36-200 69s-124 77-182 134c-59 58-115 128-170 214-54 85-107 187-159 296-53 112-103 226-153 340-52 118-103 235-154 341-52 107-104 205-157 283-55 81-112 142-171 184-62 44-126 67-193 71-66 4-133-12-203-46-67-33-135-83-206-149-31-29-63-62-96-96-29-31-63-69-99-109l-1-2c-231-255-533-588-1050-766-162-56-346-97-540-123-205-28-421-40-637-37-220 3-439 21-645 54-200 32-389 78-552 138-426 154-690 400-924 619l-1 1c-127 119-246 229-379 316-95 62-197 111-303 147-108 37-220 60-335 69-115 10-233 6-351-11-117-17-235-47-350-91-241-90-469-235-691-377-98-62-195-124-288-178-94-55-187-104-279-142-93-38-186-66-279-83-95-18-188-24-281-21-95 3-190 17-283 41-97 24-192 59-285 102-248 116-489 300-711 469-105 80-205 157-302 223-77 53-151 98-221 135-71 38-139 67-203 87-66 21-128 31-186 30-60-1-115-14-164-42-92-51-155-145-232-260l-1-2c-37-56-78-117-126-179-49-62-105-126-174-188-70-63-154-124-248-182-93-57-196-110-305-157-105-45-215-83-328-114-107-29-216-50-323-62-106-11-210-14-313-8-107 6-213 21-315 43-107 23-210 54-306 92-100 39-194 85-279 136-73 44-140 91-201 139-61 47-118 95-169 138-131 110-229 194-319 190-93-4-144-89-223-223-66-111-154-261-304-425-90-99-203-204-334-304-117-89-248-175-390-249-126-66-261-124-403-168-129-40-263-69-401-83-142-14-288-12-435 3-159 16-319 48-474 91-171 47-337 107-493 176-168 74-323 157-458 242-126 79-234 161-328 239-95 79-175 153-246 219l-1 1c-132 123-234 217-337 254-90 32-173 20-261-18-82-36-165-96-262-165-57-41-118-84-187-129-84-54-178-108-280-158-90-44-186-84-287-118-91-31-187-56-286-75-91-17-185-28-281-31-105-4-213 2-322 16-114 14-227 37-337 67-114 31-224 69-327 113-104 44-200 94-283 148-54 35-105 72-152 109-48 37-90 74-130 107-82 69-151 128-219 162-76 38-149 44-226-1-44-26-88-68-134-122-44-52-90-116-142-186-69-94-146-200-237-305-90-104-195-209-317-300-102-76-217-143-339-201-128-61-265-111-404-150-143-40-288-68-431-83-140-15-278-18-406-7-114 10-221 30-320 60-105 31-202 73-291 122-54 30-105 63-153 98-50 36-97 76-142 118l-34 32v-142z"/>
   <path class="fil1" d="m10 16721c124-74 254-9 411 70 151 76 329 165 550 152 195-11 392-179 587-346 254-217 505-432 756-309 259 127 525 451 737 709 146 178 266 324 338 351 136 52 356-49 600-161 73-33 148-68 222-99 284-119 794-211 1212-286 72-13 141-25 208-38 1008-187 2495 432 2943 619 78 32 123 51 124 51 243-58 433-240 624-424 247-238 497-478 873-466 181 6 420 71 655 161 265 102 526 237 694 358 155 111 245 212 312 287 68 76 111 124 171 125 65 2 156-48 276-115 103-57 228-127 379-186 172-68 378-123 603-154 204-29 424-39 647-23 456 32 737 291 967 501 124 114 232 213 344 254 657 87 1085-115 1530-325 206-97 415-196 652-269 192-59 390-93 592-98 192-4 387 18 585 72 190 51 382 131 577 213 220 92 446 186 680 244 55 13 110 25 165 34 56 9 111 17 166 22v2504h-13v-2479c-53-5-106-13-158-22-56-10-112-21-167-35-236-58-462-153-684-245-195-81-386-161-574-212-195-53-388-75-578-71-200 4-396 38-586 97-235 72-444 171-649 268-448 212-881 416-1546 327h-2c-117-42-227-144-353-260-227-208-505-463-951-494-222-16-439-6-642 23-222 32-426 86-597 153-149 59-273 128-376 184-124 69-217 120-289 118-71-2-116-53-189-134-66-74-156-174-308-283-166-120-425-254-688-355-233-90-469-154-646-159-365-12-612 225-854 459-194 187-386 371-636 431-9 2-58-18-140-52-447-186-1928-803-2929-617-64 12-135 25-208 38-417 75-924 167-1207 285-76 32-150 66-222 99-250 114-474 217-620 161-78-30-200-178-348-359-211-257-475-578-729-703-236-116-481 94-728 305-199 170-399 341-602 353-228 13-409-78-563-155-149-74-271-136-382-74v3410h-18v-3429z"/>
   <path class="fil25" d="m10 16697c64-34 129-36 198-19 70 17 143 54 223 94l3 2c148 74 322 160 536 148 188-11 382-177 575-341 128-109 255-218 383-285 132-68 263-92 396-27 132 65 265 179 392 310 126 130 246 276 352 405 144 175 262 320 329 345 63 24 148 12 246-19 101-32 217-85 338-141l2-1c73-33 148-68 221-98 144-60 343-113 559-161 214-47 447-89 657-127l106-19c33-6 66-12 102-19 508-94 1135 14 1691 170 555 155 1040 357 1264 451l3 1c72 30 103 50 109 49 118-28 224-87 324-161 101-75 195-166 290-258 124-120 249-240 391-329 144-90 304-149 497-143 88 3 190 19 298 46 117 29 241 69 364 117 133 51 264 110 384 172 121 62 229 127 314 188 78 56 140 110 191 159s91 93 125 131c34 37 61 68 86 88 23 19 45 30 70 30 29 1 65-11 108-30 45-20 98-49 157-83l2-1c104-58 229-127 380-186 88-35 186-66 290-93 100-26 207-47 317-63 105-15 214-25 327-29 107-4 215-2 325 6 232 17 419 90 578 187 158 96 286 214 402 320 62 57 120 110 175 153 54 42 107 76 159 96 324 43 592 14 834-51 243-66 461-168 682-273 103-49 207-98 315-144s220-89 340-126c98-30 198-54 299-71 98-16 198-26 299-28 98-2 198 3 297 15 97 12 195 31 294 58 191 52 383 132 580 214 110 46 222 93 334 135s227 80 343 108c27 7 54 13 82 19 27 6 54 11 82 16s55 9 82 13c28 4 55 7 82 10l19 2v2544h-55v-2481c-20-2-41-5-61-7-27-4-54-8-79-12-28-5-56-10-85-16-28-6-56-12-84-19-238-59-465-153-686-246-97-41-193-81-289-117-95-36-189-69-283-94-95-26-190-44-284-56-97-12-193-17-288-14-97 2-194 11-290 27-98 16-195 39-290 69-117 36-227 78-333 124-107 46-210 94-312 143-451 213-886 419-1557 329h-3l-2-1h-1c-120-44-232-146-360-263h-1l-1-1c-224-206-499-457-938-488-108-8-214-9-318-5-109 4-216 14-319 28-109 15-212 36-310 61-101 26-196 57-283 91-148 58-271 127-373 183-62 34-117 65-165 86-51 22-95 36-134 34-41-1-73-16-106-42-31-24-61-58-98-99-66-73-155-172-305-280-83-59-188-122-306-183-117-61-247-119-377-169-120-46-241-86-355-114-104-26-201-42-285-44-178-6-327 49-461 134-136 86-257 203-378 319-97 94-194 187-299 265-101 75-209 135-330 167l-16 4c-16 4-66-17-152-53h-1c-223-93-704-293-1255-447-549-154-1166-261-1663-169-61 11-132 24-207 38h-1c-207 37-437 79-653 126-213 47-409 99-549 157-76 32-149 65-219 97l-2 1c-126 58-245 112-351 145-110 34-207 46-285 17-83-32-207-182-357-365-105-128-223-272-347-400-123-127-250-237-375-298-111-54-225-32-341 30-120 63-242 168-365 273-100 85-200 171-302 237-103 67-207 114-313 120-233 13-417-79-573-157h-1c-73-37-140-70-201-86-54-14-104-15-150 7v3418h-39v-3474z"/>
   <path class="fil1" d="m10 16854c124-74 254-9 411 70 151 76 329 165 550 152 195-11 392-179 587-346 254-217 505-432 756-309 259 127 525 451 737 709 146 178 266 324 338 351 136 52 356-49 600-161 73-33 148-68 222-99 284-119 794-211 1212-286 72-13 141-25 208-38 1008-187 2495 432 2943 619 78 32 123 51 124 51 243-58 433-240 624-424 247-238 497-478 873-466 181 6 420 71 655 161 265 102 526 237 694 358 155 111 245 212 312 287 68 76 111 124 171 125 65 2 156-48 276-115 103-57 228-127 379-186 172-68 378-123 603-154 204-29 424-39 647-23 456 32 737 291 967 501 124 114 232 213 344 254 657 87 1085-115 1530-325 206-97 415-196 652-269 192-59 390-93 592-98 192-4 387 18 585 72 190 51 382 131 577 213 220 92 446 186 680 244 55 13 110 25 165 34 56 9 111 17 166 22v2504h-13v-2479c-53-5-106-13-158-22-56-10-112-21-167-35-236-58-462-153-684-245-195-81-386-161-574-212-195-53-388-75-578-71-200 4-396 38-586 97-235 72-444 171-649 268-448 212-881 416-1546 327h-2c-117-42-227-144-353-260-227-208-505-463-951-494-222-16-439-6-642 23-222 32-426 86-597 153-149 59-273 128-376 184-124 69-217 120-289 118-71-2-116-53-189-134-66-74-156-174-308-283-166-120-425-254-688-355-233-90-469-154-646-159-365-12-612 225-854 459-194 187-386 371-636 431-9 2-58-18-140-52-447-186-1928-803-2929-617-64 12-135 25-208 38-417 75-924 167-1207 285-76 32-150 66-222 99-250 114-474 217-620 161-78-30-200-178-348-359-211-257-475-578-729-703-236-116-481 94-728 305-199 170-399 341-602 353-228 13-409-78-563-155-149-74-271-136-382-74v3410h-18v-3429z"/>
   <path class="fil27" d="m10 16816c65-33 132-34 201-17 71 18 145 55 225 95l5 3c146 73 318 158 528 146 184-10 376-175 567-338 128-110 256-219 385-286 135-70 270-94 408-27 134 66 268 181 396 312 126 130 246 276 353 406 143 174 260 317 324 341 60 23 142 11 237-19 100-32 215-85 337-140l2-1c73-34 149-68 222-99 144-60 345-114 562-161 213-47 447-89 657-127l106-19c31-6 64-12 102-19 510-95 1139 14 1697 170 556 155 1041 357 1266 451l3 1c70 29 91 51 101 48 116-28 221-85 319-159 100-75 195-166 289-257 125-120 250-241 393-331 146-92 308-151 504-144 89 3 192 20 300 46 117 29 242 69 366 117 133 51 265 111 385 173 121 63 230 128 316 189 79 57 141 111 193 160 52 50 91 94 125 131 33 37 60 67 85 87 21 17 41 27 62 27 27 1 61-10 103-29 45-20 97-49 156-82l3-1c104-58 229-127 380-186 89-35 187-66 292-93 101-26 208-47 318-63 105-15 215-25 328-29 107-4 217-2 326 6 234 17 423 91 583 189 159 97 288 215 404 321 62 57 120 110 174 152 53 41 104 74 155 93 321 42 587 14 827-51 242-65 459-168 680-272 103-49 207-98 315-144s221-90 341-127c99-30 199-54 301-71 99-16 199-26 301-28 99-2 199 3 299 15 98 12 196 31 295 58 192 52 385 132 581 215 111 46 223 93 334 135 112 42 226 79 341 108 27 7 54 13 81 18 26 5 54 11 82 15 28 5 56 9 82 13 28 4 55 7 82 10l31 3v2569h-81v-2483c-17-2-33-4-50-6-28-4-54-8-80-12-28-5-56-10-85-16-28-6-57-12-85-19-239-59-466-154-688-247-97-40-192-80-288-117-95-36-188-68-281-94-95-26-189-44-283-55-97-12-192-16-286-14-97 2-193 11-288 27-98 16-194 39-288 68-116 36-226 78-332 123s-210 94-312 142c-453 214-890 420-1564 330h-4l-3-1h-1c-123-45-235-148-364-266l-1-1-1-1c-223-204-495-454-930-485-107-8-213-9-316-5-109 4-215 14-318 28-108 15-212 36-308 61-101 26-195 56-281 90-147 58-270 126-371 182h-1c-62 35-117 65-166 87-52 23-98 37-140 36-44-1-79-17-114-45-31-25-62-58-98-99l-1-1c-66-73-154-171-303-278-82-59-187-122-305-182-117-60-246-118-376-168-120-46-240-85-353-113-103-25-199-41-282-44-175-6-322 48-454 132-135 85-256 202-376 318-98 94-195 188-300 266-100 74-206 134-325 167v1l-26 6c-20 5-72-17-160-54h-1c-223-93-704-293-1253-447-547-153-1163-260-1657-169-59 11-131 24-206 37h-2c-207 37-436 79-653 126-213 47-408 98-547 157-76 32-149 65-219 97l-2 1c-126 58-246 112-353 146-112 35-212 47-293 16-86-33-211-185-362-369-105-128-223-271-346-399-122-126-248-235-371-295-107-52-217-30-329 29-118 63-240 167-362 271-100 86-201 172-303 238-105 68-211 116-320 122-236 13-422-79-579-158h-1c-73-36-139-69-199-86-48-13-93-15-134 3v3423h-52v-3501z"/>
   <path class="fil28" d="m29710 16830c-74-224-256-384-491-482-158-66-341-105-532-116-190-12-388 3-577 42-434 91-823 315-966 657-1039 2487-2019 3187-2888 2930-872-258-1638-1476-2239-2822-104-232-461-378-884-439-468-68-1018-34-1393 101l-40 14c-1455 523-4251 3670-7411 2738-707-208-1161-27-1640 163-247 98-500 199-797 249-1233 209-2627-185-4029-582-2083-589-4183-1182-5815 177v652l5 587h16l-11-1193c1617-1363 3714-770 5793-182 1407 398 2805 793 4047 583 302-51 557-153 806-252 472-188 919-366 1612-162 3173 935 5978-2214 7437-2739l40-14c368-132 911-166 1373-99 410 59 754 197 851 414 606 1355 1379 2583 2266 2845 890 263 1889-441 2939-2954 137-328 514-543 935-632 185-39 380-53 566-42 186 12 364 49 518 113 248 103 433 277 486 526v3788h21v-3871z"/>
   <path class="fil28" d="m29710 16970c-74-224-256-384-491-482-158-66-341-105-532-116-190-12-388 3-577 42-434 91-823 315-966 657-1039 2487-2019 3187-2888 2930-872-258-1638-1476-2239-2822-104-232-461-378-884-439-468-68-1018-34-1393 101l-40 14c-1455 523-4240 3655-7400 2723-707-208-1161-27-1640 163-247 98-500 199-797 249-1233 209-2627-185-4029-582-2085-590-4188-1184-5820 182v1109h16v-1068c1617-1363 3714-770 5793-182 1407 398 2805 793 4047 583 302-51 557-153 806-252 472-188 919-366 1612-162 3173 935 5967-2199 7426-2724l40-14c368-132 911-166 1373-99 410 59 754 197 851 414 606 1355 1379 2583 2266 2845 890 263 1889-441 2939-2954 137-328 514-543 935-632 185-39 380-53 566-42 186 12 364 49 518 113 248 103 433 277 486 526v3648h21v-3731z"/>
   <path class="fil29" d="m29557 16666c63 62 115 133 153 214v3822h-55v-3645c-25-112-78-208-152-288-82-88-189-158-313-210-74-31-154-55-238-74-87-19-177-31-269-37s-185-5-279 2-187 20-278 39c-216 45-420 125-584 236-148 100-264 226-327 376-527 1261-1042 2070-1538 2530-502 467-986 579-1442 444-451-134-872-510-1256-1025-381-511-727-1159-1031-1839-43-95-139-175-271-239-149-73-343-124-554-155-232-34-484-42-724-24-233 17-454 57-632 121l-40 14c-406 146-920 499-1519 909-1540 1056-3633 2492-5929 1815-341-100-621-107-874-65-254 42-482 133-715 226h-1c-250 100-508 202-813 254-1249 212-2652-185-4062-584-1038-293-2080-588-3062-639-973-51-1890 138-2687 805v1052h-55v-1149c820-678 1756-870 2747-818 994 52 2043 348 3087 643h1c1398 395 2789 788 4014 581 294-50 545-150 790-247h1c241-96 476-190 741-233 266-44 561-37 920 69 2255 664 4324-758 5848-1805 601-413 1118-768 1532-917l40-14c188-68 418-110 660-128 248-18 509-10 748 25 225 33 432 89 594 169 151 75 263 171 316 289 300 671 640 1309 1015 1812 371 499 775 864 1204 991 423 125 874 16 1348-428 480-451 982-1244 1500-2483 71-170 200-311 363-423 177-121 396-206 627-255 96-20 194-34 293-41 98-7 197-8 293-2 99 6 195 19 287 39 90 20 176 46 256 80 125 52 236 122 325 209z"/>
   <path class="fil23 str7" d="m29710 16911c-196-935-2184-838-2546 29-2089 5e3 -3959 2809-5166 109-212-475-1546-580-2250-327-1445 520-4258 3799-7453 2858-1065-314-1553 265-2428 413-3075 521-7132-2691-9853-394v1102h29695v-3790z"/>
   <path class="fil30 str5" d="m21656 16580c33-43 76-60 122-45s96 64 154 86 123 19 173-2c49-21 82-59 103-92s32-62 34-89-3-52 22-70 79-27 119-60c40-32 65-87 69-143s-12-113-48-161c-37-48-94-87-133-108-39-22-60-26-69-64s-6-110-18-162-40-84-84-116-103-63-157-66c-53-3-100 23-137 51s-64 59-81 84c-18 25-27 44-47 51-21 7-54 2-82-6-28-7-51-17-109 4-58 20-151 70-175 138-24 67 22 152 56 203s56 68 46 87c-9 20-50 42-67 79-18 36-13 86 16 131 29 44 81 83 123 105s73 27 62 74-64 136-66 188 46 67 83 41c36-26 61-94 94-137z"/>
   <path class="fil31" d="m29689 16833c-35-104-94-193-171-268-75-73-166-133-270-181 115 53 216 122 295 207 64 70 114 150 145 242zm21-63v3931h-42v-3786c-25-115-79-213-155-295-83-90-192-161-318-213-75-31-155-56-240-74-87-19-178-31-271-37-92-6-186-5-281 2-94 7-188 20-280 39-218 46-423 126-589 238-150 102-268 229-331 382-526 1260-1040 2066-1535 2526-499 463-978 575-1430 441-448-133-867-508-1249-1020-381-510-726-1157-1030-1836-44-98-143-180-277-246-151-73-345-125-558-156-233-34-486-42-727-25-234 17-456 58-636 122l-40 14c-408 147-924 502-1525 915-1541 1059-3636 2499-5925 1825-343-101-625-108-880-66s-484 133-718 227c-250 99-506 202-810 253-1247 211-2647-185-4056-583-1039-294-2081-588-3065-640-978-51-1899 139-2701 811l11 1183h-42v-1266c816-674 1748-864 2736-813 993 52 2041 348 3085 643 1400 396 2791 789 4019 581 295-50 547-150 793-248 241-96 475-189 739-232 265-43 558-37 915 69 2260 666 4337-765 5865-1818 602-415 1120-772 1533-920l40-14c187-67 416-109 657-127 247-18 507-10 746 25 224 32 429 88 590 168 148 74 259 168 310 283 300 671 641 1311 1016 1815 373 502 779 868 1210 996 427 126 883 17 1360-431 481-452 985-1246 1503-2487 70-167 197-307 359-417 176-120 393-205 622-253 96-20 193-34 291-41s196-8 292-2c98 6 193 19 285 39 89 20 174 46 254 79 124 52 233 120 321 206 69 68 124 146 162 236zm-1028-518c-11-1-21-1-32-2 11 0 21 1 32 2zm-498 29c-12 2-24 4-35 7 12-2 24-4 35-7zm-43 8c-7 1-14 3-21 4 7-1 14-3 21-4zm-3828 3609c-11-3-22-6-34-9 11 3 22 6 34 9zm-2293-2801c-7-16-15-33-22-49 7 16 15 33 22 49zm-2249-384c-8 3-15 5-23 8 8-3 15-5 23-8zm-7535 2747c-328-90-600-94-847-54-227 37-432 112-639 194 206-81 410-156 637-193 248-41 521-37 850 53zm-1873 290c-20 7-41 14-61 21-8 3-16 6-25 8-11 4-22 7-33 11 11-4 22-7 33-11m-50 16c-8 3-17 5-25 8 8-3 17-5 25-8zm-38 12c-8 3-17 5-25 8 9-3 17-5 25-8zm-4371-503zm-605-169c-840-230-1674-431-2471-472-773-40-1512 69-2186 446 674-376 1413-486 2187-445 797 41 1631 242 2470 472zm-4660-24c-12 7-24 13-35 20 12-7 23-13 35-20zm-46 26c-9 5-19 11-28 16 9-6 19-11 28-16zm-44 26c-8 5-15 9-23 14 8-5 15-9 23-14zm-44 27c-6 4-12 7-18 11 6-4 12-7 18-11z"/>
   <rect class="fil32 str8" x="10" y="-299" width="29700" height="21000"/>
</svg>
