<?xml version="1.0" encoding="UTF-8"?>
<svg viewBox="0 0 799.01062 325.64337" xmlns="http://www.w3.org/2000/svg">
 <g transform="translate(901.49 -65.265)">
  <path d="m-643.48 390.28c-8.1702-0.92014-30.003-5.7832-50.5-11.249-28.3-7.5458-35.345-9.0259-71.25-14.969-62.789-10.393-78.574-10.309-101.03 0.53963-5.173 2.4995-9.6128 4.3371-9.8663 4.0836-1.0697-1.0697 7.8533-7.1757 17.142-11.73 10.582-5.1887 18.81-7.5136 31.858-9.0018 10.71-1.2215 36.642 1.5502 74.994 8.0157 35.728 6.0231 38.48 6.5994 67.149 14.061 35.776 9.3108 44.37 10.99 59.609 11.647 23.595 1.0176 48.881-2.6665 97.391-14.19 39.735-9.4387 52.777-11.935 81.151-15.529 36.309-4.5996 68.878-7.2437 91.177-7.4022l20.328-0.14443 4.5086-6.9588c6.8801-10.619 11.73-20.846 15.63-32.959 4.5882-14.25 9.2996-37.647 10.828-53.772l1.2105-12.772 6.3331-3.3629 6.3331-3.3629-0.0312 4.1346c-0.10404 13.79-6.2138 46.716-11.956 64.432-4.2014 12.962-7.9946 20.877-15.483 32.305-5.4715 8.3507-7.2359 10.285-10.786 11.824-4.7944 2.0791-5.5085 1.6438 7.4138 4.5194 11.296 2.5137 28.716 8.511 42.802 14.736 25.018 11.055 42.015 14.457 67.346 13.478 8.6932-0.33604 16.234-0.87561 16.757-1.199s-1.4114-2.605-4.2994-5.0702c-7.1989-6.1449-16.681-17.047-24.693-28.391-9.612-13.609-12.63-18.906-24.497-43-8.9339-18.138-11.11-23.529-13.916-34.474-2.7709-10.808-3.7396-13.229-5.8028-14.5-9.92-6.1126-20.1-16.275-18.126-18.095 0.42405-0.39102 3.3116-2.127 6.4168-3.8576l5.6458-3.1467 2.1197 3.4298c1.1659 1.8864 3.677 4.6175 5.5802 6.0692l3.4605 2.6394 3.9605-2.0205c4.4482-2.2693 4.2967-2.4081 5.6374 5.162 0.6671 3.7666 2.343 4.8629 11.139 7.2863 2.7764 0.76493 3.0216 0.30191 9.9482-18.792 7.3309-20.208 7.5706-20.645 13.623-24.786 7.1998-4.9268 8.1433-5.1437 14.427-3.3169 6.3103 1.8344 16.125 2.108 19.071 0.53154 1.1005-0.58895 2.745-2.9307 3.6546-5.2038 2.8094-7.0212-0.0178-22.275-6.0296-32.534-3.4698-5.9207-11.967-14.211-20.64-20.137-6.7972-4.6444-8.7615-7.6143-7.0539-10.666 0.47879-0.85554 4.4549-3.9256 8.8358-6.8224 8.7725-5.8007 12.474-10.352 12.474-15.337 0-4.2834-5.6893-9.2701-14.855-13.02-6.148-2.5155-7.9546-2.7524-24.145-3.1661-13.945-0.35636-20.813-0.02029-33.812 1.6545-21.693 2.7951-23.527 2.7576-26.116-0.53314-1.1399-1.4492-2.0726-3.1888-2.0726-3.8657 0-2.2797-10.457-12.088-15.5-14.538-7.3487-3.5711-18.303-3.9183-27.753-0.87977-6.1306 1.9712-8.0853 3.2303-13.752 8.8583-7.0299 6.9813-8.9949 11.123-8.9949 18.959 0 5.1193 1.9067 9.8445 6.4941 16.094 1.9283 2.6268 3.5059 5.3138 3.5059 5.971s-2.1823 3.747-4.8496 6.866c-6.1501 7.1919-10.047 13.008-14.075 21.006-5.4502 10.823-5.1517 19.619 0.95149 28.044 3.9122 5.4007 8.057 7.8627 14.616 8.6822 8.2711 1.0334 8.33 1.1389 8.6257 15.439 0.2255 10.906 0.5504 13.012 2.5479 16.517 5.7472 10.084 16.631 12.217 36.182 7.0891 3.0243-0.79325 5.6116-1.3293 5.7496-1.1913 0.55424 0.55425-7.9822 6.7848-11.055 8.0686-5.7968 2.4221-19.696 4.7567-25.724 4.3207-8.0109-0.57945-14.498-4.6472-17.874-11.207-2.1839-4.2438-2.5676-6.4899-2.9208-17.102l-0.4067-12.216-7.0339-1.257c-5.8573-1.0468-7.7263-1.8953-11.173-5.0726-9.3674-8.6345-11.794-21.468-6.2462-33.04 3.4324-7.1601 9.0872-15.886 14.964-23.092l4.6346-5.6825-4.3927-6.5506c-4.7959-7.1519-6.1915-12.671-5.1415-20.331 1.5517-11.321 12.707-21.732 35.642-33.264 14.984-7.5336 27.357-8.71 38.406-3.6513 6.3416 2.9033 14.437 10.515 17.437 16.395 1.1252 2.2056 2.8823 4.229 3.9045 4.4963s7.0051-0.11848 13.295-0.85734c23.896-2.8069 35.735-3.5377 46.764-2.8865 16.316 0.96329 25.236 3.9638 33.217 11.174 3.3977 3.0696 3.9549 4.158 3.9549 7.7246 0 5.9581-3.5629 10.545-12.905 16.615-11.283 7.3309-11.32 8.0571-0.76915 15.222 16.185 10.991 23.9 22.96 26.711 41.438 2.078 13.659-2.0249 19.778-18.86 28.124-9.2716 4.5966-9.7477 4.7163-18.719 4.7051l-9.2054-0.0114-3.766 10.511c-5.7185 15.961-8.4645 22.275-10.832 24.904-3.4946 3.8809-13.747 10.108-16.643 10.108-1.4731 0-2.9396 0.26128-3.2589 0.58062-2.1535 2.1535 13.491 38.091 25.866 59.419 11.447 19.729 30.341 42.749 41.243 50.249l4.4689 3.0747-2.9157 2.333c-3.6026 2.8827-3.5629 2.8825 12.201-0.0706 7.086-1.3274 23.909-4.044 37.384-6.0368 13.475-1.9928 25.288-3.7896 26.25-3.9928s1.75-0.2408 1.75-0.0834-2.3625 2.0619-5.25 4.2322l-5.25 3.946-25 3.7468c-13.75 2.0608-30.625 4.8264-37.5 6.1458-48.287 9.2669-81.825 7.1042-113-7.2868-17.068-7.8791-33.842-13.353-52.682-17.193-16.86-3.4359-45.261-2.5584-96.818 2.9916-38.781 4.1747-55.79 7.1585-94.5 16.577-54.636 13.294-88.961 18.134-111 15.652zm-218.96-224.02c-0.80308-0.31594-5.1077-3.3575-9.5658-6.759s-9.64-6.7195-11.515-7.3732c-3.0079-1.0486-3.5895-0.96163-4.9342 0.73757-1.351 1.7071-10.933 7.127-12.6 7.127-1.4236 0 0.88864-5.6815 3.3965-8.3454 3.5041-3.7223 15.294-9.6546 19.187-9.6546 4.065 0 10.989 3.6119 19.976 10.42 4.0506 3.0688 8.3985 5.5796 9.6618 5.5796s4.8973-1.155 8.0755-2.5667 9.5414-3.6617 14.14-5c13.59-3.9546 15.65-3.0485 6.6535 2.9251-3.0165 2.0029-6.6598 3.6416-8.0961 3.6416-3.626 0-12.414 2.6335-22.113 6.6267-8.2578 3.3998-9.6022 3.6893-12.267 2.641zm42.96-29.41c0-3.4863 18.401-15.858 23.587-15.858 1.5059 0 4.839 1.3482 7.407 2.9961l4.669 2.9961 7.9185-4.1058c7.1937-3.73 8.4286-4.0602 13.491-3.607 8.001 0.71616 19.947 7.6675 18.686 10.873-0.29145 0.74104-3.0067 2.6751-6.0339 4.2979l-5.504 2.9505-3.7877-3.3256c-8.3706-7.3494-16.497-8.304-24.658-2.8962-9.3605 6.2026-9.3888 6.2102-13.037 3.4879-5.5298-4.1265-7.6769-4.9626-9.2949-3.6198-2.6718 2.2174-13.443 6.8728-13.443 5.8102zm-56.087-15.973c-3.8246-3.0027-9.4263-3.348-16.39-1.0101-3.287 1.1036-6.1063 1.8765-6.2652 1.7176s2.3055-1.8772 5.4763-3.8186c14.527-8.8943 19.396-10.061 26.648-6.3853l4.8831 2.4748 6.1169-3.8502c9.3472-5.8835 13.688-7.3048 20.905-6.8452 3.4483 0.21957 7.2585 1.1019 8.4933 1.9668 2.2245 1.5581 2.1994 1.5934-3.7483 5.2645l-5.9878 3.6959-4.5576-1.5473c-6.6104-2.2443-9.7446-1.9748-12.563 1.0802-2.5471 2.7606-12.551 7.7393-17.51 8.7144-2.0589 0.40485-3.6735-0.023-5.5009-1.4577z"/>
 </g>
</svg>
